<mxfile host="app.diagrams.net" modified="2022-06-13T08:07:23.042Z" agent="5.0 (Windows NT 10.0; Win64; x64) AppleWebKit/537.36 (KHTML, like Gecko) Chrome/102.0.0.0 Safari/537.36" etag="MsSEwuPoQO1tdO-M2U0C" version="20.0.1" type="github">
  <diagram name="Page-1" id="03018318-947c-dd8e-b7a3-06fadd420f32">
    <mxGraphModel dx="2303" dy="1581" grid="1" gridSize="10" guides="1" tooltips="1" connect="1" arrows="1" fold="1" page="1" pageScale="1" pageWidth="1100" pageHeight="850" background="#ffffff" math="0" shadow="0">
      <root>
        <mxCell id="0" />
        <mxCell id="1" parent="0" />
        <mxCell id="WwoTSnJjeWih8oQnkTSt-24" value="" style="shape=image;verticalLabelPosition=bottom;labelBackgroundColor=default;verticalAlign=top;aspect=fixed;imageAspect=0;image=data:image/png,iVBORw0KGgoAAAANSUhEUgAABHwAAAQJCAYAAAC0Zx9dAAAAAXNSR0IArs4c6QAAAARnQU1BAACxjwv8YQUAAAAJcEhZcwAAFiUAABYlAUlSJPAAAP+lSURBVHhe7N0HvGVXWf//ld4zmfQ6yaQnDISOoaho6Iiif2xgsCHYzY8O0oUAFoqiiAUFlBbFAoJxaCGhBEInk15I7723/7zX3GfYOdw7c+/cO+We+X5erzX77L1Xedba+5zZz/c+a+1NFi867L4W5gGbTGwnY64v4araCmE8mKu7fC6/ffnmzRH5Xy2EaTP93518sdYOGdcNnxleo/xnvpbId2V+keu1odAFnze86dXtrLPOal899dS24447tj/+4z9u++yzT89w3325WCGEEEIIIYQQQgjrm80226ydffbZ7Utf+lL7/Oc/3z7+8Y+3Zz3rWe0FL3hBW7JkSbvnnnsmck4IPu9699vbGWcsayeddFLbaaed2p//+Z+3nXfeeSJLCCGEEEIIIYQQQtgQuPjii9tnP/vZduKJJ7YPfehD7dd//dfbS17yknbQQQdN5FjBpv656847253LEyXo7rvvbrfeems/GUIIIYQQQgghhLCmmDV07733rtQbpLvuuut+yTHn5ZPmaqbRTNuWfy7aVoNq7lme7rq3tTvvae2O5en2uwdp4pjzdy9P9y7PO92Wb7vttq7hsB22jo3SBZ8QQgghhBBCCCGEuaTEljvuuKPdfPPN7dprr21XXnllu+yyy9qll17a0xVXXNGuuuqqdt111/U8FYwyW+FF24SQ22+/vd144429bW1V27bDtm+55ZZu52wFJ0WJN8Sc6+9o7YpbWrvwxtbOuq61069p7XvL0+nXtnbm8nTeDa1denNr1y3Pd9vdE6LP7Lp9PzZbuGDX1z75KU9oV199dbvooova1ltv3Y455pi+lk8IIYQQQgghhBDCmkBwIaIQXC6//PI+FemCCy7o6cILL2yXXHJJP06MIfYQejbddNO2+eab97VqNtlkzVZCJ9ioi3ik7tG2aR/V9jXXXNNnORF6tL3FFlvMru3l6Z57W7vxztYuuLG1M65t7VtXtfbVy5any1v7+pWtfWf5PgHokptbu2F5vrvuaW2LTVvbdou2vN0V67+vqnl9Mn7nnXdeO/3009tRRx3Vjj766Lb77rtP5FhBInxCCCGEEEIIIYQwZxBaCCkiaQgTtkQVQs7ChQvbXnvt1fbdd9+29957d5FCwAmxhTAkb4ky9k27mgmmNgloIfAQREQUifLZcsst+1rF2vaSKm3vtttuK4Ndrr/++i4CWRBZ2RKgpovoHBE959/Q2tcub+0rly3/fH1rtyw3f7stWtt/eTMP2KW1B+3a2pLl6aAFre28VWt3L2+C8PPNK1s7+eIVQtA1t62IEJotEXxCCCGEEEIIIYQwa0TJEHtuuummPlVKBI2t6VKiZog9++23XzvkkEPa4Ycf3g499NB24IEHdvGlhBdlTbUivhCNlJ2O6KNt+W644YaVbRN7CEAl9ixatKi3fdhhh/Vttb3DDjv08srWdK+a5iVKaVVTvJySbl1uoulZ51y/YurWucu3t97d2vZbtHbAgtYeukdrP7pvaz+xqLUfW7591F6tHb5zawuJPveuEH2+c3VrZ1/b2sXLPxOPrAE0myleEXxCCCGEEEIIIYQwK0pwESlT6+IQW0yRIuYQe3bZZZe26667rkwibGwdl7w1fNttt+3TqUQEEXwk0Tbqn0p4KaGp1urRtqlkW2211f3alrRZqdomBlXbhCltE4tquteq1hS6e/nhm+9q7YpbV0T3XHLTigWZt9+ytd23bW3fHVo7YHk6cMHytFNrBy1PtouX7xOCFu3Y2l7L8+20VWubbtLa5bf8oJ4b7mjtznvXXPSJ4BNCCCGEEEIIIYRZQ2QRWWM6lkgdgssBBxzQo3lE9hBXttlmm5Vr5JjGJfpm++237wLM/vvv318tbsqVfIQj06uIOCJtphJ9HCfMaFt0kMgc5Q8++OBen+ljq2p7jz32aIsXL+75bU09U5e2a1qZNkZhyp13t3b1bSsies64rrVrb29tvx1WRPP8yF6tPXDX5fs7trbDVq1tPqHAbLbJivV69ti2tSN2ae0Re7b2mL1XRAHddk9rZy+vx6LOl93yg8Wc14RNFi867L63v/OtbdkZy9opp5zSFixY0I4//vg+IBsKLqhEVRteZGmqCx7C+sKPh+SHxA9FLTgWQgghhBBCCONICS4ia6yb4zMBpyJqtttuu+4jTQeROsoTeQguNADRN3vuuWePxCEiDeuiExB4iEPaFlEkv7zalp+4szroCtoSlWRKF8FHv0QIadtaQ+oeYrHlq25bsSizqVzbbN7abtu0dvBOKyJ37JfIsyoIOl7V7m1dFnS+7OYVr3JfsPUKMWjv7VvberlLWd22ztBJJ53Uli5d2k444YR27LHHtuOOO64tWbJkRYYJNvi3dNWgU9RceMlnF9W2ztkmJW1IaTTsz4/MdH/kQgghhBBCCGG+wE+3/g3Bx/QruoK1cUyZElUzHcGl4DMRVkTf8KuILur3mXDk3LC+4WvXTcEiMlmY2Xa6Yk9RbStTWoRIJces8+OP+eXTEWlM5bry1hWvWbfQ8iELV4g9e+/Q2g5brhBopuUCLs9DGNpqs9a2XJ7EElnD58rldZoWZnrYlsvPbzbRlbF5S5eL6wJS2WyJOwbYBajoCYOflLQhpIrmcX+6d4U0Uqfdv/VjlYi0EEIIIYQQwjjAt5EIMkQXYg+BR2SN2UM1hWomlK9vPR2CkWAUbVgbiF9FE+BXFXQCooyt6Vny2xKdZir2yM9e5a37Q2Dix4kgqrbLn7OgsjV2TOES6WNxZuKMtOOWK9bjkaaDbPJuvfny8tu1tufytONWK0QlUT/XL2/DukAzZYOe0lU3DqXQFpxqF76UNakGPIT1jXtRqgg0Pzp+INy3FGEKcwlCIYQQQgghhDCf4fsQXyrihOgjskciuPCDKiJmTeBXmarlNe3a8FYvIlBF+sDbvEzB4nsRaYhNpnSJEJoNNbVLFI2+0EjUz6/jz1lbxzo7F97Y2nW3rxB5HrJHa/tsvyJKZzZYuHnZNSvW8lm4zYrpYYuXJ2ISpjula4P1Ot00HGYREhxmA0odpLRxml3cpKQNLflRkfwguF9t7fshHFWEQwghhBBCCGE+w7fhr1fUDXGHv15/6J6N2AN1qItvxa8i6tTsiUJwiOPaF90j71z8gb2ijIg87BBFZPZGRRd5lXqPvlmeLMDsbVyifGra1WzY1lpA27a25/at3XznikWhb1n9m+l/iA1a8HHhJBfLxXXhJI61Aa9IiaSkDSm5L/04+GHyA0H0cYx4GcEnhBBCCCGEME6IwiHA8HPKF7KdrdhTqKv+oE4fqKCQomZXaL/+4M4vmy3qUJ9oITaYrkZsKsHHlK6b7lye7lqxOLM3bpmSNRe9FiG0cOvWdt+mtVuX129Kl4iimTIvBB8CT0X1GHQ3zvDmqf2kpA0puVcr6sdn93L9EIYQQgghhBDCfIdvQ3CRMBR85kJ0gboqaog/xa8q0QU+a58t8tTyL7OF/Xw508d8FkU0bNv6OkSY2+76gUBj0eU5aLov4LzDFq3ttFVrdywfWlE+tjNlgxR8XCiDSKWTKlrChQ5hPuGerYi0iD0hhBBCCCGEcYPvzs+pP3pLcyG4FOqrP6RXNNFQ8Cn9wJZ2MJftq69mbBB76BMF186r06UtNl3xJi1CzVy0vPnySkQLmSp21/KuemW7KWQzZYMUfFAXTaoLNpc3TQjrivrRQwSfEEIIIYQQwrgx9HPm2m9XX/lU2qlUDPdLO5gr1FWBJ5O1LcpH0qS3bM1ZyxP1bbY8qd/0MduZskEKPgZ19CJNdtEMNHXPPLqZJAst1auyKXRDdTCEEEIIIYQQQgjTo/z3EkPm2r9WX00bI+gQYOoP6tB2CT3yDgWZ2aK+Wh+opqqVNmEjEscizQQZkT62cwFxR2SPOok+IohsZ8oGKfgUdeMUw89wwYk2Xs92zTXXtOuuu66/m39VSR7Jq92Us9K20Cx1rQl1Q9cNOFWa6xtvfcD+6u9870sIIYQQQgghhNnBRy8RBuUbz6XPqC4LNUvaqbV9i2qfLXO5bqo6iD31Zq5aR6h0CZtttlixYDNhxtu6iDRz0W3Ckbdy3bi8TusCbbe8nTV51fsGLfgUo0IPDH5dgFtuuaUvoOSzm8sFniyV+CKfFbaJPcoSjZx3EaeLtuV3Q91www3t6quvbldcccWkyTltlTIozTf01RgZrxtvvLGPt/352JcQQgghhBBCCHNDRb6g/HHbufIV1UXs4YNax0fSZqFt+3SD0gVm4ttPBfu1y/9lgzcwE3xKbNJjr08nxtxx94pXp99+z/Jy/ezsICDdcEdr19y+Yi2fHbdasZ0p80LwWRUG28W1crb34++6666rTfIp40ag1hExSvCZ7k0pnzLEnvPOO6994xvfaF/+8pfbKaeccr/0xS9+sZ122mntwgsv7MKSm3AyAWs+QNy68sore19ER7n5I/iEEEIIIYQQwsZLCS7lIxNH5kJwKdTHZxdEIbrHIsqrE3zmyk/l8/J91bn99tv3V8OvFHyWbwgxO2zZ2q13t3b5LSsWV56Lpgk+196+vM5bVyzcvPPWKyKJZsq8F3xcVANOaTP49X7+yVKdqxtEOeXrBiLIEDWmc3O6gaocEURyM7gB2aINSRuV56KLLlqZby6/AGsT/TQmbvJLLrmknXvuuV3gsu94BJ8QQgghhBBC2DjhTxNcRN2Un02Y4S8SX2bjLyorQEN9fGjtiLLh0/tcaFcAiGOWbpGf8DQb+OslMtny63fYYYfedgVweCMXIcbr2E2/uvDG1q67fUWUz2zwNi7RPVfe0tpVt7a245at7brNikiimTLvBZ/CzTCdm6nyuBFrDp4bo6Z4uZEIOaury3k3AaXPjeyi77fffu0hD3lIe9jDHtYe8YhH9LRkyZK2xx579DwllrhpK6JI8llSl1TnRm1wjG2Vt8pVGpYp+4b5V1X3ZMhTU9aIPeecc05Pl1566Zx8iUIIIYQQQgghzG+IIUSXnXbaqUfBWDuX/2gq1JoECchfvqglUqzXa99MHfWXD18QgRYsWNCDL2qt3vK5Z9p2QeTRrj7w9bVBVNK2/sIiygSfXZcniyyL8Lni1hWROSJ91gT1KK+eq25r7bbl9RCUdtlmxfSxmTI2gs9McMFK7KlQMDeTVILI6ihVj6BCSHEjuflMGdttt926yCPtvvvubeedd+75LRbtpiH+aMvWMV8G0T/f//73e7LvS+J8iU9sctO6gSvvxRdf3MWXyy67bGUZ9Soj1U0qj/wXXHBB/6xNda+qn9o0Fm7wWodI/YSxsmu6wlEIIYQQQgghhPGj/GIRPiJgdtxxx+4r1guThqLPdHxHeZTncwo84M/yQdXPrx6N7oFzfHGCjPLyV9szFX3kZ6+y2jYLSJslNJV+AFO6tt9yheiz0/Kt16hfcUtr379xxdo7d90jaGMi82og9Ny5PO9Nd7V20U2tXXxza7ctL79gq9YWLk87jvOizXOJG9INUqFg1LkSL2wrrQnqVp/ks6QNSqRt3bhuIJFEomQINd/97nfbN7/5zb4OkGR/NIqGfW5aEULf/va3ez7bZcuW9aSMutzcFc3jBj3//PPb6aef3r7+9a+3r33ta+173/ter1u+qnsyfCnUQeghFvmy6Q/ldqhqhhBCCCGEEELYuOFjE0VE2vAZ+bt8SUuaCFyYiejCDyW4VLQO/5mYI5iCuMMvHSKyx3ltizIi0lx++eUrl1Phh0+nfT43H7kCJ9jPFkEdxKah2ANWbLncLSbKHLCgtb22WxHlc8a1rV10Y2s337W8L8ubnU7XvZXrtuX5Lfx8xjUryosgOmThiuierZY3TVCaKRtthI+bkOhTwo99N4pzboaZ3JBQTiqxZ0hFwtR5+25cwosthl8ON5WbU2QNocUNS8wRyWNfeeope52Tl7DjpvRlIuY4poyb1A0uvzaU9cURHUR1rS/AZLDV2Oyyyy5tzz337MkXyJfMF3q0nyGEEEIIIYQQNj74hvxEwouZLgQS4gl/l19avi8xZTTwgI9K1OHH8l9rBgu/VZ0CKNSn7sn8UH6rfHzevffeu/u96qvgBeIP35fvPFXbgi20p12+tfx8c74wwUedo5FFEOVjbZ39d2zt0IWt7bTVimlYZ13X2mmXt3b28u2lN69Yk0cEz5C772tdFBIVdN71rX37qta+fkVr1y3Pq85Fy+s8eHmdFoa2XtCasNnCBbu+9slPeUIfDFOFdOqYY47poVjrExdCNIwtUYaaNhpV4uIQR+SrKVqTXYTJUJc6iSa2bhplfbYt8WcqCDhsI8AQV9wkbgbj5hzbnC9l0g1DWHGzmvJln0Ajry/EPvvs028kAos+ieZR3o2LM844o5dhH+Hl0EMP7Te8vGzQhvLaNx5uVIKRPsh/8MEHd0UU6pZc6wpLk0YxDsbel4sYxRb9UT+bK3Jp9LqE++Mauz/8uJW4ON37NIQQQgghhBDmCxU0wHfkq9bMllpTR+IfSfzj8uf5SvxaPrLks/OjgQf828n8dMf4tPxXaEe96uGL2VcfP13y2XF52MbXpolI/Ht6AB+d38vHrrZHcUTkjTdobWta13LX+O57VqzBc+ktrd11b2t3LN+3EPM9yxORxxu4iEI33rkioufim1q74MbWzr1+xXSu3bdp7cCdWjtoedpr+9a2Wl6neoetE8+8PdsMIDN6jjrqqHb00Uev9PmLjdJTd6HciBLHu1IJF5NdyFXhhqEWUi0tanz22Wf3dNZZZ3V10A2jTjfLXnvt1b8AEsGGUkgA8EVwM7pwJcgQV9x8FVImj/wuIrFFIsSoq0QmX5hSJ93Abnr1S9qzlVe92qsvnmNDaowIQspV2RKGZjpGIYQQQgghhBDGFz4iv5p/SqDhtwqKEHnjHN+zAk280IjvbGutWQELfF4CDJ+Tn8t/rqAGfqk6pvJDHVdOPm0LstA2/5mvW7NgRPxok78+bJsfzn8m7CinbYEPyk8l9hQEny02a23Blq3tu/0KsWbxghVv1iL0XHlra2dd29ppV7T2xUtaO/ni1k5Zvv3q5a2dfk1rl1iv5+4V6wGZGkboWbTDivJbL69XFNGaet8bpeAzyvDirepCTgV10M0rVIzCNrx53cyEFTf9vvvu20PMiCduWoJN3YB149eN7oYkIrnhCT3qZ5svi3JuOnXalyoiieBDIKJQqtdxW/U4B0KOvI5pg/2rQt5KIYQQQgghhBDCZPAZ+ZsibYguomQEPRBhwM/lNxNa+MsCJPjBxBjniDb8XW/APuCAA3o5Ik4FZ6wO+SpIgv8t8Zf5vPxy08W0zW+vts2M4W+X2HPggQf2ckSnEpqmA9Fn921bO3h5Vx+6e2sP2q21BVuviPCxCPP3rm7t1Mta+9LydOrlK6ZwnX/98jG5s7Vtt2jtoIWtHb1Xa4fvsiKyZ01ewz5KBJ8RRiNdpkNFwrgxK+TMTU3cqRvVlkro5nPDEFuIMiJx6ubWtpvRF0M0jXxuTEKNZN9NWOeop/a1TdhhhzrkJeSUUEStFH0kucmVZYcvofLT+fKsybiEEEIIIYQQQtj44GMKUBDoQESpN1mXr1z+sm350BKhphZJrsie6firQ4hG1ba61DlZ29V+2SBfRQYNgyqmi5xbbbZiHR+CzYELVog/1vY5YpcV6chdlydb+zu3dvjydNjydMjyfPLvt+OKt36ZIrYmizSPEsFnDiC8EFAIOw984AP7/LkHP/jBK5NjBJ8Se4SKVUSPxZNN3SK8uLkWLVrU9t9//x+6wWyJLjXn0OdhqjyVfClM1SL8mOKlDWKPffaKMtKGL0JN0wohhBBCCCGEEOYKvqeABcERBJbFixe3I444oj3oQQ/qfrPtkiVL2uGHH94jawgvFdVTvvCaoGy1TTwSsWNd26na5ssTfMoPR/nZM2a52VtsumKx5cU7tnbU7q09dp/WnnhAa08/qLVnLE8/tTw9eXFrP75faw/bY8XbuHbbZsVbv+ZA51lJBJ85gsDixnBjTpaGETgEH9OuRPk4R1EU6kbwIfw4Tqwh7FQUj1RrBYna8bkWopJE9ahb/prqVaKOeglOEoWTLfKLHhoKRiGEEEIIIYQQwlxRwQj8VIEG5duO+suO8VPlkX82Yk+hjhJ+1DuVvz5sW94qt6Y2KKWo16pvudmKdXhE7Jiitb205YrPkqlcWy8/J583cSm3hs1OSgSftcRUNwdxZRil4+YSakacKSFGRI7pWPK42d2EhBs3H6FIdJBoHUnkjmO1Do861FWvraNo2mqjFngu4cm2vkxrejOHEEIIIYQQQghhwyOCzyyo6BhiS0XLFMPPQwgslEMijq1oHVO7LBwlWUTKG7qIOCKBCDEEGyFottbj8Yr2ZcuW9ZXFTQmzFhAIQhUuJ2qImEQ8UqcFqSwk7TMxyTn1EYCUmw76RITS1xKspupnCCGEEEIIIYQQ1h8RfGYB8UZEjbV5JCJKRcpMFTGjTIkyFoOyb+FmQowtAYgQRIyRCEPym++oDIGFIGRlc5E+BB1Tu9ghyS+Sh+AjKogwQxDy9i+voFOWwKMuUT/q1t7q0B/lLPSsXu3YT2RQCCGEEEIIIYSw4RHBZw0psYdoY5Eniz1Z5Mkx56aCQEIYshjVoYceunKhKItHqacWkXrUox7VF3u2mngJKxavspBVLSxlwStr/1iXpwSnEn2IMhaeesADHrCyfp9tDznkkJURQ6uydYh6CUQHHXRQX+CKoET8mW75EEIIIYQQQgghrDvira8hFfFCaBF9U+/pd0yaDGWqHPGEaFKLKRNuKtkn7PgsH0zvMpVKWYIOAaYS4YXwxJY6JnLHYs3qYNtwS0Sqlc8JNmxaFc7Lp06iljeJiRBSfnVlQwghhBBCCCGEsO7Z6AWfEixsK013XRoiSAkuo1O6VoVy8lo/RznROJXsi7zx2Vb9FnI2Fcu0LOv8nHvuuX1NHmv/WNOHvSKGCE7ys6GEIXWok3BU9Wu38k0XNqtT2ZpqZn8mdYQQQgghhBBCCGHdMO8Fn1o4eLiYcC2iPJ1k/RvJ51qIeCYihryV1gTlCCfSMNpmtE62ifK5+eabV76hyyva2UtwEmVUgs8Qdai3BBvbNaVsGtoVQgghhBBCCCGEDY+xEHyINd48RQDxdquZJuWUVw82FFGDDRZUFpVjiteDH/zgdvTRR7fHPvax7ZGPfGRf5+fhD394O/LII/tUq6ypE0IIIYQQQgghBMxbdaBEGQJHTU8i2Jj+VFE7000l9FQkzIYkmuiX/onesSaPqVvW/rGVCD0777xzF3vki+ATQgghhBBCCCGEea0OlBhSYgdMfZpJqilcyltXRzL1aUOCfWxio7VzLJ4s+Sw57rx8IYQQQgghhBBCCPNa8KnoHoKPxYTrteQzTbWAMhHFfsSTEEIIIYQQQgghzGfmfYSPNW4INUSfesPVTJOyUt48FUIIIYQQQgghhHFgk8WLDrvv7e98a1t2xrJ2yimn9LVi3vSmN7X99tuvT3eS1gcWUb7++uvb7bff3nbdddcegUPcCWG+YY2om266qV155ZVtp5126t8xUWXr67sVQgghhBBCCGF+YqbTWWed1U466aT26U9/up1wwgnt2GOPbccdd1xbsmTJRK4V/JDgs+OOO7Y3vOEN613w8Qpyrx63jeAT5jMl+Fx11VX9+7XDDjv0qYMRfEIIIYQQQgghzAS6yJlnntlOPvnk9pnPfGZ6gs8ZZ57RvvCFL/QpTq9+9avbPvvs0zOsL6fU27NuvfXW3v4uu+zSp21F8AnzEYKPe/maa67pkT01dTCEEEIIIYQQQpgJfMnzzjuvfeUrX2mf/exnpy/4CAnijL7kJS9pe++993qN8IG2OcimwcRJDvMVb4MzRfHmm2/uEWsEoPX5vQohhBBCCCGEMD+hi1x00UXtm9/8Zo/y+chHPjL9CB+LF1eED0d1XVOOsIWTJZ2pt2dlMeUwH3FPE3mIPXfddVf/Xkm5n0MIIYQQQgghzISK8Dn11FPb5z//+fbRj350emv4UIesMfLGN76x7bvvvt1RXV+RCOUM21qUSAphvuJ7ROSp79T6+l6FEEIIIYQQQpifVFCMNXyswTzjRZu9QejNb37zyjV8QgghhBBCCCGEEMKGwTnnnNOje5YuXbpKwWfSsJlEH4QQQgghhBBCCCFseExXs8k8qRBCCCGEEEIIIYQxI4JPCCGEEEIIIYQQwpgRwSeEEEIIIYQQQghhzIjgE0IIIYQQQgghhDBmRPAJIYQQQgghhBBCGDMi+IQQQgghhBBCCCGMGRF8QgghhBBCCCGEEMaMCD4hhBBCCCGEEEIIY0YEnxBCCCGEEEIIIYQxI4JPCCGEEEIIIYQQwpix2cIFu772yU95Qrv66qvbRRdd1Lbeeut2zDHHtB133HEiS9gYuO+++yY+hRBCCCGEEEIIYV2wySabTHyaPtdee2278MIL23nnnddOP/30dtRRR7Wjjz667b777hM5VrDJ4kWH3ff2d761LTtjWTvllFPaggUL2vHHH9/23XffiSxh3Ln33nu74GNb2I8IFEIIIYQQQgghzB0EntG06aYzm3x19tlnt5NOOqktXbq0nXDCCe3YY49txx13XFuyZMlEjhVE8NnIIercfffdPd11110rRR7be+65p38OIYQQQgghhBDC7CmRZ/PNN29bbLFF3xJ8ZiL6RPAJq6QieO688852++23d8HHft1oPlfkTwghhBBCCCGEEOYWws+WW27ZhZ8Sf6ZDBJ8wJUQc0TtEnttuu60LPo6VwrjZZpv1fInwCSGEEEIIIYQQ5o4KriifnP+91VZb9fWUbacT6RPBJ0xK3Vymb9166609wscxN1kpi3WDDdf0CSGEEEIIIYQQwuzgf0vEHv444YcPvs0227Rtt922++arE30i+IRJqRtLVI+Vvd1I3shGTay5gyGEEEIIIYQQQlg7DEWfG2+8sQs//PEddtihB2IQfUz3mooIPmFSRO3Uuj033HBDj+hxzamJEXtCCCGEEEIIIYR1A//85ptv7v65z8QeUT62q/LPpyv4xMPfyKAiChlzM9XCUKtTD0MIIYQQQgghhDC38MP55CXw3HHHHXO6lm4En42MCh2T3FA1PzCCTwghhBBCCCGEsO7gh5vKVW/nMsVLcAZ/fS5YL4JPCQ6jn9cXZcP6tmNd4+aaSuwZjslMUwghhBBCCCGEEFYPn7z8cmLPXLLeBB9hSt4UNdcK1pqgbevasIddG4No4WaaTOiB/s8mzfVNGkIIIYQQQgghjCvlm/On55J1KvgwvoQeixJJJfisL8omttx22219zhz75nqgp0sJJjVOhCg22Rorx4cC2XBM50I8G9ZXYyJ5hft0krzKKT9bW0IIIYQQQgghhLBmrDPBh+NPACBc3HLLLf0NUbZEivUtChA4iBU33XRTXyGbaMHWdUkJLcZH+8aGPV7RVsm+4wSgEn9KnGF/HZ+N7exQBxtco+uuu25GyavelSt7IvqEEEIIIYQQQgjrnnUi+HD4pRImSsggKqxvwUfbRBNRKcQedpWo4njZvrao9o2DNmt8iCbS9ddfvzLZd06Sj83KGEd2O2aMZ2MvgUYdVac2bY3N6lLlLzvVQcCK6BNCCCGEEEIIIaxb1rrgU4IJQYMgUQICsaLEng1BDGBDRR+VcMFeNq4ttFkCizavueaadtVVV7Wrr766R8qImCkBRbIvj/NXXnnl/fIRhNirDwSk2cCuihxinxXD6xXuq0ryKevalkBlPNkUQgghhBBCCCGEdcdaF3wIBhx+YkRFp4xG9ky1ePC6YNj20FZiBVuHwtRcUkJPRdKMRvEQSpyrKB5b+447L28JPcqzuSJqKjJpNlR5Is7WW2/dtttuu7bDDju0HXfcsW+HqY5tu+22XfiBMWOPyB+2lXg0HbvkkVefpen0SX5tase22rIt8apsWJ+wTX+kuq8kNtbxDcHOtY3+VkSbbY3Fhohr4Zq4n9m7IdsaQgghhBBCCMVaFXw4ShxYIgVxgjDBuXN86DCtT+dptG37bK4pSiVQzaUDXuNSwpIoHe0RNzjCo+NTOOacPJzOms5lW8c4pj7PdkxLCNtss83aVltt1cWcocAzTHWMKEQc2nLLLftWHewzju6Buvarg+3yXn755e2yyy7ropb9qfqkTudLOBveZ8bD2JaYZtzXB3Xt2FJRWSUeSPUdkeRh97hS11e02kUXXdSj2mosNjTY6p7xOyCizj3pWk3nPg4hhBBCCCGE9claEXzKuS1RgwNbwkkJGoW8lX+6Sf5VMayz2ltdqjptlWF7RdPYEmM4pMO8a0LVrz7jQpywNTYl1owyGgFVfSuBx9ax2pdmYyOq/KabbtqjdkrE2Wabbfp2qkQcklcZdrPFPVCCT9m6Kpw3/qatXXHFFSsFH32eDGOmjZruZkyNr/zGVXnniCkl+Mx2fNYEbRoH9rivjE1dR/azz/HpjtN8RJ8kfSR8XXrppf3a6P9c3LdrAza5HvX9cs2kcbw+IYQQQgghhPFhzgWfcuiGzjZH1mcOk+NF5eOwry6Vk7U6hu1Xmqw+qc7ZVjmp6iEOEGNEhkglIqwp6tSeejn25fjbd7zaxtCW6VB1G+Nhn2bDUGjyufbr82gSDUTskewXnGQizGT3wGSw25gQb0R/GCPl1D8Z+isP8YBIVPnV4/o5ph7jzRYM7VsXsEW/CT7GgsDhGDvYxE726TcIbevaxnWBPumba2YcRMwQftwbxmdD6zN7iJei2Hbddde255579mg39+I4Xp8QQgghhBDC+LDZwgW7vvbJT3lCd65NrxClccwxx/QpOmsCp42zzYHj0JWjX4IGJ6kcJevDcJyqDGd3VanqKGd41OFyTpJPBMEwTVZfHWcfR9znagPsqlS2s1diw0xRB+e+nH5OvjZH0Y6xKfHEZ5Rdk6EMm6qcSJzJRIMaa/30WV/kt63zbDQ2BC71qasWZR6tb0jZJ0/lc0yd2hP9UxFAqxo/eQki5513Xreh2maTa+WYPtS4EHhM/Tr//PP7mGqz7isi0CWXXLJS7DHtTPvDe0J9yrku6lf36D3GJuflq1R2yFPjV/eTNBwPn7Xve6YsG3beeee+VU9N57IvVbtVr/bVrWy1WXnUq45K8smPYdvG1DnU+KtLmRrXYVl56n6oPOqrss45pozPGNpVqE95ttd9bxxcM9vtt9++/964zmxVH1vlU7/2oV6fh9ehrpn2nbetPklliy07agx8dqyOq9dx90Xlr7JsUq+t5L4bXhc2lE3q16588qzqPg8hhBBCCCEEvgO/gj/CL6m1cVflS/ij+YUXXth95tNPP70dddRR7eijj2677777RI4VzKngwyliIKdHRAznjgPFeJQDVegY50weZaRynkaTPOpWhkPMmRqtDzVQRADt205Wn1TtlZPGFvUXQ6evHD77Bp7TNxNnTll1cE6NjTarP4W69Uv/CBMc4brYypYNU1HliSpEmsnGSB36aZx8rvZs6zy7jLekn9MVfKp9+YZ52SzVtC/trWrs2GCcLr744n5d7NuK1BERYgqQfWOjL8Qcwo4b3vXWN4n9RAXTwhzXL31xrtbRkZwnCqnb90Dd+lHjpw3OvO/H97///W6XMurQhnzqlVc7zrER+inpv7xsVZ/8IkaUcS+4J5RVF/sck18+uE/Z5gvts2tsjNWrTv0UxaRd+8av+qA99bPfOWVcA1vfkeq/8vZ9f5RzrYyFMSrhzH0gsZt96lS3Nuq617VVv3zOG1vlXaN6w5x6tbVw4cJ+r7s+2meH/PpkjNmgHon9dR2cr/uhbFaHa+W4dtjqOFuMm/arXXay11ipV1tsdby+E8o5zy42a6vGXp9dM/a4J+pek881rHxlewghhBBCCCGMwufgP/BR+DNzKfhMX7FYBQzklHMAOVucIA4SR4lT5PxkOCePMlWuPo+mEmYMgramogaLkyi/cpPVN0yTiS+FY+zUrnxlI7urzFT9G1J2qYdtyo72g3PIwSe2LViwoG9L9OGAlujCEZVGnUj1s1Xyebq2zRVuSHaxtcSdcnpnQvXL+BgvY+3eqnrslwjBUdffans01XgNzxsb5YgCHHVOvDqMleuibuKEL5H7x758Q/FBvWxzXmJTXU/nJPnqS6pe+bTtXAkKdT/Ucfn1VZslPslTwowoJrYQJmpc9IXYQOBQzlZe96nz2iWiKKdf8igrqUfeEle0KbnPjUeVJWpccMEFK8vWd70EDt8N/a/7zVYedRpn+fRBn42L8XZeqvtWfepip/zO1XUzBq6TpB7j6bh2jJFy+qY/bNau+6N+h+TxWR71s8m4aVt+5fVTv7U17Ie22KZteWrslNGG48P+15jVmCpf9YUQQgghhBDCumLWgg9HppyiciDLKeTEjYoahTLOyaMsJ2t1qepbnfPkvLyT1TFMHEpb7at3VXVzDDmNHEJ95DwqP1X/Rqm+Vrs+D9vi2BJ0aq2QinogmjhOOCkBpaIWlBmKPtpgZ6XVjdPaoEQO4kUJVKN2rg52S3Vf6Je+H3zwwW3x4sVdDDOG55xzTne6teHYLrvs0hVN66zsvffebZ999umfHdttt936uPpsXF1LjjphQRuOy68O+4QVDrt72fbcc8/t97Trs//++7fDDjus59W24+4L15Q4V3WZskXA0391um/0xTWs48pKUFZkF9THPufYqiwhh2BBrGAXYcE5wgWBwT4bSjgZnldmKArJ43yVLfGDcOG89u27z42RdkssqrJlY+Wtaw378onEIRTJ53446KCD2gEHHNDvb/mNi7ySvuqn9thhfPfbb79+LdXLfv3CHnvs0etyLVx7NlC39UOdypdtPrO3+qIeW3ndY47Lq2+TfWfKNvnkce/5TDiqaYTE2UWLFnV7XUN1lzin/bqnQwghhBBCCGFdMSvBhwPDgS0HixPE+eEccTydWxXlBK0qqUMaHpsuVX64XVVaHRw/zl45j/rKoR4VbybDeeXltS17CgIOIYDTX0KPKBCJOEBo4NhW4mA6VhFAJQQRVtTPkbVdX5TwU2lNIQro30477dSFFEn/QbxwHbSl/xztGif5JZ+NUY2VJK+xdw2Mu2MEIeKQrXFUL6edAGFLEHDMva488YjoYKs8O8sO+9p13RzXlvtGXT477vrC/SMZI+VcV3WUcOO7VOKKreNscM6xEoRc7xoryOs7KVUf2CBffVdtlVefcdC2Pjiufse1Ia/6lNWWz85L7FFG23X/wb2nHuKK9vVP/XvttVdPxtm++9s546IuyXUxBkQh4+s62pdP/rr/tSevPrg+7gdtqosdZYM+DMdPH2r89LHGWP9KYK1+QBv1nRqOoTGV2Eaccj9I7lHjSRwiUKl/fX4XQwghhBBCCBsnsxZ8yoHi1HEMOUSOY+g0rSnqmKt6Zos69I3Dx0HUX06jPq/OoeM0VqrxQTmnHNkSeTi2jtlyPkvwEDHCAeYsV+JoOl7Chjo4m+wZbWtdU23P1AZ9l4gIRByOv/4Px0Ry77kWJRJUf+vzVMfsq4vwQuThpGvHvjGU1F+OvfyugWtOVBAt436Xh12uAQGCvZPhWrhHlNduXWe2lFhTwhNhii3qdl77xAlbaIstRAT3n3Py1ThJ+sHmobChDfUry54ScZSVX73uJ+erXee1Y3yJGvrqnOP6L4/8bLbVf/2DfMQU+Rx3jyrv+qnLeLHVfWtfOUlex+Ste1ldxqtsdF7doodE0dRULn3Ub2WMh/6WDXXeMf2tPkry2Dfm7Kp2i+pTbY2HMrbysYu9bNSXEiXl16ZrLy/bQgghhBBCCGFdMWvBh0PDseQ4lfAx7o6NPur3qMM4Vb/reOWZLB/HkbMrleAj+excOZOcUc61xHnloHIuOc+calsOuLzKlZM6n6jx0XfjUX23X+MB10GabOwn63eNacHBN47EgRp7bUnaUK9kjE0dIrbJQzwwTck0L9uKLCnhaUjdK+4RW/Xqi7adKzHA8RKdXOMSHdSrPVt9J06xx3dOBIk1YtSjbEUxlfii7opsMT7uE+e1V9FLPstf4ovP2lW/urVrzNSt/9qqiCdikvzKsZt9hfbUrbwx0ee6huof3s9sLZw3NpLjVaex095kawJVv+Rlq3L2HWdDiV6ugbHTlxpbY2iL+m5pe/T+qf3qF3ts7etH3TN1TzmGuodG788QQgghhBBCWNvMSYRP/bWbM7gxODacv1HHb1VOXTmLQydyNC9ntdKos1k4x6nk0JbDzNEu51akgVQOuHxT1TVfYP9U42IMZ3K/jeZX31BYsF/tGWefnSOkWS/G+iwiOVxzixifeeaZ7Ywzzuiij6k7BJZRe9wbjvuOOKe9Ej4ck9w72nHNhtfV54qmUYeyIpJcX/vED+1qg5AhVWSL8uquSB7tsZ3YoT1Ch6RsCT7KluChfmv7EEOMhfPEphJ8tK1ebWm3BI6ixlr9tjWuGI7xZPdona/j7BVpxJ5adFm/1WssTBFz37O7RJf6TrCX4FNj6JgkT9VZfdR34+bcqE1D2KPe+s7LO8w/tH2IvCGEEEIIIYSwrpiV4MOp4bBxTCWOUjl1445+cnKl6veqnMTRc6P7nMHpOIRVrvJqt5zcEgskn+f7tdDXVY3pVONVZSYrW3VKHPZhpAbKmZfkMZbEA4KHxYMtzGtBZtEuxAHliQ/e1kQ4UG6I8zVtS10V0aI9gky1U98j18y1LMGHUEFcKcGHsEGYUda5EnwqukcbFSlE0CDq2KrfeaKGPop4IdywS17lteezOrRXfVKWSKJt9mq36pW/2h1SY1x9ZWP1FY7Z1z57hlRZ1DUi2mjTWGrTtClCj+ugfe1UGWOon45rtwSfKquvroMx1EfnjW2NwbCu2hb2fd/qu1V9sEX1S6p+yavcaF0hhBBCCCGEsDaZlSLAkeE4cZQ4hByscRAaVgWnjUOo3yIbCAGcy6GTOBXl9JUDOIRjynEsB7gEiFHKeea8VqookXFDX6cah8kwpjU+5XTXmDtuv86VkCAChvBBvJAIHJJ8RIASMoyze5vAINrnAQ94QDvkkENWTnMqUWZYv6Sceh0jxKiPPXUNoR2JkIC6vxxjm6Qu7avDtuomVsB3sKJzKlLFeUKH+0MZddqCrSVQsUkZ7csjsY8YwnZl1C9Vu5Kyzkk1xs7b2ndcVJF61SMiSLvVtn1b12F4nYef1ee88srp17777tsOPfTQLr7Zr7rru6NtfXLOfp1nM5tqfLRjapjj9n2ffTeVqWsoTyVUv+r62Fe366CdGnOfnXMthwJRCCGEEEIIIawrZuWFcGg4MhwgziDnjujDGRpXB4cDx+mu6TEcS8dW119jxfGrvPYlcCY55ZzEcho5nKPIV0IBp5LIIOqhFo52rhzTcaL6NFnfHDOOnG/3nXE0JsamxBBjbnyM2fBtW8bavmlCFv/1mnfr8hBYCAAloshXCwRLpnPV682JDPIS/rRvX3lThVyXEgLYWWINtE/sYLtjJR6AvdqVXOsSbJTXhnuuysjrmLy1X99FKOt+K5FD2crnflSP4+qwLx/hw/kav+FYyCOpp+xRv3aMq34bZ/ev3wJrH6mPKGKcvTrdGF944YU9r+NT3et1vbWnHe0RYVwz07oIUt4CVmNt7Ev0qTHU1+H3TX8dV5c+yC+P/lX9dZ/Y+k4NhR/UeJrqp5y8pvW5N/TPfaRf7gmLTKuXPXV9QwghhBBCCGFdMGtVhvNTzhUHT/KZY1WO1lQ4Vw7kdJL6pNWhXvmUKcd2dUmZqWytcxxDzq8+cmI5ctXP1SEPW8qeaqu2JeRwFKVy9B3nEEv2Kw9ntKI/ONrEA+cnc57nG8bEGBnrEimMX10HYzgUHEq0cE1coxpLIo9996MyHHfii7GqcZXP+HHaCQdEHPk465J6SwQwfYrQIxGU1MNO4oopRmyR1/UhQKhbOyg72K0PxAN57df3pe4FttZ9Zquf+ibJ75iIOoKD5LO2tcEe9TlWIoZy9h2X7Otb5an2jXGNo6RO5+Vjy3C/Fgh3DPppbI2T/uubek1/k0/fjFeNYYkp2pXYblv9s9UXNjmnXW1qr+pxzVw719mYac9WWzXe9V1VXhqOZ/W/+uscu9Xv+tV9UjY4X2Ol3lozy32kP+4JNklsEP1VU//q/g0hhBBCCCGEdcVmCxfs+tonP+UJ3YESucChOuaYY7oDNF04MhKnphybcmil+sv4EHk4Z+XwcfDq82TJ+XIGpaFoMqTa9Zd7n+UrZ3KqJM+qKFs5e8aFs8dpVO90Hbkak3KMbTmKjtU52DpeY1eJmFNCguRzRfXIL7GlnGR1TmaXuqqMz/IPx8AxY6fucqSNt76WMz1dtMFu9ajTvSVpj41TYQxqHDjkBANb17/Ol90WEnbeubJRG/KXYOK4/I67fsoTCoyDOuSVyj5CgMWROfOuOVuVsVW/+iRliT2iOAg+8tb4yc8mZeR1Tht178onj333UgkJNb51DUHoqIWJ1eG48/rinDFgR10f9VdZY1D2yV9joT31OaesfqPqtmWP6VP1mnH9MWbsrbLa167+uF41puqr72vZZN85+W3Vo7yxZkPld9w+e2sMaxyrvM/OaUd+4zIci+E466tjxBd9Ua7qcs7aTBWJA0KdcvKU/ZJ9edRhqx5JO9VnW8e0pV8lirE/hBBCCCGEEEbhF5bvzJfko/A9VuVD+GOzWRNmGJx++untqKOOakcffXT3VYZssnjRYfe9/Z1vbcvOWNZOOeWU7tgdf/zx3dGbKWUoB59DLZUwwYEawnjOVHWG0+SYOibDeY4eZ0qZcm6HVPuczmG7U9WpvPMGdSigDG2Vp9rlNBqfcmZH218dbDNNpiITKgKk6rGVjIM+akfSd2UrOoWd9tkpf40Nh5eDqSzHczL7tKddN1M555xX16DOa0PEAhv1U72ulc+rukajaMe41n1g7Iyh9tg8FXUdlfGZbezUR/uuVwlJbJKgDNudr2umrHEydsrYF8Vj2o1jBBHOeYlG7LI1hj4bQ20aF9dueC8bC3mNTTn1zus3W4bXwDk2Vb+dZ4/zdXw4JsP7Eupiu6Rs3QNgg/N1bdRZ19G2+lTjV9e+2q6xRfVVH5Sve1276q86oYxzYEtdlzpe/Xes7jl2Q11S2Warbf2Wqo6yy7HqUwmmyrNLniqrjOQ4Kq9z2igBp8Z/eA+pR77qo333QY2J/imnjqq/bBreF9pRTr6yP4QQQgghhBAmo3wT/ib/rwIP+BVTcfbZZ7eTTjqpLV26tJ1wwgnt2GOPbccdd1xbsmTJRI4VzEmET8GRAkeMo2PLCeIw6YQt5CunyF/mCQBSOc6TpTpXDp66R6n2beXhcI7WM0zqLEePM1eOYdkJ7bGNWGFMytmbrP2ZUA6y7ZBqmx3s4UhyWiVOszJlY/UX9ofOrj4NzxdVr3Z9dh2MU91MjmlDu1KdV5c2lFN+OslNq67a1rirb1Xjpy2p7iOJHVXGOfuO66vPdd6x4TgMj9f9oF9ENza6tsQeyeeyT37lypZqs+qo+7HaGeadzLZKlQdll+NVfkjVpZ5hX1D1OT5qa1H1Vx75nXfc56GNw3LDdvXX58ozPCdVu6N12lZ+VJm6NjV2NX5lX+Ub2lv47PhU18Dx0Ws3HIOqt45XW5LPk5WZKn/llRyvtsuessP5EEIIIYQQQpiK8rPLb6aTlM8xFdON8JmdajEJ5SxxxkRPSAzmBJUDN3SUHJdXnlUlecqRWlXHyzGTbzr1Spy0UefMZ4PsvD7UdJzVtb8qhnWqS7v2azyKEl0qQkaqKAIihfOFcjXmtqN1zRbtaVf77KA6Tjcpow/qKCFruuiDsSnHucZ82N9y9F1vx+p+qlTn5FVPOeO2xDvRRiU4Dq9JXeMaS2n0XrWt+8E5eaDc0O5KZWPVV30YHh9SedSjXXkr37BP2pqsvGPOKTu00fEqOzxeDPMMx7DyDNst2ytNZZN8jjk3HL+6HlWX8j5LPqujUFfVo1zVUf2zrbqq7WGZoV2Vhn2sMrb263gdG9ZTeeucY0ObfK6yIYQQQgghhLC+mHPBB+UIcZo41JxrTnU5S4V8HKlK5VhNlpyTpuNEVfuVJqtPGp6ruivZ57yxv0SrobO3JiinLfUYD/Vqw7HROkvlG0bU+DwqnLCHc8k+ibPJkZ0NNQbaIjwRb0zLqrdf2U4n1QK+lMqqdyaUHaPl6tjotRg9PkyO1Tgbe2vi7Lfffn3NF/enazJ6H4xS9YymYd4qW8eHachUx4c4N1pPMTw2PD5kqjxTHR/i+LDtovanOj5ZGdS50VR5J0uT4fhUdQw/F7W/uuNTnSuGxyY7PplNIYQQQgghhLA+WSuCT0F44FwPRZ/Rv3zPNPJjrtF+JbCN4084WZVYtaao37iUmCT5bFxGhR+fR9MQ+ZVT3pQzdZXgM5p3Jiir7qqnonxE68wkEXqURfVvLsZwthgvC/Vap4rgY9zYFkIIIYQQQgghjAtr3fsmGIj0IZwQJYgn9jcEx3+UEjpEyliomL0lxsxGQBlF3yvKp94epC3trkoQGxWlSuix/ozxnYtxVZ7Qwxb1sk3yFqM1TcobT/1V9/qmxm8oQs3l9Q0hhBBCCCGEENY3a1114UxzqokRHH7RFCX6OM7RHooa6wM2sJMAQOgw1YqAUgIMO+cadRJ9tGFMShCTfK5pZJKoHclnY1f2DfNON7Kn+lppsvxsU5962TYXafSar0+0z45VjUEIIYQQQgghhLCu4JuWvzxXPuo6CbMpw4kIBIoSKQgAc9mZNaHaZ5+ImbKvInvYvrZQN5GmxqUiakTF1CvWSwSSRAM55jVt8vhMTGGreqYrXlSfh/lHo4f0nV1zmUo8m46N64IahxBCCCGEEEIIYX3BL+Wfz7UGsU4EH+hATRUiUpSosiEIAAaU+FQRLba1Zs/atq0uqrHQNlGH2FOCz2SpzslPSJlOZM8QeaUSeYYRVo6zSXJt1D1XSX3rYkxDCCGEEEIIIYT5AH+83sQ91/rIOhN8UEJDiSum+dTbkdYnxAj2SBXZs75ECe2yh5BTU+Aq6oh9BLMaszW10Q01fM//UPAJIYQQQgghhBDCumH4Vm7Cz1z65+tU8EFFjhBVJOJGCUHrg2qbiCKxh43rg7JFMkYSe4ZjVceHeWeC/BXB42Yi+ngDF+GnVMUQQgghhBBCCCGsHSqqhz/uDdd8cvuzDe4YZZPFiw677+3vfGtbdsaydsopp/S1Yo4//vj+yuq1TSlXc9WZ2bAh2bI20U/KoRvqhhtu6DeViKtKQzEphBBCCCGEEEIIc0eJPTXr5tZbb+2fiT3TXV7m7LPPbieddFJbunRpO+GEE9qxxx7bjjvuuLZkyZKJHCtYr4JPWD+4uUT03Hzzzf0GgxuqIokqwkm+EsJCCCGEEEIIIYQweyoQg19uOhcf3PIylnKZTgBGBJ+wSkpRvO2227qiSPix70YT5eO8G882hBBCCCGEEEIIs6cEHYnvbaZNvdna5+kQwSesEoqiRFEk9tQaPnXjleJoaz+EEEIIIYQQQghrBt8a5V+X4GMK13DN3ukQwSeslhJ9aupW3YDF6H4IIYQQQgghhBDWjKGPTfCptXpqW2LQ6ojgE0IIIYQQQgghhDBmTFfwWT/vHw8hhBBCCCGEEEIIa40IPiGEEEIIIYQQQghjRgSfEEIIIYQQQgghhDEjgk8IIYQQQgghhBDCmBHBJ4QQQgghhBBCCGHMiOATQgghhBBCCCGEMGZE8AkhhBBCCCGEEEIYMyL4hBBCCCGEEEIIIYwZEXxCCCGEEEIIIYQQxowIPiGEEEIIIYQQQghjRgSfEEIIIYQQQgghhDEjgk8IIYQQQgghhBDCmBHBJ4QQQgghhBBCCGHMiOATQgghhBBCCCGEMGZE8AkhhBBCCCGEEEIYMyL4hBBCCCGEEEIIIYwZEXxCCCGEEEIIIYQQxowIPiGEEEIIIYQQQghjxqSCzyabbDLxKYQQQgghhBBCCCFsKExXs9lk8aLD7nv7O9/alp2xrJ188sltwYIF7Y1vfGNbtGhRu++++3oKIYQQQgghhBBCCOuXzTbbrJ155pntC1/4Qvv0pz/dTjjhhHbssce24447ri1ZsmQi1wpWCj5nnHlGL7Dtttu2V7/61W2fffbpGSL4hBBCCCGEEEIIIax/CD7nnXdeO/XUU9vnPve59tGPfnR6gs9JJ53Uttpqq/aiF72o7b333onwCSGEEEIIIYQQQthAIPhccskl7Vvf+lafpfWRj3ykPec5z2n/7//9v+lF+Lzyla/sET4RfEIIIYQQQgghhBA2DDbffPN2/vnnt6997WvTifA5/L63v/MtfQ2fU045pe24445ZwyeEEEIIIYQQQghhA8JizZtuuulM1vC5v+Bj0ebjjz++7bvvvhNZQgghhBBCCCGEEMKGwNlnn92X5Fm6dOkqBZ9JX8seQgghhBBCCCGEEOYvEXxCCCGEEEIIIYQQxowIPiGEEEIIIYQQQghjRgSfEEIIIYQQQgghhDEjgk8IIYQQQgghhBDCmBHBJ4QQQgghhBBCCGHMiOATQgghhBBCCCGEMGZE8AkhhBBCCCGEEEIYMyL4hBBCCCGEEEIIIYwZEXxCCCGEEEIIIYQQxowIPiGEEEIIIYQQQghjRgSfEEIIIYQQQgghhDEjgk8IIYQQQgghhBDCmBHBJ4QQQgghhBBCCGHMiOATQgghhBBCCCGEMGZE8AkhhBBCCCGEEEIYMyL4hBBCCCGEEEIIIYwZEXxCCCGEEMaU++67b+JTmC2jY7khjO1MbBqe83l0fy6Zbn1z3W4IIYT7E8EnhBBCCGGeccYZZ7RTTz21feMb32jf+c53+va0005rX//613ty7qqrrmqbbLLJRIkwW4zllVde2c4888yV+xdddFH73ve+1/fXB2y45ZZb2ne/+9121113rfJ6O3fOOee0s88+u3+WLrzwwnb++eevstxMOO+889r3v//9adcn39VXX92WLVsW8SeEENYCEXxCCCGEEOYZ//Ef/9H++q//uv3t3/5te9vb3ta3//AP/9D+7u/+rifnvvKVr0zkDnPFiSee2P7xH/9xYq+1L3/5y+3DH/7wxN76gcD3jne8o914440TR6bmk5/8ZE/Fhz70ofaxj31sYm923HPPPe1973vf/eqfDp/5zGf6PXvvvfdOHAkhhDBXRPAJIYQQQphnvOAFL2h/+Zd/2Z73vOe1zTbbrD3/+c9vb33rW9sb3vCGnt71rne1a665pv3pn/7pRImZTZ9JtMUP8/a3v719/OMfb9tvv/3Ekdae+tSntuOOO25ib91DbCL2bbPNNm3TTVf/WP/c5z63/dZv/VaPCnrVq17VxaIddthh4uyac+2117ZXvOIVPfJsOD6r46/+6q+64MSGuYoyCiGE8AMi+IQQQgghzDN22mmn7iTvvvvu3dG35WjvuuuuPW233XbtJ37iJ9rixYu7IHDbbbd1h3q6Qo68X/jCF9onPvGJiSPBeD7wgQ9sd99998SR1sd54cKFE3vrnoc//OHtsY99bI+Omc613XHHHdvWW2/dttxyyy5W7b///vfrz5qy7bbbtqc97Wlt7733nlF9P/7jP96OOuqoObEhhBDCDxPBJ4QQQghhnnLnnXfeb1tw/vfbb7/uUN9www19etd111232iiKoWhgbZrRaWFrO/Jnbdc/Gx70oAe1JUuW9LVy1iVTjYnjBx10UBd8TKeaydhtscUW7eijj26LFi36oXtnpmiXiPSjP/qjbc8995xWfWWr8Xzwgx/cx3Qm9ocQQpgeEXxCCCGEEMaMEnZE+7zkJS9p//3f/93XShnCyTa159Zbb+1bURZDQchnkSAceBFCw/P2q6zPq3LWnZNH3soP9da+LdFiWP9o/qLqE9WiTNkx2RowbK7zo2k6a8YMy2N0YWT7t99++8TeqpFvaMvomDmvPXY5L+9kY37HHXf0/eFxn2tKlzyjY1YY8yqPYf3TQdnR+oflh9ewGI6h7egYqtO+VNdzumOK4X0saW/IZPf5kOGY1DUajtGQugbq8nmy+1598kx1DdQtD6q+2g8hhLlms4ULdn3tk5/yhL5CvjcNUOiPOeaYHvIZQgghhBA2XETtnHLKKT3KY6qpRZzST3/60336zuGHHz5xdMUCvtalOemkk7ogtMcee/SoIA7y8ccf39/8xLElFDm/yy679IgQOH/CCSe0//u//+sLFz/ucY9rm2++eW9r1OFXx5ve9KY+PYwd8osG+bd/+7f2nve8p33pS1/q9e+7775tr7326s7v61//+vaf//mf7X//93/bN7/5zR6pVPVykv/kT/6k9+WSSy5pr3nNa3q9Rx55ZB+DoQ0ilNiqj0uXLm2f//zn2+c+97ne98MOO6ztvPPOPd9UyK+86W3G2Fu6LrjggvaTP/mT/bxFnNn+mMc8pu+PMrTlz//8z9sHP/jBbgd7fuRHfqQ/dxdvfvOb+7Q80TevfOUre72mSBmXOv9P//RPfXHmhz70of0YLr300vatb32r/czP/EwvYy0nb20zxtZ3GtrwgQ98oK/b87CHPazvuxbOPepRj+r7q8OizNaOslaPa4Jh/SeffHKf5ja0b3gN/uu//qv379BDD5042/pbzy677LLuf5h+aMFxbw+rMZ3snhri/vyzP/uzXr/roX1TGQvH/uIv/mLlfU4ErfsY7jN2P+IRj+hrXlmU2/fKdDkM29ePj370o71N4/iQhzzkftcQvhfac9/6Xkx2DYyfiLHXve517V//9V/7PW1qWwghTBdrp/mt9HbE008/vf+GiNw0xXtIBJ8QQgghhHnKTAQfTi6RRATJv/zLv3RhhUNK+PCQePHFF/dnQc649YGIG0ScZzzjGb2c9Wu0x+nnrJqKIxFaiCjWceFMjyLyxHOlV4Jzfp/5zGd2EUMbxAsPq9rgcHt4tRCxz9rgUJu2xH7ih+dVDrlXiUv6Rhhgg9fTi5YoZ/5Tn/pUu/zyy/t5fWTrzTff3EWin/u5n+vHttpqq563GDrmBCntWbtHXsLFF7/4xbZgwYIuphAPiFjG6PGPf3wvM4q6CDLGTB2EFv3yYO66GTN4SxXhQ//ZSAzS9yuuuKKLTV6zb/wd195Xv/rVduCBB/YILK/fJ5qde+65XZRzTY2B/nvwd1+IXCEsELBcoxJ4Vif41Hi4Z/7+7/++C2Q/9mM/1sVB9WtnuOjzqOBDWLN4+BOe8IQ+feuRj3xkv+bERPeUuglo+uN17vrkerFZXa75qhaBJtYYL30+5JBDen+IhsaK7d5mx3YCXbXv+mvLfUWcIQS5Ru7/BzzgAX2MjavrTTjiGznnfnCfOQ+CzxOf+MTe34Igp6z7gXhKsNxtt91WXgPfO9eSDdp0T7oX3BvyhRDCdJmu4JMpXSGEMAM8QHp4FHYuLNx2mJyTZzrIN0zzEXbrc/V7tv2oOmZbz1Sodz5do9H214cNYTy56aab2hFHHNGFC84px5oTToQAsUFEUIkb/hhITOBc++170pOe1CM8CE0Enc9+9rPdiZ4MAgVHmyOuHeKCMpxpD6fOW0CY+MEuaE/9nH+/rQQf4g2BgONMqBE5ZM0Y9slLADrttNN6eRBKCEAECn189KMf3R12fVI/oWL0O6V+U25EZ3DyiQLEBOW9CUubRU3pGRWNRqlpX0QHtqhPGUKDB3UimPMiX4hw7NIf/TIeokmMAeFJWddF1MpwyhA75CVYuCb6p16iBNHIeGvDliAxXYyHNaAIXba1SLS+sIlQIzpnKggwolmMuetrsXECjygnv8WFuowtMUX9hBB5iEWrgqACZYyPhaMPOOCAfsyYELg4RNrVPjs4Rsa+rrWtcTH2xt0Yu+7G2P0DAo1914SNoqlcy7r2vhf6SiDkdNU1UO9k1wD6LI/kvszvewhhbRDBJ4QQpomHMY6Ov056wOVceHD1MCl5IPQXcQ/do2sEjOJB18Olh0kPih7cV1dmQ4QjYzw4Ah7W7a/pQ6uHX+MgGRv7c/UAXNdO3ddff30fd/WvCtdIfv2TX9+GDsrapmx2f7DBdqp1JUKYDvV94nD+9m//do804YD6/oow4QgPo4Tcf8N7XnmRCH/0R3/UvxvOcfiV9bmiVabCeSLE8Lvn3uaMl5BCaPq93/u9vq9ODruoCWKI9okdXoOunmc/+9ndAS8IGcPpNZO9qtxvi3rr95azPwph6R3veEf7qZ/6qS441bg961nP6hEdJQL8/M//fHfWjcWqYPMLX/jCXo++i0R697vf3cdeP/T/pS99aRd6CGminQq/OzUmhDGwXVRJ2S4P4eFFL3pRFyrK3t/5nd/p/y+9973v7WPjdeyElNXZO4qIFNFBxl1Ej/rZ8od/+Ie9L//+7/8+kfOHcT+dddZZ7W1ve1v7m7/5mz7VibBIlCn7/a6JGLLWVN1/jumj8VkV++yzT6/HNXVdfvEXf7GLiIWIJIKLdrXPDsKkcnjOc57TRSz7f/AHf7BSDDOmIovq/nHvEiv9H+8ecs2e//znr5wRYYFzEVAveMEL+ndk9BpU5I8yIpvk8XnIZPdiCCHMlgg+IYQwTTyoc0482FmHwFoDHB0PeR6oP/ShD/W/Qp999tndOa8HvsnwwO7BkWjkYdgDqIdVD63zCeKWh3frRegDMWV1QspUcH5MJ5GMzVyOB5tcEyH0IgBMfVid0+Oh3l/4ly1b1gU9TjEnYF3CZra650z34Iiu6r4KYUjdK5xW93OJHIXpNpxO64j85m/+Znvyk588bTHAOjHPfe5z+3ffuiYc69UJktogMllzhz3vf//7u8ik/eG0Hefe8IY3tF/91V/t38E3vvGNXbyp719tV/dbo57R3xBO9erslIfAVPUPHXHHRvdXxfD7ar0kfRINZcwICGWLayPvZPVN93ewxmVoX/WlUNfw/HQguhB4JqvfvVVC1GQQ7ggw1i9yHa299Ja3vKULIUMxR9/X5LftZS97Wa/nN37jN9orXvGKH4oIcj8T0Qg+1b5713UojMnqxtgUMaKc/++19b73vW/izAqMg3Ge7jWY7jUNIYTZEsEnhBCmgQdRD2hECUKE5AHdX/dqjQQPvRxyodsecjkbHuYdI+pYv4KYUWXlIZBIhCT7tkLCpfrLO4dHeUlkUUV6VHntEY4IE0QXf03UjqkChAriibzs127N+S2brP/gvDoJOB6YtUm4IjTIqx3nlWe/Op0Xqk+QIKRY24Nt6nBe/c5XG8p7GNaW+tXNZlFS6ndOnyWfOT7lANTYs139Ptf42q9xNF7GW53aZyNbjCcb2Urw0bZxUp/+1jVRr/o4Ca6Fc8rqVx3TT8ds2Vk22rLJOWOvDc6sdisCSj3Ouz7s039jUeOrn+pgF1uV1wd5lNM+O2p8nScE2Xd8dc5n2HhwP3I03afvfOc721Oe8pSV0TDuMwvPut85rz/7sz/b19QhuqzqHlKf35h/+Id/6JEvv/Zrv9YjXqwJw+lW76pQXj7fT9EOvg9sGEbluN8JQeolKJk6ZCoYh3r4XRtup4KYpayoDgsN2/p+i8IYig2j6Ifva0V7DNvhuA+d+dXZIK/fJGNmXZtf//Vf79fC/xnqqjGbbp9WxWRlXU9jPBvqt7mu07Adv5t+u6ZC/0THKCsqRr+l4bo/xZr03XU0fUqkjnWZrOlDhCy0774WATVsf7juznTb9X+96CvfGVMJ3/e+9/V7GMbBb/BkYzQX1yCEENaUCD4hhDBNPMB5qPMAT+gR2m4BTo6PBUYtNul8CQYeBDnuxJhvf/vbPXHSyzn3kFyihf0SGAgRhB0iADGHQ+8B1ltYCAnKExA4cvJVBIjzJQAQWogJ9gk28nrgZJv6nbNGBZvqvDqJChw6dTj/ta99rddNcGCfOrRPxKm2ODPluBFO9JlDp252C/nXhvLy6aPy6tYGB48gxKkwfh7QjXU9MNt6YC7blVePMdOessZBIq6oW5vaVr/xqTG1dQ1cE3kl4ov+uw7qK5HH+Fe/XCftyeeaqEsex8tONipvrIwNYclUAvYYI2WNjbFwfVwvNvrMDm0ZA9fBNXCNJPYp5zwn1DgaX31Uvz6WKMeesHFRkQPDCAKU0GAdG98pTnEt5OieFWXC6SUCOec+dN8OxRf5KnrDvVa/EdY/Uc6aKaYrWWPGvSkKZ3WYuqOs74f7vqbMFO5la6FYM4fYI3JIJJJ7u9ZLKSFmNLKkBKXCZ3m0IfmOWtjXOjfy1nd3FGKE9VlELxpDeeG3yu+JvlokGWyq81NhzIy3dYz0iw2ui/Gs8S4habRP+jBaf+WpcXB9jc9oWb8vRI56IxdqLIrR/cmo/+tMr/MbV2NnOh9BTdRW4dzwGtTv+hC/n37/2Y2ye2hH9W30vh7F/zPac6+4r/TZdSuMy2j7fj/9bhbKj45BtVt2+P1Wt+lf1vkxJe1//ud/+r0AApC1fWqto7pmdQ2Gby2bzpiHEMJckV+bEEKYAR5yPRz6iyVHxFs4LDzqgbjeTuMBl3jAAeese7jlsBNKODjl/BMQPIjK7yGaUyCVMOJziRTKVXmCQtXhMwdJPu35TBQqYUT7yvjsvHzKqotwUfb5TDjRprLqUc4xnz0g+6wOYkTts5Xt+lv9KMGEfcM+O6aMY5J9eeWrPhNX1GVchs5YCT76q4y8xs9Wndqocaq1lXzWr/qsvId/bZRY5Lqokw0l+LBL8tAuX5Vho7ac026JU2CrPOpRZ42Bfuq7MVbWOWNuDNlmn31lg3p9lpyvseFUqN/5GjdlfZZP/3yWbyonNowXrnUJhK65rXvSfS75zlhklvNrzZ3R9XWIPe4n+F57MxbBB+41cErV4x40ZdV55Qg77jlw3J3z3fF9WRXsJHaYTmNNE79Vo28m4mgTUdzXIKyIRvI9rPp9L9TFrqJ+g8p2WCeHQGOtGevX2Focl60YFVIKi1M/73nP66KA187DWFmrhsCgXW9b8j025saoxnIyCBrGv/qkDmviGHf9gj6pp2yD3xd9Hu2X9vXfbwCIRqJWHFefsfDb8773va8vzG2qHtjqnDzqlCq/c5OhHXWIoNF/Agb8jqmfyEEAARvVObwP2OX/TPUbI30k6H3sYx/rdUOfHXcPF3WNjdGqEA3mbWnQf/8Pa7Pw/zTU73vBDuIbEbGoMR7aXd+rGmP/r4iUs4W++H+/xCrPAe4Zby7TP7jeo9dAO8a77tcQQljbbLJ40eH3vf2db2nLzljW38xg9XrzioX2hhBCWIEHPw/GnHdRF/7S6+GR8+Dh0jkPho6L9PH6Vw+xHCTRQP6qbd9DpIdzTlP9VdZDpi3nyl8CLR7pr4olAijnodJfnTl5HhRrKhlnhh3q9/DpNbIeuuttOMQEjoZ9bXpY1Q6HrR5mtWXf1jl9VIf/Dzwsi4iRl6Nm31/62WtxUHAoOWkWouSoKVt9ZL8HdnWrTzkP3hwAxyRlJA+/RBvH9If9Ht7t6zfnkHPp/yfn9MtY6JN+eJDnwLHfeCkrlJ9gpW1ljHnVYdFMbYrA8Rpq/XN9ODLGQV2EFeOvL+xgv+sgqkF9+qnv6uVgGW82GS/JZ+WdZ4t6RFIYA38RNp71F2D22LdAKvRPnziVdf1dd31xvdjHnhKD3IcHH3xwt439Ybz50z/90/7ddP+5B9wv7hP3HfyumH5i4eFRYcP998pXvrKLNjXdxYK5InU44u6h17/+9f2V44Qg0Qy///u/37fECmuwuBd9f0St/H//3//X86vPVCxr9awKzrK1V9gn/xDPoqZfEV18f0QRid6w7o/22Ot7Ud8r09HU8epXv7o72PrPwdY/a+b4TfRbORwX/XAejk8l/DhnvTav9vbdtfCy76ffkFe96lXtPe95T4/UU9532BhO9vzsOlmTSB3G3nowpqt53iYG+07riz7po0gV4oE1Z/xeqN9vojEmQHk9uGOut3xEF78/BAlb33+/FwSuskfdb3rTm/rvid8yttRxvyP+/7AGTh2fDGPnlfgEDfeIRY4rasxvpfq1b9z8pr785S/v9ycRxOvP/W65Vy10bXFlfXCtXaOy2XX0/5qxhbosju3tW5Mhv/8bjKH/V373d3+3/5YWxtV4scF3RB+e+cxn9vpcize/+c39/3S2EB+NsUgm971j6nTvu99dc+24Rha/dp9XhFZhLD/wgQ+0z33uc/033hgNr4Fr6v8Y+IORMXdPhxDCTOFziLj1RkO/sccee2xfXJ8PMiSCTwghTAMPnR7kiAmmOEkiKjzUeqCtv6h7kOZ0ezj3UHfyySf3B0IPfh40OToeajn2nCyOi8gPD4KOeQAknHjI5Fg5rn7OhHIEETaoU1776vDwrV2LRivj4d1fHAlOHqTrL57+Yi2/8vpUApT6/f5LBBoPumz2AGzqhWPqlE+dbBfGz+Hg8Og7J8q+fhorzpq++aurcoQs/fIAXnk4AM5pxzmOkTqMn/45bkz1iRPAMXDc/1EcE0KH4wQf9RortnqAVof6jaOxY5+xILAQawhWrof+cBCMu7IcohJMXGPH2MoO46gscagcHXm1zQbiUpVxT7DPOeOlL64xUYid7CFKcQycJxSy0z3jOuijNuV3zcpJc854uHbsN5ZsML4cSfdB2R/GF99l95l7yb3hHnWv+e6CU0r48D0exXffb5jyvrvq8Mpygolpmr6Dpqly3jnT9utV6srIo37Jfed30PeM0+97RwifDO2yT5uECmuhmBI7RB1+B+RRv98x3xXfW/e9Otihz+59vweS6UXwO+K753ujHEfd97DGRVmiA6GY0+/7vCoIMgQB7Vl8mH3GxQO1Pvt9Mz6+o0SAyZz3+p1xjfSpxsgxvxs1Ltrwu0nsct5vL9vZLA9xzf8rkt9t/ffbVdfYGOgb/KYQggr2qc+4GiN2wLWvY6Yd2V8Vrr32/W6b3lSw0x8D9KN+89THdv8PuN+Mk3b99vr/BMbQb1ndw6aO2XcPEGj0x3X0f9xk1BhqU1vuU32oMYU/nnCMHNe+sXUNlHFfsb3+b3Lf+3/V/wM1xr5HrqtptMpL/oji/4zJ8H+S+8vvOXsK5YyR8cZ0xzyEECYjgk8IIcwhHh49jI4KPh62PUh7oPXw5sGUw+1B0QOrH2EPkRx9D3nycvI9bHog9gDo4blEGk6/9SVQkTQcFvk9cPpx58h4cNaWCBrtehi2X2tp1L6Hae0TCtRlegTnQxl4mPW7T4xgF0eDTWzjRNj3F20ODhvYUg+yBB8P6R6CPTB7APaArX1OkbHiQGqDU+ihWVvG0rkSrtTLAWCjcfXQ7pjxGAo+InHY4v8n9Q0FH+OgHAehxkx/jJNxlFd98nCU2cqR5BiKUCrBRz1EG+OjL66r6ywfW9VhbNmrfn2BMeak1PQ3zoIx03fXzfXnWBKJ1MdO9RCQXDN26ROByv/F8mnDOKtLPexhg/o4MO4bzrcxMK76wOHkfKsvBAwd39kyF3URSAgTvreid/xeFnNlq++FBZtFa/hejMIG0RmiK3xnpmJN7BktM5fjPxWramNDbX+mds0k/zDvXLU/XSard221FULYuJmu4JMnwhBCmAEe3IgBFZnCMZc47pzx+qs05COccNoJJ0SMcvo56M4RJDj/nHif1e8vvBIRwUOi45Xsy+Mc1MEWiTAiOVbJfokXyhEChrYTT4gf7COKyKeMz+xSh78+arvqsbU/PK5eNrGboGQclFePcSkBQn0lxhBzqk2ChnIEMTg2GfogqV9byhF4aqzKduOpfftDG8v++lx1lRinToJVXUN5lGez6yh/XR/57aOOE4Yc1082sIUN1X/1GQ+2uQ51jbQxtK/GuJJ9bRB3CEv6W+OrHnmUDWGUubwv1rQu967vhu+q6VAWu7WOD7GnvkOYK1t9fwmqhB1t+s5U8h0ixjrvO7Qq1sSe0TJzOf5Tsao2NtT2Z2rXTPIP885V+9NlsnrXVlshhDAdNlu4YNfXPvkpT+h/cawQUXNrPdyGEEL4AUQBTovE4Ra1IfxbJA0xAKIxPNwRgEoEELHzuMc9rm8rlN35cuzVQ3ApUcBWOc4J5CGuOM5RqageogmbnCPgsEH0DWfHviSKhq1EBWUq+kcYudB5UTdsIv74/eccgYhAsFBONAlhRX0EBv9fqItgg4pAIV5wsEyB8H+Iv5zLw6lSF/sc13c2cPYIX8QK5Soihh2VV3va0idh+2xRlzz6pZxoIuNlHLRlnNgvwboi2lCfayPqSP36YzzU6RqwSxvC+bWpDe2qVzSQMSqHscQW+bTnOmjH9AJjZoqJcSXwqafqU0Zen7Uvrykz6jAWjrtm8rHXPcRedhobkQsVbWX83EvuAzYqw0Z9iYMRNiTcv9Z3+ed//uf+3Xvxi1/c732sjXvVd8E6OBYZ9jp0b8QSSSdZk0cknvV2RNWFEEII85FaSsBzpOfPo446qk899iw4JIJPCCFME446gYHTz4HhxBMCOO6cFmIJsYDz7TdUfoIBMcLUIOf81nLuiSOOiwZR1n5FanDsJfXYEhJMEyKkiILxO82pJ3xoU33ak/zoTyb4qF85bbGLaMQeYof8+gJiBpFBfk6Trf8bHCdKcdb8B6M/hAj/0fjMbueqr8aIOEGM0Yfqs3zyqNO6GGzQJ+eIKNXvEjwcU4bNxly9JfwYF9dDeQz7WJ/1RRucS4KK8TKFy/FqTz+IeIQUedWpfeXZihrvul7KwzVjr322KW9sXWf9V74intgkv/H2Wf9sXTN1sk8b8pvCVuPLLuWNIfTBeeNQU7qMjboIbEPxMIQNAfcjQVWYeQnBaxu/G34DrbelTVNQK3koJjqHEEII85XpCj55IgwhhGnAIZc494QC4gZRwDFiiX2OtnVvOO0cHM59LaZJ4BB9UwKHcgQFdVV9ojYqWkP5ochQC4VqS53+Mu2cpDxBQxn1EA5KPHLeMVvHTeFyjlDgPwnJfxja0G7VKY86S8hhi/LVT3lL9NEux8o5W3kJIM4RT5w3VuwswYd4Ze4xQcq+sqJhlPW57DdO0G92yeNYCUrsVm8JXNqRyn4iCLulGie2g40+64962Es4qeuhnhLS1Kf9ukZsILQQ02BfOY4sW9lXYpd9dSkvT42vtp2rNpyTKiqICKUObdjXP/+Ju/6OuW7aKTFJWWNWYlQIGwruSwv8Pv7xj/+haVxrE+tyifTxAFxJtKWH4hBCCGFjIIs2hxDCNOFYc8IJDSIsCBl+KznwojY43yJxOPF+S20dJ9SI+KhIG2JNTcdy3nHOP6fefk0ZIwIQTESyaFN9BAVJm5wmYgk7SjQgKhEvSuTQdrVL7NAmocZx7ajDGj7qlEdZyEukcEw0jXaIMWxUllDDNvURR/RH+6JPKvLE56qnxA71Oa4Odtj3l39joh4CRwlEJYLotz4QY9RtCpkoGrYrow6JbbaofXmIS+wo+0QWqZd4A9dNX/SRY+ocEcjWsboWRBrlXSPHtUGAcVw76tCWvqmTCKQc+13fGgdjXPbYumdQolRFG7lnCEbacU55Y6O8cSI4Vb11D5QgZT+EEEIIIYwneUtXCCGsBTj2lcCxrigUwoAEx6TKW8ehTDnkVU/VgeGxKitVncM2h3ml0faH+4Vjyg3LVp2j9aHyD22uY6i8o/mL0fOQR6rjU7UvFc5JRKbRfPW5GH4etlPlfR72pxKG54phfZC36qxzjlW/hnXVttKwLOTH8HzVUfWUPXW+UtVRZaVR20MIIYQQwniRt3SFEMJaoBxqURtSOdxwXISI5Fzlsy+So5J954b11P7oMVtRHKI8lK1pQJPlZcuq9itpXz1lz7DO0fJVx6jNo+Wrz6PnJjtfeSbrU52v9ofYd3xYf9U9Wn/ZKtU5n22HbUrOj9ZZ5yoN66t6bIc21liN1iWN2lBlq8zwmO2oTfarjuG5yeoPIYQQQggBeTIMIYQQQgghhBBCGDMi+IQQQgghhBBCCCGMGRF8QgghhBBCCCGEEMaMCD4hhBBCCCGEEEIIY0YEnxBCCCGEEEIIIYQxI4JPCCGEEEIIIYQQwpgRwSeEEEIIIYQQQghhzIjgE0IIIYQQQgghhDBmRPAJIYQQQgghhBBCGDMi+IQQQgghhBBCCCGMGRF8QgghhBBCCCGEEMaMCD4hhBBCCGPCfffdN/EphBBCCBs7EXxCCCGEENYx0xFmVpdneP7UU09t55xzTttkk00mjoQQQghhYyeCTwghhBDCOoYwc9ttt7VLL720XX755X176623dhHnyiuvbHfeeedqxRvn77333l7+/e9/fzvttNMmzoQQQgghRPAJIYQQQlgvfPnLX24ve9nL2mtf+9r20pe+tH3hC19oN954Y3v961/fLrjggolcq+aiiy7q5a+++uq2ww47TBwNIYQQQojgE0IIIYSwzvngBz/YLrvssvbyl7+8/c7v/E575Stf2SN+3vjGN7Zbbrll2lOz9txzz15+jz32aHfcccfE0RBCCCGECD4hhBBCCOucb3/7212gOeKII9qDHvSgdvjhh7clS5a0XXbZpd199919qtYok63ps9VWW/XyonuUG2WqdYBWtz5QCCGEEOY/EXxCCCGEENYxhJpNN73/Y9jBBx/cfuu3fqstXry4bb311l3Aufjii/saPXfddVeP+rG13o90880393LEm3vuuadtscUWfd855YaRQtYFcuzaa6/t+46bPubYFVdcMalYFIKpgnXPhBBCmH9E8AkhhBBCWMdMFWGz0047tVe/+tVt//33b0uXLu1r+1jT55JLLunnTQOz/5KXvKSddNJJ/VhBJOKgW9PH+VNOOaUfFy307ne/u73whS9s//zP/9yP4cQTT2wvfvGL25ve9KZ2zTXXTBwN4Qe4Xz784Q9P7IUQQphvRPAJIYQQQljHWHdnwYIFfe0eAs1VV13Vj4u82XzzzfvnRz/60e3YY49tt99+e4/sgTV7fv/3f78tXLhwZYQPttlmm/axj32sfeQjH2l/+Id/2F73utf1yIwPfOADPZLoN3/zN9vDHvawdsMNN0yUaO2YY45pP//zP98jgUQIhTDKz/7sz7anPe1pE3shhBDmGxF8QgghhBDWMRZZtmaPSB5TuE4++eQu2Ayjdnbcccf2kIc8ZOVULWy55ZbtAQ94QBd8hlFConjkP/TQQ/v5Qw45pE/T+ta3vtXP77333r2tIaKJrP9TAlMIo7g3Fy1alDWfQghhnhLBJ4QQQghhPVBr9jz3uc/ta+x88pOfbF/60pf69K2KuPHmrslwfvgmLwtAP+5xj+tRO4Xz22677cRea3feeef9ymCq+kMYMnrfhBBCmB9E8AkhhBBCWM8873nPa+95z3vaL/zCL/RXs5977rkTZ6ZPTfsKIYQQQkAEnxBCCCGEdcx73/ve9ulPf3pib/kD2cQbu0zfEq0z2WvZh8hvetdssfYPKhIoU3dCCCGE8SGCTwghhBDCOubCCy9sn/jEJ1a+SavYbLPNeqROCS+EH9Ouah0fYtB//ud/9leqf/vb325f+9rX+nQb5UbX4rE/fPW7KV3DKCBRRJ/61Kd6W9YP+v73v5+pOyGEEMIYEcEnhBBCCGEdI6LGuj0EnwsuuKCv23P55Zf3165b26cibrxq3b681113Xfve977X1/nxZq2LL764ffGLX+xCDSHIm74IQfA2Lq9av/XWW3s+WLh511137fvyEovUZz2g0047bWW+EIorrrhi5RvkQgghzD8i+IQQQgghrGNE7Tz96U/va/e89a1vba9+9avbS17ykvbf//3f7RWveMXKN2rttdde7VWvelWf/iXviSee2N70pjf148r/4i/+YvuTP/mTdvXVV7fPfe5zfR0gvOtd7+rCEKHImkCXXnppe8pTntKT18B7dfu+++7bXvSiF/UooJe97GX9NfAhDHn/+9/fPvrRj07shRBCmG9ssnjR4fe9/Z1vacvOWNb/yrRgwYJ2/PHH94eAEEIIIYQw91x00UVt++23769XP+uss/rULVOrRPaU2GO/pljJL2rHq9e9Jls0zg477NDT2Wef3ad0idSxJo/zpozdfvvt/bi61bnVVlv1aV3nnXdePyafCCIRQgcccMD9pn+FAPed+2KfffaZOBJCCGFDwP/9J510Ulu6dGk74YQT2rHHHtuOO+64tmTJkokcK8j/7CGEEEII65j99tuviz049NBD2+GHH96OOOKIlWIPhuvpyO8hjkgDf5jzRzrO+GGHHdanfdnWefXUcfUTewhIFnrW1pFHHtkFJ+v8HHjggb2eWjcohMJ9R+zJvRFCCPOTCD4hhBBCCBsBq1uQOQs2h6nIvRFCCPOTCD4hhBBCCCGEEEIIY0YEnxBCCCGEEEIIIYQxI4JPCCGEEEIIIYQQwpgRwSeEEEIIIYQQQghhzIjgE0IIIYQQQgghhDBmRPAJIYQQQgghhBBCGDMi+IQQQgghhBBCCCGMGRF8QgghhBBCCCGEEMaMCD4hhBBCCCGEEEIIY0YEnxBCCCGEEEIIIYQxI4JPCCGEEEIIIYQQwpgRwSeEEEIIIYQQQghhzIjgE0IIIYQQQgghhDBmRPAJIYQQQgghhBBCGDMi+IQQQgghhBBCCCGMGRF8QgghhBBCCCGEEMaMTTeZ+BBCCCGEEMaDe+65p917770Te2sf7d13330Te2uOOtQ1XzHm89n+EEII40UifEIIIYQQNgBWJ5jM5Pxf/dVftU9/+tMTe2uHYXt/+qd/2k499dSJvTXnu9/9bnvLW97Sbrvttokj8wtj/td//dcTeyGEEML6ZdPZ/y0mhBBCCCHMhP/93/9t//zP/9w+8pGP9O0VV1zRNtlkk3bddde197///e1DH/pQT+9973v7+auvvrqfXxXOX3PNNT3/aaed1m655ZaJM2sH7V166aXtPe95Txdqbr311okza8YXv/jF3udLLrlknUYnzRWu6cc//vF25ZVXThwJIYQQ1i+J8AkhhBBCWMdcddVV7ZRTTmn//d//3c4777x255139uOmAxFRCAef//zn20UXXdQuuOCCdscdd/Tzq+P222/v+YkxW2655cTRtQdR6cILL2ybb775rNu7/PLLu2C17bbbThyZX7hWN99887y1P4QQwvgRwSeEEEIIYR3znOc8pz3jGc9oe+21V3vd617X9ttvv3581113bS996UvboYce2h7/+Me3V7/61e01r3lN22efffr51SGf/HvvvXcXf9Y2hxxySG9vp512mrYoNRU/+7M/25797GfPup71xW/+5m+2Jz7xifN2OloIIYTxI4JPCCGEEMJ6ZLgWzrXXXtsFnyc96UldAJkJo2v8DKeATbX+Tx2f6nwx2fnplB2emyrfquqeKdMpN1s76th08k+WZ8hsz68rNhQ7QgghzIzNFi7Y9bVPfsoT+txwoahbb711O+aYY9qOO+44kSWEEEIIIcw1Z5xxRrv44ovbE57whL6/bNmy9qlPfaotWbKkHX300W2rrbbqjnYJN8PPn/jEJ9pnP/vZ9q1vfat9+9vf7hFBNaVKPosHi/Y54ogj+jHl5P3Yxz7W19v5yle+0hYsWNB22WWXleet+3PWWWe1Aw44oP3Hf/xHO/HEE/sUpQMPPLCf/+pXv9rLn3322d3GTTdd8XfDu+66qy1durQ96lGP6nX+0z/9U/va177W9txzz75fYoE6LrvssvbBD36w2/zlL3+5T2VbtGhRPw/T0c4888we/eT8v//7v7fvf//77QEPeEA/PxwD/bdujrrYvv/++99vOpUxYP8ee+zR10X6whe+0LbYYoseVTUZ6v3Od77T+37uuef2fOojwn34wx9u3/jGN/oY77777ivzf+9732sf/ehH2+mnn94e/OAHt/PPP7+vQfQTP/ETK/PceOON7V/+5V/a17/+9b6wtfoOOuigleet22QKnz5qX33GYPHixf253DS3f/3Xf23f/OY3+3W76aab+jkMx2Nt8MlPfrKPv3sghBDChoP/S0ypNi3c/0FHHXVUf3ao/6OKRPiEEEIIIawHNttssz79hxBD6CBc3H333e3pT39622abbX7ImfeZQEIo8kc66wBZINiCz8SAG264YSLn/VEPYYmY4w98yihLYFIWnHpiEyGJ6OAh0po6HiSVk4gQBBttE1iIKYW+EIIctwaRpD/aYbekLaKHc+xRl3r1vV5lTkTSR/mcYwNbjJGxUo8xMgbOq4vAItUYWPDZeX0hCBFq2Ky9EtlKhBrFwtPy/Od//mcXWqA99RM/CDyFtj1kq1edBDHtWM+oUIfjZaMyxCS2s5O9n/nMZ9p//dd/tZNPPvl+fQKxiHg2LH/OOef0Otg1vD/WBq5fjUMIIYT5RyJ8QgghhBDWA4QMUSzEDOLEAx/4wHbsscdOnF0h8IyizJvf/Oae75nPfGZ73OMe1x796Ef317ATRCoSZhjhQ9x4wxve0CNgXvCCF/T8P/7jP94XjbYwtDre+c53diHBuj8igP7wD/+wC08iXN70pje1z33ucz0S6Vd/9Vd7JI/XsBOlRKoQHogV6vP8+KIXvaivP0RAInY85jGP6TZ541hNWfuxH/uxnofA8jd/8zfdHhFNxBP1KKd/v/zLv9z7xAbrEu277769Dq9u/+mf/un2S7/0S70u5UUOEUREOzlPLCEyEY1e9apXtZ/8yZ/s4yfaxrNuRSgNUf+DHvSg9qUvfamPkwio7bbbrv3oj/5oF8KssSS6CW984xt7FNDv//7v9/PejuZNY8b5sY99bM8jIsr1tRZT9XmHHXbo42fc5T/hhBP6OIveUe43fuM3+tZ4iEwSNfTKV75yZXl2v+1tb+t51vYC0f5iXPdUCCGEDYdE+IQQQgghbMBYnNi0p9e+9rVdnJnOYr8iaTj8f/mXf9le8pKX9ERAIQqYrjQVhAERKpVfElkCwtKLX/zi9shHPrIvHk2c2Hnnnfs507X8MfBlL3tZf5BERR4NBSl9Ib782q/92sSRFfUORRULMhOMhpgiNaxHdA/R6I//+I+7AIbR9hYuXNgFHA+3Q4wNOwg0+qAvj3jEI3rfhm1MJvQMme4r4Yd14o/+6I9+aNFmohlBaEj1mbj2tKc9rS/2bP+FL3xhF4GG/NzP/Vx7/vOfP7G3AuVX14cQQggB+d8ihBBCCGE9QFgw/Yfow+knbFizpphs2pFjnH1CBnFBxIf1YpR/6EMfOpHrh9HWwQcf3BeDll+0CAGGIAHROiJPRJWIYimUI6RYZ6dEBsd8HgoejvmrYq0jVAzzEJEISO9+97vbP/zDP/SIGFOuCEqVT/+0Zx2hOjbanvPGTNTRu971rvaP//iPPXqoItUhMsdnfdp+++37sWJ1Yon2JqOEp2J0DIhq+ljT02ANI8f//u//vv3d3/1d7/O//du/3U+cqzWFCFTqrOtuS9zS3/e85z29DuW9yn9UKAshhBAmI4JPCCGEEMJ6gMNOHJAOP/zwPhXJOjjWnJlqfZYSI0xPMi3pKU95Sk+EHFOJpkLkjKlKysn/1Kc+tW8tNFywYyqxYzqveNfGqrB2kKlate6Q6VvXX3/9D/WT0LGq9oyNcTIFzZIENW1LdM9QzNGXofgyW9g5HbFomEfIvelhbNRvfbZIM6rfNW71Ovo6bmv9HFO9hmOmvHOVL4QQQpiKCD4hhBBCCBsAplRZm0c0h4WDJ6Oc/FFBhGhACJkK5UYFGflXJ9LMpahg7RyLHptu9YpXvKJPEzNlaXU2jEIkeutb39oe9rCHtde85jXt5S9/eU8imKYzLQ4z7RcbiTmrs7XyiWSCt29ZT8kaPJI+P/e5z+15pNXhjV3WeTLFrcpb10j90ykfQghh4yaCTwghhBDCesC0HsKDKTuF6T0W9LXgsTV3RhGxQtQYXa/nz/7sz9r//M//9M/qlCqPiJnJhBCvH3/HO94xsfeD9YGG1BQtU76KmjY1Wv9oWbZW1AomEynqjVZVpzzErNqHaWaOlaClPfUOxw2jY8me4RuzMDrm6hqFjcMxFmVDUBJhY90j6yeBrcPyb3/72/ur4kUbyW/RaO2PCnFVr36hxrj6PKxT2dEopepTXZPJ+jDXrIs2QgghzD15S1cIIYQQwjrG2jVLly7tz18EAmvkWGzYa7qt0eLtTabveBW313Jb38V5IgFRyLQvkR9eXy6ZziVCiDhgnRcRQgQKjrqpYt5wpR1v01JWnYSHH/mRH2l77LFHF3+8HYs9piF5u5e3UllvRj1eO25haQKENXO8Flx9xIdDDjmk2+T16uqo+rVpraBaE8gaP+zzZjA2e22717jrp/qNweLFi/sz6EknndSnfznv9fEWM/Z2LCKHNtmij8ZJe17J7i0lpjt5U5f67ddUL1PmiDUnnnhif9W4NrU3ur4PCDD64+1a+uMtKKa+mUamT6bPWUNIMl5s1b5xIBR5Xf1P/dRP9TeY6bNxtt6QvuizsdFfZb2GvV7b7pi1h3bbbbcJS1ofO+KUMRuW10f55VVmbeFe1H/RUyGEEDYc8pauEEKYQzhNHB0P8qYTcCo4ZhW+P/oX2VtuuaXn85fhm266qR8bx7+Q6hMHzl/f9ZcDY62JVSXOlv+kjOXoX8hD2FjwXbHArwc034eKhPGbwpEnMBAkCBZ+R/yGoF4RLnrFOd8n563NQ4zw26M+6/UQAnznoB2vHCcUyG975JFH9uN+w+QjohBG2OZ77TeO2EBI8vp0iX2+6xaIJpZoHw9/+MO7OKFe5dnmLVuHHXZY/45LBBH9IiCxQR4LGisrGkZ7xB6vf/f7wCZ5/b7on/FSD9HLK9ONBeFGXexgO2GsxoVopc9lo3w77bRTt8Fv+DD6qFA/mwhM+v7973+/RwRZINu4E3tq3SP9s7i066Vur4a3LpKy+sBOY+oB3Jiwg23qM6bGktDjWtrXT/9fFGw58MAD+wLdxqLGlSAlv2strU1cl6FNIYQQ5hebLF50+H1vf+db2rIzlvW/YnibwPHHH9//gwwhhPADsceDtb9qe2gnVHAKODCcHA/gnAMP8h78OQAe0DlGHBD5vC2mphOMC8aB08LJ81pojianhbM4VT+Nlf9rRBWISvAWmprSEMLGjN+a2fw+rEn52bY512xo9oQQQggbIqJORZiKFj7hhBP6GoDHHXdcj4YdkildIYSwGjggRA1/ETZNwPQBYfiEH7+V/spMyDHNgKPiL7Df/e53e4i/vIQg0wMIROMk+BgXgo+/+vtPxx8NTDUwDUJoqTE688wzVybTLyThp4Qh5f3FnhAWwSeE2S+QvCblN7Tfo3H5fQwhhBDWJp6lpzWlK/+thhDC6qlpS8Lv/ahac8H6GQQdIf9Ej3JUfDbNwCuDrYFR59UxbugTMUw0E5Hr1FNP7cKPZG0NY+SVwl5L7Jj1Q3wmhokIEjU1utBrCCGEEEIIYfYkwieEEFZDRfiYnkXgIfj4vbQvesf0JAtn2hIvTG+SR9QLscc6HNZ6EM0iwgfEI+tVUOcldVmzwnHtlQhCULHOhDUU5HFeVA2hpNYR8tkxgpOtRUPldb7WyXGuppxBG1W3NRrklZTTluPW9aiopSo3iqlu8hK4LNiqbAlbtuyttwNZbNX/MTWdy1Q304eNCUHMVLjhOChvHKSKJnJOG/qsXXmMgXI1FtU+m2sc9cU1rHaqr8qUzfJWPyuvsdFm9bPGSdIv+dXNNvX4v9TWOTaPjp9j+qZOdVSfq4x2XKfh9Xe81tGoen1WTh3Oad9x7SgfQgghhBDGl+lG+Gxy4KLD73tb1vAJIYQp4dBz0K3L86EPfai/dtePK1HAGjQW57RQp0VSLQhqSpPXI4tk8QP81Kc+tT33uc/tb2whenDaRQqZ5kQ4IlJw1J3zI+1tKBYCNdWJOGDqmPb8qFvvRhvEB/Y4rxzxRP0EAv8BOEeEMVXKOXWyVV5iAoGAUECcUretfX2Vx9tnLBaqTn8AmGwqGoHBGLBBHaKZTGcjRrBZ3ySiiiltD3jAA3pd7LfuEZHMNDd9kZ9YwjYLwTpfdsuvbQJH2apNdVmk1riIMFKP/nojkb4aS3mUNcbyGBdv/FGXvkLfLCxrgddaj8kYsl1+ZY2H40QtIo1rqH6Lt7LPeMpvGhtcJ7ZbRNaUP8KPvrFRZBObiYFsqmuvHv/3ljjoeN13+s1m4+XesJCtcTDWcMy1skCshXoj+oQQQgghjC9ZwyeEEOaIEjYIIqYtcdSJGJx+wgNhRsQKh91vJ/HCjzBH3W9rvZnGOYKM31qv1jWt6Xvf+16vjzgjP6eeeEBcIHyUOCQvUZ5AoG35iQumjTnPNmICwYUoQUwibPhMsCA4EB4kwkMJCdbcYYv8hAj1qo/gwVb/JxAjvG1GOSJE4bPkOHuJHAQL4oPPBJWaymYMvJ6ZKEZcIUwop+9la7UvGUNl2csG7YhmMf6irOQnergutVaQsTC2jhFxjJ9ro6y81g+qdZW0pZ/GgPiijD7qh7KumzbkdY2MrzEh4GlLXWyEa2bcXXNinzF3Tv9dc3USYETvqFed7NAXZarPbHSt3Ef6bHwIOsQe14mgxma2Wjy8+uyz66mfxssfbiYT6EIIIYQQwngw3QifCD4hhLAahoJPOd2EmJpuQ0wReSERPAgyRIgSfEScEDr8vhItPve5z7UTTzyxCwPKc9KJAiJHCDoiN4g+6tIGMYFI8IUvfKH/ThMTCAPs8ln+EnkIGRWtQzAhBvgPgf3aILSAwEBE+OAHP9jLEiOIBGxkM/GBkEHQEm1CwJlMRLBPmCCW+H9DhIzkmHFQFztEuzz2sY/tW+fZQ6zQJ8JKjYM2lCME6QehhHBDdNJn4kuJH/pqzIgdkrEwPo6xi92iiIwTgeVTn/pUX1fINVCv8TDObFRG/Y7pKxuMp0W6CWLqrb7I55qwz73gP9qK1nHO1nF1aKfezuaasJ8dhCF2uGe0yX51Gnf7jhtT46R+158dJSSqmy3qKDtcK7YTH41XonxCCCGEEMaT6Qo+WSkzhBBmAPGAI05MIJ6YUiSSw48tZ57DXmLQEOUkxznmtuoQDbN48eIugjimvHr8cHPmRe1w+gkJ9kV8EGc49kceeWQXhYgJHP7TTjutiwYEKNOhTCciHBBu2Ef8IRJoRx2SzyJC5JdElziuHoJMRbIQRtg/Sgk+bCAyEG0q0qnEDOcISYQPbTlnnyBRgoh+EIOMifHUPsFF8tmYOm7sCCcEDyIJm1wHEUTs1xZxRl+rnP6w39Z5+Yy7/xDZYWyJXoQnZdVrzLVlvLXnmHG1HhM7TfGShwBjbOVxTUQvqde4qsu1JK4Zd/ldTxCx2CE/Uco4Ep2IWPrsempTPXX9tcEefTJtix2m3fns3lC2xCD9DSGEEEIIGzeJ8AkhhNVAVOB0c7hFWVRkRq1zQwDinHOyRVdwykV8EG/8tnLMTekiZtT0KE6+svKrS3m/wepWjzVvKPXycuAJEuq0TsujH/3o9vjHP7499KEP7UIBEYFtypk29bjHPa498pGP7KIGEcFxwgohRp1+3+0TYwgwRAfig33iELFBfcQRYoK1bYgqbJlO1AiRQrts9pcH9hPGag2fqkf92if2WHPHOeISocZfLYy7MdZn41TCGvuITOx6+tOf3sfDWBKbjIUxJKjov3qNr3FyvsQh7bqm7CSSKEewIb4Rdexrh1ijXWP9kz/5k+1hD3tYr8MxIo6tNtgggslYso1YpH5jqk7XU5sliulzCX36Wn02dvrMBsKRcRLBo9/uEeWe+MQn9utsjrZxMY6ul3F1HSV9sa/fIYQQQghhvJhBhE8eBkMIYSaI9CBOEDEe8pCHdLGB408gsC4LoaPEAIw63co7RhgiCBEoCAyOEQs4/fYrAofw4TgHnkBAyCBaEEI4937YRckQ7AkLBCbnK4qFyMAWIoQ6oa2yi1hgGpL/OIhD2iI0aNe+Mj7PBerRrvol/RO9QughkBFJahxgnw3D9gkc+mv8iT6mzBFPaizUq1yNIao+x4g4Nf1K+0QZ5+Ud9pcdrlVFINWYa8s+MYx4Q1wh0DjvXmAXcY0donG0qR1tqA+uBbGJ0OPzsM/2q0z12/m6/iK3JNe5+k3gAvv1XdkQQgghhLBxkyldIYQwA0oIIBJw9GsRYg434caaL6YGiWopsaHghBOCCEPWlPn0pz/d1/KxngvnnxhAQLAtZ78cfmKANokPxISKFhG9okwlUUTOs4dAIBEeUCKALbGDHV/5ylf6G8UkthMLql7tEYqGdswWY6d9Qgixw9o0n/nMZ9rHP/7x/qYBUSza1T5hZ7L2HddXY6C/+spmgpetsVJumIhZ/vph/aQPf/jD/U1r+q9e46U+tg3bs+9aGENtud7aYhvBzzH7PjunnrKjRKSqT5+JOO4R07w+//nP9z67/mzTjnq1JX/ZPUS/tSc6TNvyS2x3jr0YLRdCCCGEEDZOIviEEMIMKTGAc19TjkTTcMaFVXLohVjWFB2Ov62IHtNznDc1TESLc6bliAypaTyc/qHwAO3JSxjg3JeIU8eUGRUbhmULx8oO688QpwgvICQQr0SN+ExMQPV3LlAXscc0KuPABu0bH9EronWMhfb1ST9GGY6DLdtG+1rHCFg1vawWtdY+kUZkjLZMySLYqAvDurRlrKs9+9U++4y1rXF3vspVQvVZZJE+G3PT8xwj3LDBmNf0vrq2GNoiVbuVx7GyKYQQQgghhCF5QgwhhDWknO1ab8c0GwID0Ye4QNQwxYZzTtAgABEcOP2mFJmS89M//dPt2c9+dl+Lxho3RA/CwaiAUTheqfYhn3bK+R+WqzzwmQDCRiKI6UMPfOAD28/+7M+2X/qlX2pPetKTuh0luIy2Pxu0bRxE8VgQ2pu2tE8we+Yzn9me//znt6c97Wl9mhzhqwSWyVDXME0G0YyoQnwz7qJrRAT9zM/8TPuVX/mV9oxnPKOvvUNoI9YNhRaMtjEU4SrVeA/H3PEh1WcLSZ966ql9/Ik71uJ53vOet7LP7qOpRK5C3WVH7VcKIYQQQghhSASfEEJYQzj4kugQogUBx7oujnHwa40Y+5x0U3pE11gY2WdRJhYAJjgQIuQ15YtIVHVPh8o7TENqv4QBIgs72GjamalIol3YQvgA4arWsplL1Kd/1g0ifPhsSpL2jaEpa+x1nA3GbTaU2KK/6hORoy1jTlwjsBCFjMmatDUc68nGHsM+W6vItReNZa0ffXYfEHnkcW62fQ4hhBBCCAERfEIIYRZw5okkxBKCDweeeFOixVAwqc8lDEglBFnzR9QPEcS+c/IPy08H5abL0B6fiR7aJ0qIhiGEOL6mtkyHYb3GS/sWsjYeJcLMpt0qO6xHf4hZhCDtmVJGjCEOFTNpU33DcR9+HqLOqrcigrQp8qvGnODn2EzaDyGEEEIIYTIi+IQQwjThhBMOhskxU4+IPNaCqbd2WdPFec67xLm3Pot8NW3LOi5f/OIX++K9S5cu7evZcP4ryqPKVlv1eSgcDG0anh+eG9YDETWikkSWED5M72LH//3f//UFlM8444wuhBB8iDDyDOudDpPZBeMgqkYklGlb8pn6VuNgIWvrGxFAtCsqhw3qkLf6MqwTzlWbdd6+NW/0VSKyEJO+9rWv9fGWTLGyeLMIIONebZXtldRVTNVWUWXqHEQWufaielx74h47PvGJT/QFpE1vq7eUDe0YbaeOFUNbKg3PhxBCCCGEjZcIPiGEMA0IFQSDWqTXluNexwk81mV5+MMf3tfEsR6LqVJEHvnK4ScKeX03wYPgQ2T513/91/bJT36yiz3qETGkTDnu1pZRvhZktq/dOicvm5wncFT0iDQ8Zys/8YMdpjaZWmRtGXb893//d3+LlcWF1aOM/CUozERIYEP1Wz0+O6ZegpP2jzzyyP7ZAtLeVvWBD3ygt29tIbYbP+1D26P98bnGwbbadE7StvHXz1qYWVTPF77whfaxj32sv5mMuKRv1Vf1jLYlsduxase++p2zdazsGJ4rO1xTNjz4wQ/u1961ZodrT/CxxpB22Tgcc6iv6rKtMUHZ4rjE5uH5EEIIIYSw8bLZwgW7vfbJTzmm/9Xzoosu6g+UxxxzTP/LbwghhB9Eq4g4MfWHiCBSwzow9XYujrfkN1R+Trg3eHn7kqgfb78iYJTDTmjh3Fsc2XQwU8GOOOKIviUWiRJasmRJ/y1WlzqVVY886tZWrRPE0SckEBTYpn7HrReknGgathBZqk6JQCHiSJkSo0xN077+Oc4uW+0pMx1EqZiSpX5vovL2LUnbBJBKxsIx47Dvvvv2ha/ZqX1j65hyxkg/1Kmv+mMc2Eo0Mj4VjaROZdVlq33Xz/WxRpBxV5829Nci1fa1ZV+/9RXaYptxd9y1h7agPvWwxTiipmU5p17jZ1sCINwzrpdrzc4ad3031upTRt8qword2lJfiWGOs0UyJurRZ+Ki8TX+IYQQQghhvPDHQy8mEal/+umn9xfIHH300f15cEgEnxBCmCGcbU45Z50Y4HezIi18JhL4DZWH880J57xz8gkxJfb4QSYycO45/cSYej23/AQYooE6ldEuh7/EAw59iT3aq1fEq5s4wtknhBA8nNNWiQjOq3PUTuIHgaWEB7aIkCkBYbrRIyWwEDgIIepXn3316JPPbBmOw4Me9KBuh/Yd0z6hhTiijPaNif6wq4SvosZCGePn+hh3bSpnX50lnEj67FpWX22NjXrVZb/qKhv0TR52sVN59deYy2fM6jrKpy62OGdMlDEu/oMuIU/72lFOHuPjvtKW4/qlPcfZob2674yFttjrvLEIGx/uvwh9P2B0PDI+IYQQxoHpCj6bHLjoiPve9s43t2VnLGunnHJKdwyOP/74/kAZQghhBYQVkRYiZqyzwtkmmpSYMHQgRN3IV4sOEwL8tsoH0S/ymF4kMqMcegKI/NaT0R5RxznHrKejjHzalJcNjososVWG2COPcvbLDk6O9tXJbjjuvPLaUEbdhAJl2SmVUOE4oWM6GCP21lvH2GQMtFFChTzVvnYcZ58te6p94oWkbXVWf0qQYVflV5dxVQebjb3zbHBceeNbYhS7JOeUNTbaKvvqGjqmPvUaG8erb3UfsIddjkvKq4cNJXQpa3Fm7bEXw2uiPjaqS5vGSz7Hqq0S+yo/W/SJnSWiycfWsPFgeqJ7gygYVlDiju+GNbOI2cYohBBCmO9Y+/Okk07qa1KecMIJ7dhjj23HHXdcnyEwJIJPCCHMkOn8hVieYqq8lWey85O1sbr8mKxMHVuT8rNh2PZkVJvFZLYXU9m8JsdH2x1lsrKzYdSear+OTWXvTBj2aa7tD3ML8YHgZztkeD8MKSF2VRBOX/va1/a/7P3CL/zCxNH5i7EhYtZYEGgrgg51HvKMnh/FQvRvfvOb2//7f/+vRxGGEEII850IPiGEEEIIGxje0PZnf/ZnKyPNClFbhAyRhIUILtP9CBVTiRnCud/61rf20O7nPOc57WlPe9rEmfnLDTfc0P7kT/6kR7YRdEyP/OM//uMejQd9feMb39ij20TNCV9/5StfuTJSbsjnP//59o//+I894u0lL3lJnz4bQgghzHemK/jkLV0hhBBCCOsIU/28oe9xj3tce97zntee+9zn9kTQsXbTb/7mb7Zf+ZVf6eesZeWtdauC2EHoscYTgWgcMDXx2c9+dp+yqV+/9Eu/tHIaI0Tz6LN81q4S1TTVmlUefJ/1rGf1SKnRqKoQQghh3IngE0IIIYSwjjA968lPfnJ70pOe1N+q98hHPrKnWn/HW/1+5Ed+pJ8TrUMYmgrRL6JeTOUSoT2MDpqM0elia4PZtqE88Ub/iTlEMKJNrUlV540TscuYWXh9GC01xILpxtB50UBzwboYxxBCCGEuiOATQgghhLCOIOz86q/+ahcihsLB6HQu56w38/M///M9+ufGG29s11xzTZ/OJMlf07zkJWYMp32ZMlZ5pTpvW8fUV2vhFLU4PSwG7y2uFhqfTOSwOHnZZFsLlRemZElQp7pqfyqG5dk6KtKMnp8sqomtbNaez7VA+rAs9H04pqNtGfNaJN559RmTqmeyazJuGCNrToUQQpifRPAJIYQQQlgPjAoQQ0bPvec972kvfOEL28tf/vK+ns0VV1wxceaHIVC8+93vbi996Uvby172svaa17xmZf6LL764veIVr+hJfe9973v78cLrXV//+td3oePTn/50+/3f//2+X8LQUPj5r//6r76+EHte/OIXt29961sTZ1bwoQ99qH3wgx/sn60z9Hu/93vtIx/5SN9fmxBiXve617U/+IM/aJ/85Cf7FLDJsLZPjanxuOSSSybOrOBd73pX+9znPtcFj1e96lXtj/7oj/qYFMb4RS96UR9j56+66qqJM+PD3//937cPfOADE3shhBDmG5stXLDba5/8lGP6Xy0uuuii/irYY445ps+bDiGEEEIIax/CgsWJR98iRUR43/ve1x7xiEf0aWCme/n8mc98pkeu7Lfffj2f/b322qsdeeSRXSwirOy///59LZwHPvCB/ZXkFjC2wONP//RPt4c+9KG9Luvg/N///V8v99WvfrX967/+a49a+e53v9unVD396U/vC0efeOKJfVFkx0Ty/O3f/m0XUkw7Y7O6li1b1i677LK+9hCh4LTTTuv75557bvvxH//x/nwpioYNRxxxxJTr7hRf+tKXeh79nYyTTz65T2l7+MMfPnFkxevp/+d//qc98YlP7G2KvPnoRz/aF4J+zGMe09cE0r+//uu/7n3+yZ/8yT49zHioT5SOZ+C/+qu/ameddVZfFJtYZhqeqXf6KkpJeeUe//jH97KmoH32s5/t5U1DGxcWLlzYDjrooB6RFkIIYcPB/2/+j/KHmtNPP70dddRRfYq36c5DEuETQgghhLCBQlz44he/2IUTU6hE2kjEiXPOOWci1wrqLVbOESOe8YxndIGCIEIEKjHCvkSoOOSQQ/pbWrWz3Xbb9WSBZH8AtDaOB0hiDiHFYtOFPEQOiSCjLnZ9/etf7+vtWKtIHQQb09iILWzZdddde3tEo7WBh9/vfOc77VGPelS3XR8IVaMRU/rpwdg41XhYIJtoJT/7bdnv4ZnYo072m/bm/GMf+9iV5Y2BN6aMXpP5jreauUeGkV0hhBDmDxF8QgghhBA2ULxdijhhKtE//dM/tX/5l3/p06RE1+y9994TuZY/0G26aV9fhjAj+kZEiiiactRtf+InfqL93M/9XI/qlghIhCT1WwuHQPKLv/iLXRx5wQte0CM7IJKImFRvyrL1NjHRRSKQRMyY9iRfvRr9l3/5l3tk0IEHHtjfQlaI8NHeqAAzV7CNrSUoHXzwwe23f/u3uwhVaySJVqlj7LfejwTH1PH85z+/RwMReX7mZ36mn4NxFEmlvPqUr/WJXAMi1ziytq5XCCGEtUsEnxBCCCGEDRQCCZHhd37nd9rb3/72dvzxx/dkTZwf+7Efm8i1Irrn4x//eHvnO995v6lS5ajXVgTMK1/5yp6sP2MdGyKHhBJKaqHjVfGxj32sr4Fj/ZqXvOQlPbrHFLGC7RvCQsZTLdps2pkxqPEQwVRRUmD7cCFtDOv4m7/5m752kfV/Xv3qV3fxbFwFnxBCCPOTCD4hhBBCCBs4phCBIFFJ9E9B1DCtigBjcWFr8Zx66qkTZ1dg7Zz//d//7dErEhHpqU99ahc2SpgZRgRNBVGIUMQG7f3Gb/xGj3ixTpDFnoesqp7VIQJpVHAZ1icqabS9ySgRqsScWsPH694tOv285z2vRyztscce0xK6rOljjR/TuIy18r/+67/eI4fW1lS1EEIIYU2I4BNCCCGEsJ4xHaiibIYQYiYTNazrc8YZZ/TPok5E05i+ZBqXtXJ8tpDj9773vZ4HFmK2xgxhSCJ4WH+GiDKcroWamoX6XAKTtiwybXFj08Ae9rCH9YWhTTEbRvQMI4eKij6qSJhVCUKPe9zj+vo/1iQq9FUZ7S9atKivrTOEQER0qX6YcuVNXcpYtJpYQ9SxwLIpa+yvRZu1NbRHW5NdE1O4tG+srWFU6/hM9TawEEIIYX0RwSeEEEIIYT1BYBBxQoTwOvFRcYdwYaFla8w4760cRAxvzfIWKVx55ZVd5HC8IlQs2Cy/aUvqx7777tsXILZf6+54QyuRxnQkETPqsH/ppZf2MvAqd0KKtkEEqWgeCzUroy1vwnLM1nEROpJzIBRZ68ZWnfo+Os1qiLdsEVW8/p2dhBZ1E60cs5i0hZeHIg0Ryto77GfL1772tZVvz7JY9De+8Y0eLcV+trCtxsMaSMbE1jljWn0aImJIeeJRXRPXoPo+nSih+UKNeQghhPnJJgcuOuK+t73zzW3ZGcv6f4QLFizoc8M9FIQQQgghhLUHoeWNb3xjF0gIId6KZE0YET8F4eEv/uIvekQPAYjgYiqStydZk+fNb35zFymIMqJtjjvuuPaWt7ylv61KXpEn1qix2LBXt77jHe/o9TqnTUKPerVZ+7a/93u/16c5vf71r+/77PC2LVPB8L73va8vJk0AIdw4D1E8tS+p40/+5E/av/3bv7VPfOITK6Nvfvd3f7dHxqwOwor+EFcIN14N/9KXvrQ/s07GJZdc0tc4IkQ961nP6ja//OUv73YbHxgrayKJeqqpXmw1BuwnItkn3nh9u/JDccrxP//zP++i27C846KGrO0zDrjvXF+LeIcQQthw8GZIU7WXLl3aTjjhhHbsscf2//9F7w6J4BNCCNOEo+EvuBKHiGPgr8mcF+c86HNITHswXYFDIa/9msbAiXBuqoU91aOcuiTlPGxX+cmoMhw+jhHbOCB+z/0lW1l5/OWaI8Rxq/P+Es6JUZ7D6S/V8rF54cKF/XyVZ4882rDvfLXBceTsiELgZGnD2MjD2XSeXer312J/9dcGB9T5GkN9UIc89rXvvPFipzq0zw772jcNQ3/ss1H7+qC8qSiczXorkH5qu/qpXa9ZrnEaOtkhrAv8RhBySnxxr3u7lft1iAc73wv3qOR14+5Zr1MnOvg+ub/dy4SgM888s3+fql51+p74jhB9CnVVWd+Z2meXN2z5DpXQ5Pvne11v7/J7QrCS32+bbX1PUccdY6/8vp/q8nuxePHi/hsxHYhX6lWffhBhpkI/CDn6sP/++/ffAFPb2D387T333HP77w07UfYaCzbb91kZQtwodU2MceVno98bEUDjgD7ql2sVQghhwyGCTwghzDEe5AkFNQ2AY8Qh8rvJofLgX295sXgnR8ExD8scBk4IZ2LnnXfuZVDHOAvqUw9HiKAhEXs4RLaVTxpS+TlS559/fnfyOBzEFL/lHLYSQpYtW9Y/c9qc55Q4T/wgpFjzQx8dM42Eg1T94xjJw0nSN39lrzY4ns6bpnHBBRf0sSLWeG2zPMaEjezjIJomwOkzXUM97NGG+jmFtvaVty6IMTA+yrFRX4yDNg444IB+3r42TPdwno2cX46ufK6DsTH1gp3sdV3KRsKRfoyObwhri/pOrykzLT/b9obMVV2rq2eu+ziXY7AxkXELIYQNi+kKPpst3HG31z75qcd0B8b8aA+/xxxzTH/4DiGEsAIPuwQEv5VEHcIF4YBI4HezxB1/VS+hgZjjr+/EDyILUUV0CfFDGeIDgUIe5z1Ma4fQYd95IgdhxF+Q1QvH6sG72iCQEFoIUbVuhr9ui44psaeEFvUSibRFSGKfcurQNzapt+rXvrqUty6G8+p0jK3+v1CfssZEXc45RmQhopRYRsyRRx3K1l/G9Ul+48rWGpOKNlIHu4k91tqo/jlmPNXhmHPa0JZ9bdR46Yt21VHrc0jaUn+ifMK6pr7Ha8pMy8+2vSFzVdfq6pnrPs7lGGxMZNxCCGHDwrOuad2ea0Xumk5sXTtr9Q3ZbOGCCD4hhDAdiAPECNMnTBcgcIgc8XtJTCCmmHYAUwiIKR6SiQ7EB2KDLWGBSOF39/LLL+8CSIkOxI0SQeAzAUL92ve5joEIJFJFVItpF37ktUsoUTdBil3EIIJORfyUCMU2edXhPw5bZUooUobgQ1jxnwpbRcSIIFK/PolYUs6UCTaKlvF/CeGH3WyUT3/ZYl/9kn1joj/aM65s0g/jREBzzriw77TTTuvHRVAZB/YZN+2ygX1sdU4/bR2vvhLltKFP7ITrKZ9ryW6f49yEEEIIIYQNlekKPvkzZgghzAACBoHBNCfCA4GB6CDapM4TFuwTOEokIUgQOhyXn8hQiaghCc2UX5QKkaKmNhFLlCNaEGpE5qCijhyzJVKwixhiSyQhuvgPgaBEOHHOFCnihn4QbUTtEEKUJ1SZylWCirbVQUTRNyKKc8oTfdhQb7hhHyHFOW0QgpQpYYuwpLw1c5y3dV4b2tdHNhpX57RDgFEvYUjSV4KWNvyHRmxTTvv6yU52OacvzhOUjKd2lGcjUUsbxkk/1cE+bdX4hhBCCCGEMJ+J4BNCCDOgpkERFCRCAaGhxIKKDCHwEDGIKcQGggwIHMQXxyopTxSyrkxNu6opViVyVETPaOQJcUnd7CLwsI3IIXpGFBGxg23sIWw4R4gheBA+tE+QKUHIOUKIfBU5ow79hDLqdp4wo062spMtzlcbxBQ4rx31OG+9nRJb9Efd1YY+sFvd6iHeGDN9kOQnArFBH9Sh/9qQ2Ku8NiT1OK9/2vC5ykvqt2/8tB/BJ4QQQgghjAsRfEIIYQYQA4gWhIaKgiEkEDwIPCXsED8INc4REYgWIKooT5SQRLwQOeSvaBrCg7KiVRwvEYSYQ4QZij7Vjna1Ia/6q14CiPpsoXy1zRb2EVJsla92lHde/eyXtKFt9Tov2WdniSnD/jlvvJzXN1s4Xm1AuRJb2GBM2akeqcQY5auPyhJqbB1zng22zjvHBuWdV3eNQ/Wh6teWNoyj/oYQQgghhDAORPAJIYQZQBggFogOEcUiCoWgYEqR9X1KWCmIC0OBRlllKkLI1CTCkUgUdRMmSnQgnhAjiCPaIzIRMQgihbwS0cRWHVBWu8NzEob2sJ3NUgk2VVZSn+NDUQnOVT7HlXeuzlc9qDZK0KmyhWPqrzq0WXmqr9qQnKs+Vp6ysfoxbMMW1Ybkc+G8Nmyr3hBCCCGEEMaBCD4hhDBDiAOEGyLNIYcc0gUb0T0WvhfJUsLEkBIUCBLWs7HAmulbypXIU4LMaNmhODJKRcNIPldeNhA32OmcbQkg6i9hpQQlQpLPyrGjbJDfcZE0tuqQnC/xxDnlq37JcfVU+WqDjcpWG5JyFbFT4gvUYWzkEYkjzxDH2Su/8xXVM2zf1r7+Oy9f1W+rjhKJhuMXQgghhBDCfCdPtiGEMEOIBMQCAoLFhwk+hAJTjgg4phaNije2JS6IBrK2j621ZRwrcUIq5LdPWHG+tlUniCk1NYkNBCdrArFDfmvUiAyyRa0XZOu8KCVRRrWeDpsIUs6zi4BSa91oS/u17o+pYGxR1no5BBl1qqPWH4LztS6Q8+rWhnyoCCZtsMHUK204b0wrKko9+umYc2zQX3aVDepw3jkRV6bIOa9+Ap1rpg/KqYON+knscU7eEoRCCCGEEEKYz0TwCSGEGUAMIKxIhAgCA6GBcOKziJRaa0beilgZigiiUuSzlU9dw+gSIkq147y8hKFafLkEn6qfCEJs8bkWfyZmlBhD0LHAsfpEIXmFO8FJXQQrr1nXB/kJMeeee26vg/CiXC1+TAxRRh1eSc8eY0Dw8kYsoorz3jSmDYKLNk1d8+YvdemLyCZtqMf54fjZJ9Jo33kCEdHJee3I47z2JYINoaamyNV55Z0n/DhWY6AuY+q4+o0X5JGM4/BahRBCCCGEMF+J4BNCCNOEEEDgKIHFtqJLCCcS0UAex+URvSL5TJggOJS4YN/xOmbrWNXrMxGHMEREkggqBItCW/IRZNRB7CD2EGtKKCHGEEPYQYQh9hBKiCvEnkWLFvUIHG2KfBGdIwpHf5Wt6Bz1K0MkkUekjGMl+NgqQzTShkgnNuy5555t33337bYQlUQfEX3YySZijDYIRvaJPOwkyhgLQo26K58xcF4yNrUmEhtcC+fZrzyhjKDEhhKVjJex1A/9dUwe7UfwCSGEEEII48JmCxfs9tonP/WYlX/t9CB8zDHH9AfoEEIIKxiKAH4niQPEBVtCCWGC6OLYgQce2CNa7BMwiBQEC3n9ttonMJTYU4KJ47aEjZp+pD6CBGGHDSUGEV7gmOSYtghE1SYhh9CiDvVpi1hUIgsbCT5sUq+yUgkgzu+///7dPrbIow6oo84TU0pIkYc99vfaa69evz5po8QUW+UJMAcccMDK6B/HlVdP9Uf96tAfdUrOScZT/0qwco591YZ+E4IWL17cbShBR55qSz/ZoA351at8CCGEEEIIGyr+uCmq3rqgp59+ejvqqKPa0Ucf3Z99h0TwCSGEaUIIILQQC0pc8JlIQiiwT7io6UN+T+UjJBAbfC5RqAQYxwgfBAtlKtJE2TpfAkhFF9kOBR+fHSeQ2Pr9ZkMJLcpLZWvZWHYqM+yD9iuiRnJMm8qrR37lCD3Os9Ex5ys5r/0SuhxThzbYyS79JgrJq95hG9o0TsQgY2K/+lh1OM4GWzYo65xkfB3Xvv/42KC8czUeyjhfNjhf4xpCCCGEEMKGynQFn00O3O+I+972l29uy85Y1k455ZT+gH388cf3v5qGEEL4AaYjmUI0uoYOkUDkjHOmE9knXsC0pxJlUGVtax0fdchf+ez7rCx8ru3wfKGuat9ULuXUVwKHMmW7KU4+q8N5QgqUN5WKTbbqJ6A4X+XV65zpUPaHAos8zus/G9TnuDzaUZ9j6peHLY6VSDW00XnJPmFGPcMx0X7ZqKxU4zc8X/3URp0f9rPGvvrBBnlCCCGEEELYkDn77LPbSSed1JYuXdpOOOGEduyxx7bjjjuuLVmyZCLHCiL4hBBCCCGEEEIIIcwTpiv4JHY9hBBCCCGEEEIIYcyI4BNCCCGEEEIIIYQwZkTwCSGEEEIIIYQQQhgzIviEEEIIIYQQQgghjBkRfEIIIYQQQgghhBDGjAg+IYQQQgghhBBCCGNGBJ8QQgghhBBCCCGEMSOCTwghhBBCCCGEEMKYEcEnhBBCCCGEEEIIYcyI4BNCCCGEEEIIIYQwZkTwCSGEEEIIIYQQQhgzIviEEEIIIYQQQgghjBkRfEIIIYQQQgghhBDGjAg+IYQQQgghhBBCCGNGBJ8QQgghhBBCCCGEMSOCTwghhBBCCCGEEMKYEcEnhBBCCCGEEEIIYcyI4BNCCCGEEEIIIYQwZkTwCSGEEEIIIYQQQhgzIviEEEIIIYQQQgghjBkRfEIIIYQQQgghhBDGjAg+IYQQQgghhBBCCGNGBJ8QQgghhBBCCCGEMSOCTwghhBBCCCGEEMKYEcEnhBBCCCGEEEIIYcyI4BNCCCGEEEIIIYQwZkTwCSGEEEIIIYQQQhgzIviEEEIIIYQQQgghjBkRfEIIIYQQQgghhBDGjAg+IYQQQgghhBBCCGNGBJ8QQgghhBBCCCGEMSOCTwghhBBCCCGEEMKYEcEnhBBCCCGEEEIIYcyI4BNCCCGEEEIIIYQwZkTwCSGEEEIIIYQQQhgzIviEEEIIIYQQQgghjBkRfEIIIYQQQgghhBDGjAg+IYQQQgghhBBCCGNGBJ8QQgghhBBCCCGEMSOCTwghhBBCCCGEEMKYEcEnhBBCCCGEEEIIYcyI4BNCCCGEEEIIIYQwZkTwCSGEEEIIIYQQQhgzIviEEEIIIYQQQgghjBkRfEIIIYQQQgghhBDGjAg+IYSwBtx3333t3nvvbXfddVe7/fbb26233tpuueWWnuzffffdPc9sUUe1dc899/Tt6qi8bPB5NnYoqx5JncO6fNb/2267bWXfh+Pg85133jktm0MIIYQQQghzSwSfEEKYIYQO4geh46qrrmqXXnppT5dddllPV155Zbvuuuu66DFb4YdYQjQhntx0001dTNL2VJRtJULNVvRR9o477uh9Je4MxRt11xhccskl7eKLL24XXXRR39o3DjfeeGMvN5sxCCGEEEIIIcycCD4hhDBDiBdEGKLOmWee2b7zne+0ZcuWtbPOOquns88+u11wwQXtiiuu6ILIaGTMTCCWEI6uvvrqLipdf/31/dhUaMd5Yg+xhVizphE26lJW+8SmYV8kgo82Lrzwwnb66ae3b33rW+0b3/hGT9/97nfbueee2+0mPq1p/0MIIYQQQghrRgSfEEKYIUQQggoB5vOf/3w78cQT2xe+8IX2pS99qX3lK19ZuSUGEWhmE+VDWLr22mu7qEJUEkFEQJmKTTfddKUQQ2wpkWaTTTaZyDF9lFHXDTfc0K655pp28803d3tK8GGH6B7ijnH41Kc+1T7+8Y+3//mf/2mf+cxn2mmnndYjfoxVCCGEEEIIYd2yyYH7HXHf2/7yzW3ZGcvaKaec0hYsWNCOP/74tu+++05kCSGEMEQEjeie888/v4sbRJHFixe3XXfdtW2++eYro2F23HHHtmjRorbffvu17bbbroswpjkRSYgwu+++e0+77LJL3zcVikij/NZbb9322WeftsUWW3TBRDkRQ+ry+7zlllt2G2wJUMQY4tL222/fbdQ+u7SvDpE+8qhLfvVr94ADDuj5CDraICjpg3P6ow/6qdwee+zR0w477NCFJW0oJ5rpnHPO6fbLt9lmm/V82l64cGFvS16RQupm495779122mmnPhY1XgQkdu688879PBsgj77rr7F3XFJ+22237WOm79omSBGqtMMOwpR+s8N4+j8O6iPYadvY6+tuu+3Wttpqq15GW+pkD/S58rBf3SGEEEIIIawPzCg46aST2tKlS9sJJ5zQjj322Hbccce1JUuWTORYwWYLF+z22ic/9Zj+wOwvsR7MjznmmP6QH0II4YchmBACiAVEAyLAgx/84HbkkUe2Aw88sIsQRASJAEF88FnemvJ1+eWXd4HDcaINscK0KOdE86jbceIFAYIg4pi6QDxSR033IriIAFKfeh239ZtOuFCnKVbKEDtEDRFP2C6Cx3ltn3HGGf0cEUj7yitDNNEvwgdRhOBB9Nlmm21WiiD2CSrEnsMOO6wdfPDB3X72EY0kghJ71K0v2jvvvPP6mj/GRx59JVJph42EJLbpo3z65ri62VHn/B+m/u9///vdZmIUsciYGwu2lvgljwgs7alTm8bOln3qY5u2S2wyJv5vJN5F8AkhhBBCCOuLmgHgOZoPcdRRR7Wjjz66/zF5SKZ0hRDCGkBsKMGBkEDoEAEiksRW9EkJOcMIFQKQcyJUiBC12DFxQl4iSEXSqJsIUcn5isQhTFSkDQHDOVsiCZGmIlvkI+go4z8GggVxps6zrRZYJmhodxjFQlghsEjqJ3YpC+e1xw79MQbql3yWjI0+lRAkf4ll7CHyEITUq5z8+spmx7ULIotxVUdF4NSY2RJpHFeHPqtffwg8xkg/HJPP1rWrayZpX3s1TpK2ldd2XUd1qzeEEEIIIYQNnQg+IYSwBpToAZ8rgdBDJLAlNBAkhlEyD3rQg9ojHvGILqoQGUSmyEMMMcXqMY95THv0ox/dhRd1gFAkqodwRJQgYoigIVZoi+hiGpQII1O+tENQIk7YSsSLhzzkIf0vAPIQbNhFcGIb0eZxj3tc/+vAIYcc0sWrimbSPiFmKPgMqf7XeVtJG0SYww8/vPdLvQQvdhF19In4YqraQx/60D42e+65Zz9vbAgsyiv3qEc9qj32sY/too9xVZZd+kZUMmVLpJUxMR7yGaNDDz20963aJOSo84gjjuh1PvKRj+xj7ThBSH3Qf3nUyWaij/amGoMQQgghhBA2JCL4hBDCHEMYIS5UIpgQGgg73uhlgeeTTz65T0UiWojIEW1CSBDxYj01SZSJuogLhA8RJhV54hiBiIhTAhOBooQmgpA8kjzEJWvjVCJ4yEfEIA4py86vfvWr7etf/3qf6sRmEGTWROBgOwFFXRax/vSnP93rN7WsInKq79pnly17tFnjZ5rWN7/5zfa5z32uLwYtbJXoxV7oh/7pk7pqS6SxJf7IM6zTtfjyl7/cbXI96lq4BsZLOSJQjRU7iUrGNYQQQgghhPlAnlxDCGGWEBIqQRSIiBmRIgQCQgFxg2hD6CDqEDHsO0fgGEYEiboxJ7fEHccqqkTEjDLEFFOTtKVd4o/pUM6PwoYShpwvO9WnXm0TOJwbTvEi+FTbM0G9krLq0Ff9sbizvotm0nd2sVn7tuxjp/6xkTBjHEX6sEl54pEoJ8edl48Yo7wx0Icai+GxEsDKJnUQfdQpsck59WmfTYSiKu9Y2RVCCCGEEMJ8YNPlrsrExxBCCNNl6PgTEiqqx2ciDVGBGCPyhHBga6qRqUumCVlBv97sRYxQXiSJ8w94wAPa/vvvv3KtG0IE8cIibKYpiVyRv6aJEWSIEiVssK0S5CU+ieaxZZ9y6q/IF+VqChMbiFDKyatf06XaVVb9kjERLWNal6lk7NcuhmLKsA9QlhCjf8bpoIMO6lO7TM8iDKkXVUeVHdYzHA/5jQHRiX2mgJnu5TqI5ClBRxmfh+JTHbcNIYQQQghhPpAInxBCmCGjAgBhgsBTizOLSCGoOE9IIHYQLAgMRAuiikRoIOIQFirSxj4Rwlo+6ib2gGhELCHGyKPuinQhXpTo4bg03He+oovYyL6K3lGvvNon8ljzRjvEJ8flIZSUgLIqwWPYNrSrLHHHujz6rH5rDemruthYdqLGVVKe4KQ+fSb2EMPKvtH+2ladw32fJZ+JV8bBfolv3q6211579f67Fs4N7ar6q44QQgghhBDmAxF8QghhhnD6y/EnaHjFt7VgPvShD7X3v//97bTTTuvniRwidSykvGjRoj5tSoSNNXKsR0OwITLIJwJI5Imyn/rUp/rWMedqbR7lRfgQJ3zWNqFGW0SVEiwkEUG1dk2JGMQh69VYD8d6NUQTdhGk1OO1jp/4xCe6fd6CpaxzImqG05smEz0c1yY72VFJGcKNuq3jY5qa42WbPirjszpsTdFyTLvEHZFSXqHOLtOwCDDOEdOqXXXWOjs+K29f323rmDJEN/393ve+1771rW/166BOY2pM1CcpV+OnLFt9ljeEEEIIIYQNnTy1hhDCDCmBhQBAkCA+EF9EoxBSiA6EGhE9Fd1TwkkJNaKCCArOiV5xnDhCiFCPrTpEwyhH9CH2yKtM1UnAqAWPHSvxQ5mKpNGO4+oXscN2edlXdWm/RCEQZNTrnHqITDUVazLBQ91sKPvUZ3x8rugZ0TWOq0/f5HdOv7RHTKl29U0+gpQ69MG4s1EbhDT265+8jhFr5PNZndrSrnaMR9kigsp51wnKqEPEjzblk5RTvyS/c/qk3GSiVwghhBBCCBsSmxy435H3ve0vj2/LzljW3wrjAfn444/vTkwIIYQfhmBDvLAejMWNa52dmsJEtCAw2BILiBTyE4NMJ5LkrbdIESoIPLVQsulXBBoCgy1xQf0SYYXooj7ijHMEmNrKz4Zaq0cZiyZb9Ji9ppFpl3ChXXbKwzZRPSJwtEF0YRv7taM9wohEmBkVPEThqF8+dqiDMKKsem31WX0lShkX5eRTr36xRR3yasM5NqnDcTbLJ2lDOX3V5zrmetj3ma3ENeNb4wT1STAWympLflvl5XdcGX1jk2uqXraHEEIIIYSwPvCG2ZNOOqktXbq0nXDCCe3YY49txx13XF8ndEgEnxBCWEOIAoQE2yEEgmEq5KsyGM1T5yXHCA5D6nhhvxge91kbBBLiR60rBP8JEC3UPRRAqh/VxjCNHp+KoT2ostXf0Trq/Oj+KI5VGi0/ylR1jCIPuyara7J6Mdp+CCGEEEII64PpCj6Z0hVCCGsIx1+kh4iQYXJsKKYU9h2fLF+dq/ps6/jw/Oh+peFxOCY6RUSMqUp+/B/4wAf26B5RLFV/If+w7aoTtsP9qXB+mOqY+kbrrvpqO8w/muSZqvxomqqO0aR81Tesc6p6pToXQgghhBDCfCCCTwghjDG1Lo71aEzTIlqEEEIIIYQQxp88+YcQQgghhBBCCCGMGRF8QgghhBBCCCGEEMaMCD4hhBBCCCGEEEIIY0YEnxBCCCGEEEIIIYQxI4JPCCGEEEIIIYQQwpgRwSeEEEIIIYQQQghhzIjgE0IIIYQQQgghhDBmRPAJIYQQQgghhBBCGDMi+IQQQgghhBBCCCGMGRF8QgghhBBCCCGEEMaMCD4hhBBCCCGEEEIIY0YEnxBCCCGEEEIIIYQxI4JPCCGEEEIIIYQQwpgRwSeEEEIIIYQQQghhzIjgE0IIIYQQQgghhDBmRPAJIYQQQgghhBBCGDMi+IQQQgghhBBCCCGMGRF8QgghhBBCCCGEEMaMCD4hhBBCCCGEEEIIY0YEnxBCCCGEEEIIIYQxI4JPCCGEEEIIIYQQwpgRwSeEEEIIIYQQQghhzIjgE0IIIYQQQgghhDBmRPAJIYQQQgghhBBCGDMi+IQQQgghhBBCCCGMGRF8QgghhBBCCCGEEMaMCD4hhBBCCCGEEEIIY0YEnxBCCCGEEEIIIYQxI4JPCCGEEEIIIYQQwpgRwSeEEEIIIYQQQghhzIjgE0IIIYQQQgghhDBmRPAJIYQQQgghhBBCGDMi+IQQQgghhBBCCCGMGRF8QgghhBBCCCGEEMaMCD4hhBBCCCGEEEIIY0YEnxBCCCGEEEIIIYQxI4JPCCGsIffdd1/SPE/zncn6lDS/0nxnsj4lzZ8UQghhvNnkwP2OvO9tf3l8W3bGsnbKKae0BQsWtOOPP77tu+++E1lCCCEM8ZB877339nT33Xf37SabbDJxNmzouH6bbrpp22yzzVZu5+P1u+eee3pyD+pT7sH5hevl3tt88837fTgfce/ddddd+Q2cZ9TvhbTFFlvM29/AEELYmDn77LPbSSed1JYuXdpOOOGEduyxx7bjjjuuLVmyZCLHCiL4hBDCDOFk33HHHe2WW25p1157bf/sAVpCbcOGQzkztd1qq63adttt13bYYYe24447zjuH2z142223tRtuuKFdd911fR+5BzdchvcgB3vLLbds22+/fdtpp53atttu28/NN/z+XXPNNf1ezG/ghk/dgyV0+x3cZZdd+m+g/RBCCPOH6Qo+mdIVQggzhDPjr9oEn6uuuqo7PD77azc8TCdtWAmiEG6//fZ2/fXX92tme+utt/bj8w33IKFRHy6//PK+1beKtJhsDJLWb4LfCPccke7qq69uN954Y7vzzjv7ufkIocd3ye/gTTfd1H8X3ZuT9T9p/Se439x3rtuVV145b38DQwghTI9E+IQQwgzh1NQD8wUXXNCP7bzzzv3301/qTdEIGw4EEI42geTmm2/uUQkcHBE+u+22W///zrSG+QKHWn/045JLLmkXX3xx/wu9e1DEyDbbbLPSuQsbBq6ZKCzOtd+OEkdEVyxatKjtuuuuEznnB/rje3X++ef3RPhZuHBhT+5B36eKJgkbBn7zJOKw5JrZP/jgg/tvoIizEEII84dM6QohhLVE/YXUX+gvuuii7lxz2DjcHB5h8o7F4dkwcB04N5zsmgIlGoZT6rodcMAB88rZ4WwTC0rwufTSS/u0oN13373ff6ap6VtEnw0D10tyD/rd4Gy7D312vRYvXtyFx/n0e1GCz7nnntsFH7+J7j/fJ/ci0ZHwnd/ADQPCjt8MondNw3P/2T/kkEPa/vvvH8EnhBDmGZnSFUIIaxlOtb/QixQpEchf8EVfcHQ43EnrP7kWw+vjDxsiYuZzJBaH25obHGv90U+CgqmFts6PjkPS+km1Nor7j+gIUTBbb711PzefRRG/gaIa9QWEVFF0tvkN3HCSa1EiMZGHuOO3wx8nEpEaQgjjTQSfEEJYA8qZ8dA8nEZTf733UO2vqmH9QfQooYcT6npwTEUgEOnm+yKl7kEOt3tPVI++1XRDwo/PuQfXL8afAFdTaFwzAgmRjtNtfz7jN08/fJ98r3ynSngs8dv3MKw//A74/SM2ujZ+M/xeuGYVCTjf78MQQghTE8EnhBDWEA/JHBwOXIkIhB4P1pydiD7rD04mR4eDY+qd68ExdZ1E9xBHODrzHX3gtBEQJH+trygLfTYGcbjXD7779XtA8LFf4hyRuKY8zWdnu34D9cuUVr+B7jffO/2uhcTDusd1KMGx/k/ye+He8xvo/60IPSGEMP5E8AkhhDWknLX6C7cHaSHy/qrN4R5GWcTpXreU2OM62KKisYg947K+yNDhdg/aVpRFOdwRfdY9xlt0GSe7xF+/E+4/18ln12kcKNFRvyS/gX7z6jdQ3/0mhnWH+88i4b7/Nc3TNalr5DfQNYvgE0II408EnxBCmAUerEv04cztscce/WHatBqLA3P24uyse4gcroHpdRxSTo7rQxBxvcZNANFH911F+nCyRZVwuhNptu5xf3G03YOcbuJO3YN+K8aNEh71TxSdPvrtq8iSiI7rFmNtzP3++Q3wf5BrUm/yGxexMYQQwuqJ4BNCCLOEs8PhFjVSTh3n219YiT6cnjg86wZjbrw52oQO16Wm0HB47I8rnDj3naka+myf6ED4ITq4/3IPrl0Ia+67eguXzyIpvI3Lb0OtmTJuVKRI3YO+b1KJDr6TxiL339rHb6CIHvdfTSV07xGCS/Cu6xVCCGH8ieATQgizpJwYjpzk4doaCZw7DjeHx1+5TfGIw7N2MK7+ik3Y4ORwMB0jftR6FRvD22jcf6bU+Es+0Yfz5y/8NbXNfu7BtYNxJXD4znsb0jCyR9QLIWRcHW19r/uqhG/3oN9A4+D+G4o+uQfXDsbVGBtryf85roHfQL8H4yx4hxBCmJz88ocQwhzigVokCYfHX1M5P/UXf45gIn3WDsSeWrfGOBM2ODqiDFyHcY2smAwigz5X3+H+q0gfY5V7cG4xnpxr9yBxwz1I3CE0SuMeXTbE/ae/+u130Hdv+LY8v4e+n2FuMabGtu4/n4mMroGt65DInhBC2PiI4BNCCHMMkaemNfjLqpB6znZN8ch6KnOL8azICuNsjCuywjXYGCJ7hhAW9JnDXdM43HveVhbRce4xlu5BYhrBkcNtjP0GiKpwHTY2R7vuQb9/EoyN+7DWNcvv4NxhLI2p77dxNsbuS1FWxp/YE0IIYeMkgk8IIawFai0LDh/hgcPnYfyaa67pDmGcnbmBU1OONmdShEUJHRVdsLH+VVvfjQXRy1YEgDWliGIEiTA3GFf3XYm6vtscbfeg3wC/BRsjRJ8SviVTDX1P/QYSJBLlMze430RQ+f/lqquu6veiCKtaN2pjii4LIYTww+R/gBBCWAsQGfyFW3QF0YfDAw6PlKk1s6OiKggXBDRjyumpqAJjzsHcmKcw6HuJPpw/znetp1JvTorwODt8h41pTdkkYhjnXXfddWV02cZ6D+p3Cd/DSJ+ackSYMH5hdhhDY0lsNK7w++c77zeQ2LMx/w6GEMLGTgSfEEJYSwyn1tTUDg4QZ5uDyFGMw71mEHzqr9ocSJ+JG/mr9v0xBsaCs13Tu9xzolHcgxF91hyOtumD7kFj6Z507xlr4+y7n3twRbQj4aHGxme/fQQKWyJZ7sGZ437z/SX2ELz9v+K+M8b1G2jsI/aEEMLGTZ5EQghhLeJhu/7CTfTx2UN6/TWWUBFnZ2ZwdCqyoqKlONYiKkyl4fTE0fkBFWlG8HEf2nfv1RQ496MxDdPDWPnOlrPN0Sb8lLAm5f77AcaBGOse9LYy31PfX99dYm2JPrkHp4+xMmbGznfZPWhM3Xsl7LoHQwghhAg+IYSwlimHp/7CzTEcRqd4UA/TpxwdDqM1aQgYxrUEtTjbPwxBrIRH96F9YoXIFNs42zPDPViRPcaPk11ihu937r/7437zG2h8SpCA76+U38CZ4ftqzETq+R10v/luS8bWb2LuwRBCCIjgE0II6wAOj6kMHB7JZxEC9dfZTGuYHsaIg00oK6FiOGXOOIfJIYQRfQg+7sESfdx/BDRjG+Fn1Rif+t66B+uNcKYScrZrzZTww5ToU99XwoSxJFi4D/MGw+nh/4qaSigZM99r96AxNca5B0MIIRT5HyGEENYRFenjL9wezkUCcHhMrREpkOldU1N/0a7IHiKF8bQ4LueRo50pDKuHI8g5FI1i3IyZMXX/ETA4kxF9Jsd3s6ZxXXvttf37aiwrYiVRFdPDPWe83H8lPPoNlEr0yT04OcbGGBkrkVHGkoBbAlruwRBCCKNE8AkhhHWEB/Fydjg6tpwdDqQHeI43hzLOzv0xHvVX7YoGsE/kibM9M4yRsaooC4IFJ9K4VsQKYS334P0xHsbFvWecfFeNZY1jFsidPn7zfHeNXUVFVcQKITe/gZNjTIyTMTJW7kFj5/8SY+mPCbn/QgghjBLBJ4QQ1jEeyj2o11+4ay2GcrgT5XN/ODo19ePK/5+9P3uW6zzvPc8n94R5nkkQnCCSIiFREjWYlu1jH1GmLbv6VLmr6lSd7mDHie6+6iv+B74qXPlc6aYj+kR0n4qu6CjTk45MD6IoCRZkiZSoGSAFEiQIEvM87zH7/b6ZD5Tcwoy9sXOv/f0Qizms6V1rvZk731++a+WxY3V/ZWMxGzqewnDr2FeEPvQMIDBj/9FbhdCRfcx9fRR1kLCHXhW8VtlnvH6zZ4X17/YQjvEeSE8zXsfsPwIM9i910MDnN7FPeI1S/7J3GfWP1zH70rBHknQtfkKRpDlAA4cP7PntLI+z90D2YLHR8+tvtdkvDDR06E2RDR17Vdy57OnDfqQuUudobNODgH1u/etgv7BPqH/c8pjXLQP7zbDnzrDfqIO974GEPoQa9vT5Nb4A4H0ve+Fxn/2WvRu9SLgk6Ub8lCJJc4QP6fQU4Do0GzZsqA1JrqXC9UH4cL/QT63Jhg77hG/+uZ8Xx6WhTdiju0MdJPDJn7Mn6KHu5a9PLeT6x7bzmmSfnDhxou4X6hwNbUIKG9ozI/cpr2uCDEIf3gMJfnjNL/T3QIIv9gW9G7mfgTcDfz8kSboRAx9JmiP5DTffbmcDMq+nQrf9hXx6F9vN9tPQ4XoVNHRoGOYpNJ7GNTPYh9Q7Qp+sg7nfszcBocdCROBKT5Pe8CtPo+EUGuvgzOB1zX6lDjKwT3nNZ4+qhdrTh23m9ce+4G8C+4J9k73yqIPsO0NHSdKN+ElFkuYQH+CzwZMNST7Y8w03jUwaOwst9MmeFWz/8ePH6/4gGMtvtdlHNrRnBo1F6h/hBYEPvSzY/zS2CX04BgQfC7EOZu+ykydP1n1AvWMfMbC/bGjPHOogQS7X9CHQYN9TBwk66PGzEAMfXnMZOLIveMw+ytDb+idJuhV+YpakPpDXsqDBzYd5Gjg0uBlo8CykBnc29rJnBeEO32izb/xWe3awPwkd2cfs6zy1hlPpspfFQqmDvPbYduogAz2e2De8PgkjPJVr5rE/qXPUvQw0eoNHjsdCOcWVbWRbee/Lnj08l2EjdZH3QEmSboWBjyT1ARo8NCRpcN933331mip82M/r+RCCLIQGNz17socT253f+jNwX7OHOkigRt3julI8JvAheOO0EhqhTUajOhvbbDNBA/cJeah/BBG8RhdC6DBXqHOEPlzTjFv2f2/w3fTTC6lb2buR03p5LwR1b9OmTXWfGPZIkm6HgY8k9Yk8tSa/5abxzYd/vuUm/KDx09TGZja0aeAQLhBw0bOH/cD+sGfP7GK/MrDPszcLA/WRHi4ck+xp1tQ6yLaxrbzeqIe89qh3hLDZs8c6OHuyDuZ7YPaoAu9/+b7Q5OCbOpd1kIH9wT7gfZBbekF5Oqsk6Xb4V0OS+ggNShqWNHj45RoaP3zbyzfcNHaaGPqwPTTi2L78Jp+GDvsgG9s0dDT72O/sa4IO6h8DjVAa24QgeWpX0+og28Rrq/e1RsOa0IFfhmN/2NC+NzL0Yd/Ts4r3Q+oeA8eHOthEvKaod7zWMtzK1yGBD38brIOSpNvlXw5J6jM0eLJnQfay4MM/p5nQ6KFh2iQ0tgl58lt8HhPy5AVc2X72ie6NDH0ydMwLxHJsOMWLHggcoybhNZV1kJ4VNK6zlwnbz/6wDt47BBu8B7L/s7cj74H5HsHxalId7A17qH+EWtQ7tp96yPZb/yRJd8LAR5L6EA0ePvDT4Cb4IPTI66nwLTe9LpogGzo05OhZQUOOb/TZbgIvT6GZG9S/DH24pg8NT4KeEydOXO190JQGdwaONLQzTGB7M3C0/s0N9nu+F3BNKd4LOD75HshxakJPM7aBgIcwnzrItrGtbDNhF+/9kiTdKQMfSepTfOjP07sYaIDT6CYYoWFAQ3U+N3goP40bGnHZc4ntzG/02X5PYZg7NLg5BlzTh+CDgccZzhGSUP/max3Mhnb2qqAu8hoj4KIe8tqz/s0d6h/7n8CD45G9rThm/FQ+x4378/k9kOCe8JT6x0WaeQ/MoJ9bezdKku6Wn2QkqY/RAKXBTYOHBjfym2DCHxoM87HB09vYzoYb20rYk41tzT0amzQ68/QS6iL1jmNGQJIN7vlWBykvr508jYvXFI/ZTq7Zwy310cb23MvgO09v4pjw/scxy54+mI91kLKzHVkHCbh4D6R3YwaO1kFJ0t0w8JGkPsaH/exlQSOAni80FGhwc4oXDZ75dnoXPXvyehXZU4RQgW+1CbXsWdFfOBbZ4M5TTGio0kjl9Jr52Msi62D2rMiwh22kDhr29Jd8DyTw4ThRJ/P9g6CE4znfUOd4/6b+UQ+pc9Q9tpFtNeyRJM0EP1FLUp/jQz8NbhrbNEgJfWhkc1oDje75dj0VwgIaa4QF3FJ2totTaQx7+hPHhHpH6JjXVqKReurUqau9LOZL6EM5ewNHAgPqHdtFPbSh3Z+ytyPHiXCY90COH++BeSHx+VIHs3cZryG2gW3J65Z5gWZJ0kzyU7UkzRM0RPkGmOCH2+zpk7/exeN+bvBQtjwdiG+1aajxbX327LGh3d84NgQ9hCJ52l0GjzRaCVH6Xfaq4DVDDzmCKk7h4jVFQ9uwsb9xfDL0oR5SH3kfOXr0aH1f4fj283sgoVQG3nkBdLZn3bp1V19T1kFJ0kzyr4okzRPZ04dwhCF7+vAtMQMN7n5t8FAmykoDhwYajW6wHdlrie0z8OlvNLA5Vhw3wjoeEzZS/7jlGPdr/aOxTeBI/cteIZyelr/GZWO7/3F8OGaEJLxvcMt7HoEj7y30muFxv6JsvE6yvDym7hFgsS2eSihJmml+spGkeYQGDw1ueiTQUKXBnReezVMD+q3BTXlo2NDApmcF5QSNnLwmhw2d+YM6R+OUOsjx4/hmI5bgpx9PL8w6SDk5DS2vG5XbwGuK7VL/432C9wuOW/aK4dhS/xh4n+lHvC4I5elZxsBj6l1uh++BkqTZYOAjSfMMoQ/fCnPNG25pJNCQzYs491vokw2d7IlEg4zAYP369TZ05ika2fSwyJ+PpsHNsaXBzbHup2v6ZNiT10whHAVhT14zxbBnfuH9guNGHczT8Xjv49jSc4Y62E/BI3WQ92Xep/PaZb2hqe+BkqTZYuAjSfMUwQ8NboIfGjx5uhSNCho8c41GDg1/Gtr5rTa9KrheBddNyYa2DZ35h2NL/cvgjoZrBo95IWdClrmWdZDXxfHjx+trhJ5x1EHKTHCl+Yv3E94DN2zYUMNvQh6ONe81/RJ8UwZCbspE2EO4k++BBFZsgyRJs8XAR5Lmqezpk98S03CgYUGjlgb3XPeyoPFFeehVQRDAY3qD0KuCcvut9vzFcaP+ZU+fvJ4KqH8ZOs516MP6KQ8DwSNl5vVCeT2VcH7juBEYZ0+fDE+od4Q+vAfOdU+ffA/MOsh7Mq8TQkfesyk7dVKSpNniXxlJmqdo8NBgpQFBiMI3xgQ8NLYZaGjQ4J2L0Id1ZmOb03z4tp0GNo0cwh6CAspvY3t+4/jRyOa45oVnqXdZBznuc4n1Z683ykrdM+xpDo5fhj4EeRxfApQMmgn55jJ0ZN3UPeogdZGyUv+yd5lhjyRptvmXRpLmORquNCIIfGhE8K1ybyODx/cy9GFdrJdv2BlofFHGvEiz32o3Tza4qYcca3pWEPZRD+nVcK97WdDQpg6yfgbWT8iToQAhlWFPc/B+wnsL9S9DH4579uy616FPvgdm8ERZCHsoG+UkGKWM1kFJ0mzzE7ckNQCNBxrdeW0SGjgnTpy4+qs196rBTUMnr5nC+mn408DhOkMEPtmzR83CMSXooe5t3ry5HmfCPq5bkj287lUdpO7TyD969GicPHmyvjYyEKV81r9m4rgSqPAeyEA94H3ozJkz9fZeho75Hsj1rAh7eG1wrSFO5eJ9GtZDSdK9YOAjSfMcDQcGGrZ52lR+g5y/SkQDeLYbPIQ9ef0M1ksjP3sfZa8KvuVW82T9I+ih/uXxpg4Q+uT1S2a7pxl1nLrO+nKdvCaog3kaF+VU81AHOb4EKtRBBp4jeMz3wHvR04c6zzoJerjN07h4TVA23wMlSfeSn3okqSGywZOnrtDIoHcPjR0av4QxNHhmq9HNsmng0KMjGzrTAyg1V4Y+BD3UPQbqQNY/6gSN4dmof7lMlk/YmGFPXl8owx7KqGajzhE80qOG9x3elzIA5P2QejEbqIMsm2Aprx/Ec/l+nGGPdVCSdC/56VuSGoTGRDa4aWTQwCDoyZ4+s9XgpqGT18zglnXwjTaDYc/CQh3kmGevBo49dYL6xy11ZaZ7m7E8GvO9DXsa/ZSBBjeNbevgwkG4l718OPa8HxFEZ0+fmQ59esOeDDh5rvd1YOAoSZoLfvqRpIahYZsNHq5lQcOXRgjXNMnTGmYy9KGxTQOH66XQqAKNHK5XQUPHRs7CQx2koU0d4Jo+NIa5ngmnd830NaWysX327Nm6DnoSsX6u2ZP13zq4sHC8Cbu5btj69evr+xHvT73XNZtJeSohdZA6Th2k/lP/WDf10TooSZoLBj6S1EC9oU9+y02jhAYxFzHN0w3uVp5CQyOK3huggeMpDAtbNripA9nDgcc0hGl0Z0+fu62D2bOHOki9ZrnZw411cp/XghYe6iDvgfSyoS7wPkjYzXsVwcxM9XbMsIdQneXyONfHuu3ZI0maS34KkqSGopGRF9HNAIZGSYYzd9vgofFEY5tGDg1ulsU68ufX/VZ7YcvQhzqYdYI6kvWFRvLdhD7Mx/zUZZZHmAQa29R3e/Yo6yCn9fFLgdSJPMU1T/3jfexOUP8ycKQOMnCfkJH6zjpZtyRJc8nAR5IaqrexQwOYXg+gYZwNHhosd4JGEg12lkGIRHjUe70KGj02tpV1kHrBQB2hzlFnGGgg30kdZB7CHuoyy6Ee9q6HOk/PCongmaCHizhTN3hv4v2K3o68D3L/dusgYQ/vgRkeEaJzn8Cb99oMHO1dJkmaa/4lkqSGy1NcuJ4K3zxnLwsaPHf67TaNpGzo0NimYcM36KyD9cHAR6AeZM8vrqtDw5u6w6ldhDXUR4bbwfQEjtQ/BoKjvF4Qdd2eFUrUP8I/gmjeoxioH4cOHarX26Ee3e77YAY+9OrJa1Oxnk2bNsWGDRuunsolSdJcM/CRpAUgv+WmUcy3z9O/5aa3xK3gm3C+ySbkyW/HacBzcdLsVWHQo2uhblBHek/5o8FMY5k6dauhDw1tAh5CS+ohdTl7bxAs0Zi3DupaqB95iiv1hfevDK1vp5dPb9hD3SVMol7bu1GS1G8MfCRpgaAhTGOnt8FNYydPrbnZt9w0iLJnT4Y9NOLptZE9e2zo6HqoG9QR6h71hV4Q1DnqII1nGs43a3Rn2EMDndO5mJ4QieVxS522Dup6qB+EPoQ9hNS8J+apqbd6TSmmYVrqHwPvgQSOeRqX9U+S1E8G/LMkSQtD9vLhW2gaPDSQCW1obNPgoSF9vcYOz2dDhwY6DR0a7yyHgca7PSt0I9QN6gh1MHtY8JigJ6/DQ328nt7eZUyfYQ8BEoOBo26G+pE9zQhpeC/kOd7X8tcLCRWv9T7Ic4zL60b1vgdSnzNwlCSpn/iXSZIWGMKZbHDTQKGRkw3u6/Ww6O1Zwak0hD/MT+8evjGn0WRjWzdDHentaUaDmzpIiMhAHbtWHczAkUZ29kqjsU39y54VNrZ1K6iD1BfqH6EPQQ11q/ciztcKfKiXjKPuEQ5xn55lXBPIU7kkSf3KT0eStADlt9xcYDQbPDR2CHMIgLLRnd9q0wuIRg7T0LihkUOj3Ya27lT2jqDh3dvTh4E6l6iLPCbo4Xo/3CfkycY6ddmGtu4E4TfvY9Qj6hCBdvZg7A19qHO8L+aFxqlzzEf9zd6NkiT1Iz+lS9ICROOGBjeNbRot3Cf0yQvh0vimkcOQp9BkIygb2/TsMezRnaKRTGOZ+sdAXcoePNzSg4I6yW1eN4p6SWM7r0NFvbUO6k5Rfwh7qEsMGXzznpfBd4Y9+T7Ic8zTG/YYOEqS+pWfkiRpgaKhTIMnv6mmIZ2NGm5pdHOKDQ1wGkE0aujdw/T+GpLuFnWHOkejOS+6TGOaukfwSK+yPI2Qnj3cz2tQZdjDMqyDulPUHeoU9YkQMYNv6hzvewQ9vA/ynsh7IDIg4taePZKkfmfgI0kLVDaWaUDTa4eGd/boobHDQEOHgZ4Ved2L/FbbnhW6W9Q/Gtl5TSkCIHr0EPhwCmHWPx7TuyzDSeqigaNmAu9jBNjZayx7mvXWP94LCSDzF754z8xrl0mS1M/8tC5JC1w2umnIrF+/vjZ46FFx6NChOHz4cA2BGEejnG+1aZTb0NFMo25xqiB1jZ4Vx48fr/WPsIc6x/MMGThKM4X3M+oU73EEP9nbkffAo0eP1vpIyEj9ZBru+x4oSZoPDHwkSbWxwzfWNGi4zzfc2csCfKNNQztPo5FmGo1s6lme2sUpNNRB6iJ1k+e5ZTpppvG+xntchtqc2sX7H717CL0JeRhn2CNJmk8MfCRJFT17cgCNbk6j4TEhUD4vzQYa0QxZ3zC9DtrQ1mzK+pcDQQ8D8jnroCRpPimf3v3DJUkLHY1qvtHmwrg0sunJw7fZfONNA4dxDIyTZgMN6/xlLhrW9KSg/tHbgnpnHdRsyvdA6iB1jDqY74Hc5znGZQAkSdJ80P261tBHkhYyGjqcQnPs2LF6gWaulbJx48bYtGlTHXfq1Kl68dJsDEkzjXqXF8ml8c0vd1EHqYt5eiHXUqE+Ml6aSdQpLsxM/aOeEfJs3ry5XteM0JvneY8kFDf0kSTNF/bPl6QFjgY010nhIqXc0qOCC5euXbu2DnzDTQMnf72LhrkNbs0U6hJBIo1tBuojv5aU9Y/rSnHtngyEmMYGt2YS9YmQh/rFeyBhDxdnzjpI6MhzjM/3QOugJGk+MPCRpAWMxjYNHL65phGTv9ZF4MMtpzTQ4OZiujTEaewwPY0de/robuVpMjSkCRSpV5zKtWbNmqs/k009XLduXQ0imSZ7WdjTRzMhwx7qFWEidYr3O+oct9TBrI/UO94DqYe8X/oeKEnqdwY+krQA9faqoKFDgwd8q51BD70qMgBi4D6NI6bPgMgGj+5Uhj3Uwew1QdiT9Y2eZXkdHxrb1ElOraHRTUBEnTV41N2g/lCf8n0Q1DdCHsIe6h9DBo+8JzIPgQ8D9Zf3UoNHSVK/MvCRpAWIRjINnZMnT9bro9BbgobOhg0bauhDbwoa1/wyUja4GWj8MP3x48ev9vSR7gR1joY29YnAh0YzdY+eFTSsOYWGOkhdJOzhmj6Mp86dOHGizpcNbulOUH8IbrIO8l5Hbx7qGQE39Y96yH0CIN4fmYZ5Tp8+7XugJKnvGfhI0gKT32pnQ4fwh0YM32DTsJ7+89c0eGiA8y03A4+zlwXLoOEu3Q7qII3lrEM0qLN+ESr21r8MHqmbWUeRYRHLsZePbkf2LqP+0bOH+pj1K3v2TK+D2duRMIjxzMOFxKmD9E4zeJQk9SMDH0laIGiQZM8eGtkMGfbQe4eGzvUQ8uSpDUxL44eGNo0dTq1hOTa6dTPUQQJC6l7vqYT0quBaUdSra2G+7G1Gg5tpWQ71j+VQp61/uhXUEwIa6g2BD3WH9zZ67/AeSD27FkIfepsR+lBfCcGZn9CH8JHlGPpIkvqNgY8kLQA0RPhGmgY2jRQGGsw0nvP6KDR6boTGDo0c5iH4oQFEI4dGdy7PBo+uh7pBr4oMCmkkEyTSgKY+EebcqLGdDW6mY3rqIo13lsPpOBk8Wgd1Pb1hD6ezcj9P12LgPvXsWrIO9k5PfeQ9kPrHMr2mjySp3xj4SNICQAOEQIZghsY2PSx4bv369bW3xPRTGK6HBjkNdEKibHBzLQsGGj6ESjZ2dC3UDeoIdTDrC3WIa/Zc61TCa+ntaUY9pPFN0MPyqNPUceqkdC3UjzyVkMCH+kY9YqAu3kodZJre3o5Mn6E3ddr6J0nqJwY+ktRwGfbQE4JGDg2ePDUhv9WmIX0raNzQ4KGBTk8felvwrTbfcDOwDhs8mo46kT0hTp06Vetk9tThlvp4s4Z2oq5SZ6m/1EHmpacGjW5Or/F6KpqO+kDgSCiTp2AR8PD+l73FbrX+gfdA5iHwYX7qJO+r1G3WYfAtSeoXBj6S1GA0OmgA0/uBhgi3NE7yOii3GvRMRyObhg7LoeGTjSlOa7DBrV6EPfTCyWum0DCm7lD/CA7vpA7SOCcoytMLCYCo2/T0oTGfp9ZI1D/qQ576Rz2kbvT2biTAuR29wTehD/UQhEkM1HdPcZUk9QMDH0lqKBobNHRo4ORpXDRM8uetCWruNPChwUMjmwbP2rVra28LQp8MlmjU+y33wsaxpw5QB6l/NLZ5jgYyDe0Mam6nZ0ViHuoujXXqMstkWayLOpjBoxa2rIO8H9G7kSAmezdSB7N32Z3oDX2og/QWok6yLuo7t/Z2lCTNNQMfSWqgbOjQwMkGMN84E/bwCzN5wdG7QeOG0Ihl0nhieayDdbFOe1ksbL09KwgBs7FN/ctrptxtHeztZUGdphFOQ5v15TWlbHQvXFkHM4ThcW99ITDkfexOQ0eG3mtKsWzqHPWPek/oaP2TJM0lAx9JaiCCFho6eTFbGiY0SBhu95opN5LXsuAb7jw9goZOfsNt6LNw0fCl7tGzgiCQekL9o7F9J6fRXAt1mLpMQzt/2p36lqEPdZFyaOGhHhAy0rOMukBdIeThvYqAZibqH3pDH8Jv3l/zmmms155mkqS5ZOAjSQ1DA5feDTS2GfiGmYY2p17R6KahMxNhT2JZLDdP0+ExDS16+tDwpvGjhSV7VVAHaPQSyhD0MFBX7vRUwmuhvlGnM3SkwU1jn3UTPNLgNvRZWHjP47jz/kf9oz7mqX+8RxHQzKR8D8x1UAdZJ+umDNy3p48kaS4Y+EhSg9CoIOyhoUvvnt6GNr0gZjrsSXk9FRpTBEs0ePiG29BnYSFooQ5y3OlZQV3MU2gIHbOhPdN1kOXlKYaEPqyLkIdy0OAmgDT0WRiogwQsvAdy7HnM+xG9b3h/4lpPs4E6yPstoQ/roq7zvkfow2uBAIqySJJ0Lxn4SFIDZEO7t2cPDQwa2zR+e69XMVtYNg0rGvesD1meDH1s8DQX9Y9jzLEm7CNkoRGcp9BQN+70Is23igY3dS/DJcqU5eH1wGM1U74HZu8y3ne4T8iddWI2ejgmlsmyqefU9wzYeQ8keOT1YE8fSdK9ZuAjSQ1BQ4JvkhloWNC4ybBnthvaYPk0uDP0YaARxjft/FQxDR97WTQXx5pGbf40Oo9p9NLbIRu/s43QkbpOnednt6n/lIU6mNdTscHdTLz/8L6Xp/JRF6lzeZrVvXgPBOvoPb2Lx5QpT++yt6Mk6V4y8JGkeS6/1aYxQdhDQ4fghVNbaPjOds+eXjRuaGSxXtZPwycbYTR4DH2aiWOavblobFMnCf4IXOjtQH28F41tUNep8wRNDDzmNcFrgzpoT7Nmyt5lHGfqIe9D1L0Mve8l6lyeypjrpkzUP+oirw+DR0nSvWDgI0nzGA1XAhUa2cePH68N7+xhwzfM97Kh3Yt1sm4aWzS6eXzq1KmrgZSNneagDtKLhl5cHN/s2ZMX8Z7LcIXAkV/vojyUMXsf8Zox9GkO3vcIU6h/hD6833DceQ8k/JsL+R7I+x/XNeNxhj7UQcpsHZQkzTYDH0map2gsZK8KetDQiKCBwTfKDHm9irmQjZ28ngVlIeShjDR4aJTx2AbP/MRxY6DRSoBHHWSglwXHnPpHyHKvTqOZLtfJ+ql/lIf7BD3Z04fXjsHj/EX94/hxTHvfVzj21L1+eA+kp0++B3LLc5SVgJ6yGjxKkmabgY8kzUPZ2KaRTeOBRgRo5NCrJhsXc4nGDg0uGjt8004jjEY2vSxodNPYscE9P1G3qINcE4f6lwEKjWt6VnDMCfzmWtbB7GlGmah/9EbitWODe34jYMwAhTrIeyLvgdRBevZQH+fyfZD6Rxl476PXJa8LAtITJ07U8nKfMkuSNFsMfCRpnqGBmteroNFAw5Xn8nopNC76obENGjw0vCgbDR4eEwxkLwtDn/mJY0bYQ93LC3JT5zjOhHsEjhzrfpAN7jzFbHpQav2bnziO+V5CHeQx4R71by5PZ52OMuRrg4H7WW56ZnLf0FGSNFsMfCRpHqFhQMOGsIdr4tBgAA2JjRs31oZtvzS0e3E6TYY+lJFvto8dO1Yb3l5Ed/4h7KHuEZpwDGnE0quCa5X0S0M7URZCH4JHggDKyWskgwK2xV4W8wvvFwQlvXUwjy09fPqp/iHrIEHounXram8z3sOpf4SOvAcaPEqSZoOBjyTNIzRMCUto6NDIoRFBAyd7VfRbYxvZ2MnQh7LyTTyNHLaDnj40utX/aGhzrGiscuyoiwR4HFd6z3Bc+zFw7G1w56k11Ee2JRvdnt7V/zLwJuzJ3o3gPYU6SF3kuHK8++19kNdFvgdmbzPwOspecgaPkqSZZuAjSfME3wDTKKCRw0ADlQYO3xbTiCDsoVHRbw2dlOFU/oIYjR8a2vS0IEBg+2xw9y+ODSEdIQ/1j2MH6h8N2H46jetaeF30Nri5pc7RU47wgNeWvSz6G8eH9z3qXwbFvAdu2LChBij04urnOsh7IKEo74H0RuI1w+uIOsh7oKe4SpJmmoGPJM0DvQ0dvhHOsIdGa/as6Hc0uAmlKHeGPoQI2WOJBo/fcPcnjhN1kAY2AR2NVI5nBngcU45tvyMM4LXCa4Zyc59tyhCV++pP2buH48RpXLwHUucywONYEqj0M14z03ua8RzvgQRYvgdKkmaagY8k9bnpYQ+NAnoqbNq06WpPmfmERjdBAT1D8nobbBu/nkSD22+4+0+GPRynvEAuDVauG0Xjtd8b2tPxmsmwisCAnkt5ipC9zPpPhj0EI4Q91EF68/AewjHkePZzz57peM+j/AQ+GVaxXdlrSZKkmWLgI0l9LMOevM4DjR4aqnkKzXxr6KTsaZGn1vA4T++i0U0DXP2BOkfISCBHo5Q6R0M1e5YR9tCAnU+ob/QOyeCRHkqg7p08ebJur8FjfyDsyUCO9wfuU/d43+D4UR+pf/OxDvL6IbBi4P2c93re53mdsZ3WQUnS3TLwkaQ+RUOHb3sJQmiI0gilcU2vnuzZMx/Dnmyc5ekYbAsNH4IFgi0GrqfC9tvbYm5xTDgW1ME8LjS2OWaEJPMx7EnTT62hPtKDhGCL7aXxbf2bWxn28N5H/eO48J6XQfF87F3WizqXp7iyPbyWeK8n8GGbef1ZByVJd8PAR5L6UG9DJ6+Zkj0rsqEzH8OeXjRu2Ca+pc9t6r0otRfRnTvUv+xdRs8KGts0PjlGHCvqIaekzNewJ2UvC7aHesj28Jqj/mXoo7lBHczeZRmAIHs45nWj5nMdpOwZ+hCi8pridUf9432fANL3QEnS3TDwkaQ+lA0dPvTnqVxr1669er2H+d7Q7kWDh8YOp9bwbT29mggYCBo8rWFu9Da2qX+EH4Q969ev/8hpNE3RG2QRArG91D+23x4Wc6M3cORXrHhM3aM3TPYuawq2hbrHwPs728rrjuDH0FGSdDcMfCSpz/Bhn4ZmXkskr/PQhG+0r4cGD9uXgQK9e2jk5bfchA+6N6h/hG7s/+PHj9fH2QOBY8OxalodZHvoXcHrbN26dTX0ybCLgf1h8HPv8Hon7KAOEv729m7k/bCJqIO8zvJ0Neob284phtzy2DooSbpdBj6S1Cf4MJ/X7OFbbRo8PEdDh4YoDZ2mNrZpYGeDm1CBxwQ9BD75LbeNndmXYU+eUkLokY1tGqPc59g0DXUwQ0fqID1+qG+8Fgl82A/WwXuj95o9vA8S/vCekHWQ0LuJMnRkOxmog+yL3A+E4OwL66Ak6XYY+EhSH+BDfDZ0+FabRmZ+48u3vU3tWdErQ59s3BEu0NAheKDhzf6xsTN7sg7SwGSf08CkznEssmcF9a+pdZDtIkzI07uywc31YwjA2B/WwdnFvmU/s8957ROy8T6Qvcu43/T3wAxYCR4z+GZfMBDGEspKknSrDHwkqQ/Q0MmeFZzKRaObBg7d+zP8aHJDpxcNba7nQyMv9wn7gzDMb7hnB/uUfUvjksY2A8/R6CT8aHLPiukIuah7DLzussFNPaQ+Wv9mB0EGgVr2qmK/E3hQ/7KHYxN7l03HNuZ7IH8DeN9nn+Svxxk6SpJuh4GPJPUBGpJ8oKdnBQ1Ogh4aOQupoZ3Yfhp37IMtW7bUXj80uE+cOFFDHxs8M4/GNqEavcvoYUHQwf5fs2ZNbXwuhIZ2r+zZxDWlNm3aVHuaEELkr0URjmnm8HrmPTDDRvYv9Y4L1fM+yPFYKIE32Fa2mW1nH7AvCBx5H+R1ymtUkqRbYeAjSXOIhg0f3vkwT0MyL5BLYztPYVhojW0aO4Rc7Ifeb7nzmj4Z+uju0dAmzGCfZh2koUmvCnq4cAwWWmMbvOZ47bEPqIOEjrw26WFBg5t95qk1MyPDHvZtnrZEwJG9rLi/0OofqIO8/nI/UB/ZN/k6NfiWJN0KAx9JmiN5CgONHIIMHueFixm4T2N7IcrQh8Ye4UOGPuynPLXGXhZ3jzpH4EiIQYObBmQ2MtnnHIOF2NgGr728phT7g/sEPdRBwkdDn5nBeyB1L4MMgo4MOXj9L8TAEb3vgewLgkeey3CWOsh7oKGPJOlGDHwkaQ7wIZ2GTvZa4QM8H+7zehU0Mhdaz57pssHDqTX0eKLhk40dGoiEPjZ27hxhBfswe61QHzmVrvcizViogQ/YdnpW0Nhmn/CY12w2uO1lcefYbwy9vVZ4nD37qIe8/hey3vfAdevW1dckr1v2VZ7aZegoSboRAx9JmgN8SKeRkz/53HsaDT0JsJAb2ikb3ARgNAK5ngXfauf1VPyG+87RQ4VGIwONbgI19q8N7Y8ieKWhzWsz9w/X2+J6R7yGrYN3hv3Gex89HBl4T8zX+EI8lfVG2Bf8XWD/8IUA+4prmhn6SJJuxr+mknQP0TDsPYWBRjcf5GlMEmrQsFyop3FdD42dDH3o6ZPfcrMPCX3y1AbdGvZVnsZFHWRf9p46Z2P7N2Xok72fCMR47bL/2I+GPrcnezfy+mUfZi8W3gfzulHqIPRmoA7y+mQ/sY94jvdAwjKCM0MfSdK1+IlOku4RPpDT0KGBw2lcNLqR12fI61XoN/WGPjR4aHzTyKanRQZnNnhujn1EvcteFdynsU2vAYIM9rF18NrYL9Q76iCvWeokDe58LVMfrYM3x34i7CEoI/Chdxmvaepghj32bvxN7BNeq+yj7A06vZeewaMkabqB8O+CJM06PoTzYby3sc1jGpB8eM9eAzZ0ro8GNr2haBzS6M4GN40dbmnw2Ni5PvYNDUQa24QU7DPqGw3I7FnBPtW1ZYObYDavKUXAk3XQnmY3Rv1jyGv2MHCffZrvgQSOvgdeH/uGfcR7IHWQ1yv7MOugwbckaTo/2UnSPcIHcz6U52lINBizZw9s6Nwc+4j9RUBBA5EAiH2aPX10fdnYZn9xDSQeU//YlzQidWuyl0X2iqJOHj58uF7Th/3LftW15emsvF6ph9S99evX1+Db979bk6EPdTD/frBPjx49Wm8JHQ19JEnJwEeSZhkfwPkgTq8KBj6w09DJU5M8heb28K02DR56+dDopgFOQ5teU4Rp9KKy0f1rNP745p+6R0ObsDEDC+ogoZk9e25Pnt7F/mNf8prmOirUP4IM699H8R5IvSMUy7AxT43j1t6Nt479xOuVfUb9y9cw+5jXN/vX90BJUvITniTNIhrbeQpNXjOFb2TXrFlTP6jb0LkzNLjZj5zWwH7MBjcNSm4JOGzw/Po0ruzVQx2kTtIzgIGGooHjncleFtnopsHN/uW1TgDJY+vgr68bRR3k9ckt9S5fu+xHAgzfB28P+4v9SGBGTzPeD9m3eSFs3wMlSTDwkaRZkj0r+BCejUACnrxehT0r7hyNHfYlDe5s7NC4YV8zZOiz0BE6UO8y7OEx9S57mBk43jleu9ngZn+yL9nX1L8Md3kPWKiNbrabgdchAQTvgYTf7Df2GfUv3wOtg7ePfZY9zfJvCs+xj6mD7HNOocvjIElamGxpSNIs4AM2H7Zp9NHYZuDD+Nq1a2vjML/V1p1jf7IPOTUpe6vQ2GFf07hc6Kc1sO0EPHl9DxqBNLLzgsM2tO8e+5AGd76uCX2og7m/2f8LfR8TgtHrhN497B96N2ZIa++yu5fBN++D1EHqG+9/J06cuNrLx9e5JC1ctjYkaYbxrT6NHL7lP3nyZG30ZSiRPXv8AD5zaDTS4CHIoDFJA4eQI3v6cDwWErafbWbbuaYH9ZD9QyiRp9HY0J45hD40unlts3/Z1709fQiAFpoMGwl6qIOE3/Tq4T2Q90KvXTZz+FtC/SNA4/2P/csXCgTe/P2hDrL/JUkLk4GPJM2w/CWabPDxYXzdunUf6VmhmcU+5tttfvGHfZyBB/t/oZ1a0xs45qmENAQ3btxo4DhL2J8ZOtLgZh9T73gP4L0gT61ZCNhOtjd727EPCHfYNwx5kWbNLPZxho4Z6vL6z9BxoQXfkqQOWx2SNANo5OTAh2saOdzSsMnrVeQpDDa2Zx77lUY2+zp7ENDozAY3ocdCaPBkY5tGHtfwoJcFdZCGYO81UzTz2M/Uu6yD1ElCH+of4eNCCX2ocxl2cYu8zgyhGPvJOjjzsqcP+zj3NceCukcdNPSRpIXJv7iSNANoyPFhmkYdH65pcOepXHzjSoOHD+OaPTQiOZWB3ix5LQtCDxqeC6XBTZ0j3KJnBdvO/qAOGvbcG4Q8BD70NMsGd74fLJSeZrnNnM7F9mYAQR2kPmp2sY/Z373Bd74PcmwkSQuLn/wkaQbQsCFU4GKtNO6yoc3gxUnvnQx9aFxm0EFDhwCERmj+clcTe1kR9HAKBxfHpZFHQ5t9kBcJ1+zLXhY0tPP0Lp4j/ODYZPDYxPqHPI2LgIFgi9cf1+3h1sD73sg6yD4neCSA5H2Pv0scmwweJUkLg4GPJN0FPlzzrWmexsUHahp0+Q0rH7b58N3UBl4/Yl/T4Cbo4BgQAtHIoRFK6NO0nj5sCw267EnCLb152H4afV436t6jDuapXQRvNLA5LtRB6iLvGU2pg2wH25PXjWKgPuZrkPdC6qPvgfcO+5p9nj8UwN8gjgnBI3+nFsoprpIkAx9Juit8aCbsyYY2H7Rp4NHY85o9c4eAgwYPx4GeFvRw4TjR4KGXBY2fJjS4qX+9p2zQkGPb2W7CHhrd9i6793jNZ08fjgPBB6EIx4iButiU0IdtyLCH90C2i9cb28x7oYH3vcf+ZuC1zzGgDvJ+SL3L4Jtj1pTQUZJ0fQY+knSHaGwTHBAgZCOOD9fZ0PFb7bmTjR1CN36OnACEYITjxKk1HKsmfMPNNmRjm4Yc2Nasg4Y9cytPL6SnBcEHx4rjxJCh43xudFN2tiPDVHovUeeog9mzR3OL90DeD6iHyNCHv1u8fxj6SFKzGfhI0h3Ihg6ncBEg8JgGNuECp3HY0Jl7vaEPvXxo9NDo5ho3HDeO33xGTwoabXltGLaXRnYGXGy7gePcYv/zXpDHhUY39e706dONCB3Zlgy8GQi42E4CrjyV0Do4tzgG/G3iPXDTpk31PZBjRUhMHWxKTzNJ0rW1Ht36VPs/fXVn7H1zT+zevbv+Qdi5c2ds3bq1O4kkqRff0tPIPn78eBw4cKA+RyMnGzoZ9tjQ6Q8cB45Z9u45efJkbagSimzYsCEefPDBeRXQZdhIcHXw4MH48MMPa5jFBVr5hbK8bpH1r39wzLInFmFPnlrIMXv44Yfr7Xw6XmwP5X3nnXdi//79dVuoexs3bqy3hD3Wv/7B8SJcpJfjiRMn6kAvH8Kexx57LLZt2+aXFJI0z+zbty927doVr7zySrz00kvxwgsvxIsvvhg7duzoTtFh4CNJt4nGdgYH77777tWLNPPtfX6rDRs8/YOGDceNb7Q5dhwj/t4R+PD3br79ilUGPh988EEd8gK5hFjcT9bB/pANbk554vop1EOeI+ghcFy3bl13yvkhAx/e/wh8CA94/+N9kN4kXrenv3C8ciD4zlMK6QW4ffv2uP/++w18JGmeMfCRpFlCwEOjjW/p6V1BI44Py4QGNnL6F40dgp88Xvy9ozcCjW4aqPMJdZDg6ujRo3Hs2LHacGOb7NnTvzgu1D+OHeEPdY76x2k21MX5JAOfQ4cO1fdA3g+pf2xTBt7qT9Q/6iH4m8XnfYLv+fYeKEkLnYGPJM2SDA74hpRTGWi80fixod3/8ltuGqU0dhjoETPfjh3bQP0jvKK3COW3oT0/cOzAMSMkof7Ntx5mifc/Bt4PDRvnh6x/4JjRI2s+vgdK0kJn4CNJkiRJktQwtxr4+HWgJEmSJElSwxj4SJIkSZIkNYyBjyRJkiRJUsMY+EiSJEmSJDWMgY8kSZIkSVLDGPhIkiRJkiQ1jIGPJEmSJElSwxj4SJIkSZIkNYyBjyRJkiRJUsMY+EiSJEmSJDWMgY8kSZIkSVLDGPhIkiRJkiQ1jIGPJEmSJElSwxj4SJIkSZIkNYyBjyRJkiRJUsMY+EiSJEmSJDWMgY8kSZIkSVLDGPhIkiRJkiQ1jIGPJEmSJElSwxj4SJIkSZIkNYyBjyRJkiRJUsMY+EiSJEmSJDWMgY8kSZIkSVLDGPhIkiRJkiQ1jIGPJEmSJElSwxj4SJIkSZIkNYyBjyRJkiRJUsMY+EiSJEmSJDWMgY8kSZIkSVLDGPhIkiRJkiQ1jIGPJEmSJElSwxj4SJIkSZIkNYyBjyRJkiRJUsMY+EiSJEmSJDWMgY8kSZIkSVLDGPhIkiRJkiQ1jIGPJEmSJElSwxj4SJIkSZIkNYyBjyRJkiRJUsMY+EiSJEmSJDWMgY8kSZIkSVLDGPhIkiRJkiQ1jIGPJEmSJElSwxj4SJIkSZIkNYyBjyRJkiRJUsMY+EiSJEmSJDWMgY8kSZIkSVLDGPhIkiRJkiQ1jIGPJEmSJElSwxj4SJIkSZIkNYyBjyRJkiRJUsMY+EiSJEmSJDWMgY8kSZIkSVLDGPhIkiRJkiQ1jIGPJEmSJElSwxj4SJIkSZIkNYyBjyRJkiRJUsMY+EiSJEmSJDWMgY8kSZIkSVLDGPhIkiRJkiQ1jIGPJEmSJElSwxj4SJIkSZIkNYyBjyRJkiRJUsMY+EiSJEmSJDWMgY8kSZIkSVLDGPhIkiRJkiQ1jIGPJEmSJElSwxj4SJIkSZIkNYyBjyRJkiRJUsMY+EiSJEmSJDWMgY8kSZIkSVLDGPhIkiRJkiQ1jIGPJEmSJElSwxj4SJIkSZIkNYyBjyRJkiRJUsMY+EiSJEmSJDWMgY8kSZIkSVLDGPhIkiRJkiQ1jIGPJEmSJElSwxj4SJIkSZIkNczg2pUb//z5rzwXJ04cj4MHD8bixYvjueeei5UrV3YnkaS51263u/ckSZL6W6vV6t6TpJl36tSpOHDgQOzfvz/27NkTTz/9dDz77LOxcePG7hQdrUe3PtX+T1/dGXvf3BO7d++OVatWxc6dO2Pr1q3dSSRpbk1MTMSVK1fqLcPU1FR3jCRJUv8YGhqKRYsW1S/RBwYGDH4kzYp9+/bFrl274pVXXomXXnopXnjhhXjxxRdjx44d3Sk6DHwk9b3Tp0/He++9F8ePH48zZ87E+Pi4H6AkSVLfoS21bdu2ePjhh2voMzg46GcWSTPOwEdSYxD2vP7663Hu3Ln6wYlBkiSpX9D7mFMslixZEtu3b6+nV6xYsSJGRkZqTx9JmkkGPpIa42c/+1l84xvfqB+YHnrooVizZk1MTk52x0qSJM0dPp/Q+3jv3r319pFHHonPfvazsXbt2li6dKmBj6QZZ+AjqTFee+21+NrXvlY/OP32b/92PPDAAzE2NtYdK0mSNHfoeTw6Ohrf/e53ay8f2lHPPPNMvXjqsmXL7JksacYZ+EhqDE7n+vu///vYsmVLfPnLX67nxRv4SJKkfkCgw49LfOtb34ojR47E+vXr4xOf+ISBj6RZY+AjqTEIfF5++eX6vvT888/7/iRJkvoKp3K9+uqrcejQoXrqOY0uAx9Js+VWA5+BCK8aL2n+8JcuJElSv+HziZ9RJPUbryAmaV5pt9vde5IkSf2Bzyd+RpHUbwx8JEmSJEmSGsbAR5IkSZIkqWEMfCRJkiRJkhrGwEeSJEmSJKlhDHwkSZIkSZIaxsBHkiRJkiSpYQx8JEmSJEmSGsbAR5IkSZIkqWEMfCRJkiRJkhpmoNW9I0mSJEmSpGawh48kSZIkSVLDGPhIkiRJkiQ1jIGPJEmSJElSwxj4SJIkSZIkNYyBjyRJkiRJUsMY+EiSJEmSJDWMgY8kSZIkSVLDGPhIkiRJkiQ1jIGPJEmSJElSwxj4SJIkSZIkNYyBjyRJkiRJUsMY+EiSJEmSJDWMgY8kSZIkSVLDGPhIkiRJkiQ1jIGPJEmSJElSwxj4SJIkSZIkNYyBjyRJkiRJUsMY+EiSJEmSJDWMgY8kSZIkSVLDGPhIkiRJkiQ1zEC7e0eSJEmSJEnNYA8fSZIkSZKkhjHwkSRJkiRJapiBVveOJOnG2u12HcbGxuL8+fNx5syZuHLlSly+fDnOnTsXZ8+ejQsXLtTxU1NTMTExEZcuXYoTJ07Ehx9+WIcjR47UaRnHsqbLdYyOjsapU6fi+PHj9fbixYt1mTnN+Ph4fY5xJ0+erOudnJy85jL7HfuC8rMdhw4dig8++CAOHjz4GwPPsw/Z7+yf+bitkiRJ0r1iDx9Jug2ELoQTR48erSEE4Q0BBEHO4cOHa2hByEMgQxBEYPP222/Hz372s/jJT34Se/bsqdPlNNcKLXiOdbz33nt13nfffbcuh2AElIGgibDnwIEDsX///loexjNuvgUhhDeEYu+88078/Oc/jzfeeCN+9KMf1dscfvzjH9fhpz/9aQ19CLsIuCRJkiRdm4GPJN0GQobTp0/XcOLNN9+82sOG4CWDmQyB6JFCQPG9730vvvOd78S3v/3t+O53v1uDC6ZlmgxxehHaMO4Xv/hFvPbaa/H666/Hvn37agjE9JSBwIPg6Je//GUNk1g/PYvmYwhCMEbPHsIe9hX76dVXX41vfvObdeA+z7EPd+/eXfc9+zh7PEmSJEn6TQY+knSLCFMIJwha6KlDjx0CnmPHjtWeOAyc1kVYQ6BDWPP1r389/umf/qkGPf/yL/9Sw4t/+Id/qAEGPXPo6dPbI4f7BBkESQRD3/rWt+r83//+92svIoIegh3CH3oYUQZ6w7AsesrM1x4+7MNf/epXdZvZ1l27dtWw55//+Z/rviIIIvhiW99///26/fbwkSRJkq5vcO3KjX/+/Fe+FCdOHK+Nh8WLF8dzzz0XK1eu7E4iSXOL3h/0cOF9afv27ff8/YmAhRCH06YIGwh76N3D41WrVtVbysc0a9eurb1wCIUIYXie99Vt27bFmjVrYmRkpIY2nM61adOm2LhxYyxdujQGBjr5ewY+9A4iJCJEIuhhfE47PDxcl0Gvnr1799beLozbsWNHXX6r1arL53nmpXwEU1x3iOUznlu2i95JTEeAwnju8xzbwnimJZAhyGIZDCwblCnLzXMsg3nZdtZJTyiWgcHBwboshumYJq/Js2zZsli0aFG9T7jGdm7YsCE+9rGPxWOPPVb3I7e5nwmKcl0ZnrEu9iHzsh2Mo2yMZzuoTzyf62R6toP7bAfzsVy2g+3tnTb3HY/ZXwRz3HKKHdMxD4/ZJqYjlGIalkM52CaWkeuknL37l/lZN8vI/czxZltze5iO9bE97G+OcZaRZQ8NDV1zP0uSZg/v53zZw/v3kiVL6t9l/qbxdzn/VkrSTOm9tANtk6effjqeffbZ+t7Ty8BHUt+b68CHsIAyvPXWWzVgIezh/ZJGOh/iuKYM19uhMb9+/fraOKdRzhsxjfJPfOIT8bu/+7vx4IMP1sCGcXwgfOCBB+K+++6r20MAAEICPjSyzB/84Af1jZzl8PyKFStqwMQHSMIApsmePffff3988pOfvBoOEAAQGlFWQiPKSzjQGwgQIDA/gQnX0KFcDGwLIQKhAgiBWBbTshzWR3n5EMv6wPawj5iX/cS0BBcEH0xLiJNh1HSMZ5u2bNlSjy/7kOWyHrbzU5/6VHzpS1+Kf/Nv/k08+eST9Q8Z28j6OB7sI7aB7QH7mPnYJspLSMd99gnbxTxMz/JzevYJ4QzbwTh6G+VxZp9kUEO5OBasi3CG7c3jyWO2nWCHZbM8bmkAsD8oL9OxLxhYJ+Xk+LJ/qeOsl/LmMpiG486xyO1hOpbD9jAt87Cvc3r+jrNPDX0k6d4x8JF0Lxn4SGqMuQ58aFhz3RhOn+J6OdynkU+jn0CH8tHg5sPeunXr6vsowQBBAo9/67d+K5555pnacM8AgA+Ejz76aDz00EOxevXq2lBHBj4s84c//GFdbgYvYFpCH6ZjHIEDoQHhEcESjXzCAkKeLC+BAH8Qclmsi4Egh/HsW/5YsKwMiZg+e8bwHEEG1wti2wm6WE/2NiLU4e8H1yviOjxMx/rZBvYR28OHX7afD73TgwjKwodieu3Q64nlsl9ZP/N/5jOfid/7vd+rwc/mzZvr8aDMlJ0hwxT+8LF97CPKRLkJd9gPbBuBDNvFtZEoL9vPfmR/8oGcdTEd28GFovnjyfTMx7IJcJYvX17Lz7xsI8eI9TMNtyyb/UzZ2U+ENOwTlsX0hEnshwyZ2M68DhPTse8zRGLfs7/YJ0xHmZmW09tYDuEVy2QbGUedyn2ZdVCSdG8Y+Ei6lwx8JDXGXAc+9IyhYU2jnMY15aExTtBCSEAAQZDD+ycBDyEOp1d9/OMfj8cff7z27KHHBQ10AhMa9Hz4e+qpp2roQ+DAePQGPlyvhvXwwZGGPPcJCxgIHQgUeKOnHJzqROBDOVg+1w/iIsfcpycQgQTr55ZlEThQdgIL1kPYQNkIK9hWPrTSe4Tl8zzPMfCY51kn28oHWcIP5ue6O9zyt4Tys172HR9+CUrowcO6b9b7hDKwDgYCE/bfI488Uk+JY5vp+ZQXv6Y8rIvt4pbpCYUIZ5ifsIfrJhGkMA0DQVDOx3bQo4hjR1kJel555ZUarPTuM6Znf/FHlN45bBPb+o1vfONqgMTAfmO78zEDYRn1l7rDPiTYYn+w79gerlPE9YkI5vJYUUZCH+oDdYjAh+PAcX355ZfrtuV0zMNy2Xb2LctmX1FvbrSfJUkzx8BH0r10q4GP7z6SdBMELA8//HB8+tOfrreENNz/7d/+7frmStDCY3rxfOELX6hBTp6uxcCHPRrvGZrwoZDnafjzofBaHwRp6IN1c7rW1q1ba0hDzxHCA97gCStYVi8e07ODMIaQhPI98cQT9To42SuIshDScJoSQQK9YSgjZebUs89+9rN1nYQF/DEhPOB0MbaP8CGvnUNYQY8awhXKRhkJudgfhF6EKIQkTMtyWM/08t4qyp4D6yLUYV2f//zn67rYj2wLPV8I4Fgv20f5eJ4P3ewHtu8P//AP6zGkPBnosC0sm7AkT4+jZxFhE8tmPNOy31gm8+ZAedjX7DcGAiSmYf3sO+oD+479QyDHMnL/c+zpkcQ2sE4G5mefEuCwTrYl18X8zEdIyPZTBznVjfrEePY1QRbbnPtLkiRJC5OBjyTdBMEFaTkhAb1UaFwT/HDxYG4JBWiwc58eSDTsacQTFNCjhbCDoIceHDTGCR8ICAhhmCZ790xH4EKYwCk9LJ8ggpAn03xCAxr5vSEKDXwCHwIBApwsI+vieYIABgIJghvmJexh+wgmvvzlL9fTpwhHWAbj2T5OS/ud3/mdGiBRfkIHwgfKQzjBdrBvcr+wbsIT5s/wJdd3pyEE8zE/x4PtYV2Umf1NMAa2LctGuQhU2D723ec+97m6fX/6p39ag5UMpPLUNZbPtrEdbAP7gPnYDraTaVh2Bm0cH3r7MD2nmxG8sI8y7GKfUEZCKYIZwjKep1wZGlE+eqyxDXlharaNOsG6OMZsC/sOPM86WQfL/bf/9t/WbWK+3B7qG8s37JEkSVrYDHwk6SZo4NPDg94jNKY59YeeFHnKD8/zOJ+jOzeBAI10eptwKg+n7BDUgBCAU74ICmik3whhBYEAAQo9OgiA6KHD6T2czkMgkGEADXzuE3pQXsrJ+gkqMuBhW7jN4IWBZRIyECKwDsIDAgh6pzAuAxACCcIfnmN+gguWxbLZZvYN4Un2Xsl1MTDt3QYQrDODF9bD+tg+tpfwJNfFkNtH4EZgQ48gArvsgcQpcDwPAhW2gYHAhH3HcrnNZbPe3J7cFsKX3HcEeARE7CPCM54nhGI9PEcQSFDI8wRFLIflsk7WxbFiezLgYVzeMi3rYz7qQ4ZSLJft6Q2mmI59TxmZXpIkSQuXgY8k3QQNca4F81//63+N3bt314vm/tM//VP89V//dXzta1+Lf/zHf6zXcuHaL1//+tfrdWBowBNKEMww/fe///0aIBD2cNoPPWXouXO9C+tmOJKNfAILTjGiYU8AkNeGIfwhGADzEFBwTReub0N5vvWtb9Vr9BA2ZRCF3jCAHiOEEwQJhBjZi4THhE2EFJSBIa/BwwDWzf6hLFxXh/WxvYRc7AMCjQwr7gbLIMRg++gtxf5k+9jvrIv9kOtKrJNyEoSwLZQ/y812ELbxHNMRrLAdnC73r//6r3XZXJMol537GLkt9M5hP7EcBu6zXI4pj1kv+4/7uc8Yxy3lZJmctsWx+va3vx3f/OY367q5Pg91hTL17jtuWT7bwjHJ9fE89+lRxPZc6xRBSZIkLTx+KpSkm6BRTSBCTw6uu5O9RThFh2vl0NuCnwsnxKEnDKdCEa5wChfhB71+CHcIen7/93+/9u6h9wxBwK00zmnQEx7Q64bAiNCHIIBwgvyrS50AAHFjSURBVF5FBB0gzKG3EYEPvUYIBr74xS/GH/3RH109TSt7mEwPRnoHytR723u/F8ugtw2nlxFSMJ5eJ1/5ylfqaVO9oVYGTXeC5TI/6yLoYhsJveiRxLq4Jg+na7F/MgDpxeMceh8nls3+4jhxy7Zyqtjzzz9fT5ni+kwcZ/TOBx4T4PTun1w+zzFu+vPgmHHs2B7qCvWK+vHHf/zH9TpD7MfrXZw8l9O7vN77kiRJEgx8JOkm6D1BiEOwQ4DBaU2cSkNww2k6BA+EAoQOPEdDncY8V8yndw2nXiF7yHDaTl4oOHtxXE/28KAM+QtgnD7ENYJYDj1eONWI6Rg4JYkAged5zHSUmYGQKXsU5fQMuF5gcKMggXkpPz2ZCEoIYQixOKWJUIzyEjoRfBCq9K7vVuX0zE+PGLaZ7WO9bAsXOGZdhHGEcqwr15Pz3mydjGfZBErsN9ZFuVkm28J2sF05bW7LtUzfV/m493nmZV/1XqOHYChDRY4Vx41jDtbXu87pt+l6ZZIkSdLCZOAjSTdBsEBjnIY/DfK8wC49ZggbCGG4aC+/xERPH6bnFCp+xp2f7Oa0Lob8ye+//du/raeEcboQoQ+nKl0LDfhsxBMI0Dsnr+VDTx8e9wYcyB4uhAicikQZ+PlweuAQlOT1ZwgQ8v50+VzvcnGt51k/28tjQh96+/BT74RdeUoX67nR+q6ldx2962L7WBZBCT9/y7WR+Ml1ev0Q1oD1EKhkSNI79Op9jv3LwDzsJ3pPcby4ZT9mMMeyp29H73JS73Mcj3zc+1yuk7JSfvYZ68xePzwPbnvX2bucdK1x06eRJEnSwmLgI0k3QaBBuEIPGXpfcCFeetkwZA8fgh5OA6L3D8EEvXoIfbguDL19CHcIe/7Lf/kv8Z//83+Ov/mbv6lhDOOzYd+LZdCrhCGvPcPA+gma+JUpTivjMad7EYQwnp4hlJN5CFz++Z//Of7hH/6h9jQiuGA6tid7nDAdPUmy91EGEdznedafz2fgwvMMuV/YB/S0IXAhXOLaRgRaBBcEPkzHfLca+LAupqdMXJcm5+c+66G3Fb2a2Kd/+Zd/Gd/5znfq6XP00GEayglucxncsl0sO5ef+5dtoVdW9kgiLCO0yms2ESxxjFgO87IN3LLMnJ/l8RzrpLz5PI95nnXn81kmjhXbw30u/s01g/7u7/6u1guOHfMxLvdb7hP2ee/25DrzuDAu94EkSZIWrsG1Kzf++fNf+VKcOHG8fjjnw+hzzz133WsHSNK9xk+Z09OC9yV+7ehevz/R4KbBT+OacIVTuxgIHmho0+uGoIdy0QjPX6jiMdfbIQzil6G4zYHHnP5FbyGWyXy96FFCbxPGE+ywfMIB1pcBAvMRNtHjh7CJXj+8hxNaECYQxLAueh7xE96cdpY9hFgewRCBAtvCY4IsAiS2Fyw/AyZ6NhE4ECSwbqZnOfRwyhCGwITjw3axPgauaUS56BHFullfbsP1sO/AtJxSxXrYzrzuEfOzTpbLOH7ynOvfcJ/1c8t4yk+5uM/1lgjoWAbbwDEiGMlf0eKW6ThmuWyO0Re+8IW6//KaTSybfcGymZ9bpmXIZYP18lzWV/YdoQ3T5/ZwfFgWy+E+03LdI67zxPFkfex79mGuj7CHY0vZWAY9zzge1BfWw3awXm7zFDdJ0uzjbzZfENBDM/9+8ffYEF7SbOBLY75cpnc9vcT5DPnss8/W955ere1bd7T/4qv/S+x9c0/9JpMPqTt37qyNDEnqB5y28/LLL9f3JS6ke6/fnwgg6D3C6Vfc0sDmwxy3/MoS9wlGaGDTsOc5evjQS4NTjwhQMuDIwITGOduRHwh5DoQCDLyJ88GReWnsE0IQqDAdPVBYNuvgmj0EIKyfRj4fOCknvYo4TYjHzJ/hFGVjfTxmWVx/h3UQpHDhYJbDMpkury9DOQkzCL34IJsXaCYoYju4T3m4WDRBCtvI8+wPevgQRrA+pmdf8eH3RoEP+5jlMbA+9hHBEsvkWLAeto3yUSbKTPkZx/rYV2wrj+l1xDIyAKMcrJtlcB0l9jXbnWEN+yN/Wp9jyTjKnKfesS72J9NmOQlh8viz/fSk4vQ2ysS+y7JRZnrysEzKw/SUhT/U7G/Kzr4hGGOfsSzKQLm5ZTzlYFr2JfuEdVMu6gLr5JhSPsbn8iVJs4/3+VdffbV+ScXfFL78mP43XpJmCl+G0zucMwheeumleOGFF+LFF1+s7z29DHwk9b25DnwITfggRyM8wxs+vHGbF9wlFMieKzTMCU0YRyBBqNCLabK3RvZY6W2YMz3zEihwn8Y+0+UpQpSH8YQZlIt5GU9Dn/s8R1jAwLSsi/GUk3KxDNbJLcvJdTAd20GZ2QaWw/x5ChH3GccykOENy83yMp4y5OlFLIOB9TE967nZB99cP8tkXubL/Qu2m23L48F2s1zuMz1lyv3U+xzbkfuaZTAgy8o8LJPnueVxlpmysCym4zHLoJw8z+OcjmkoO/PzmHWyvZSF51k2y6A8WU7CJbaH5TEtwRbTU25w7Jgut4XlsFzWyfQcP44J66RcbGNuqyTp3uD92cBH0r1i4COpMeY68JEkSboRAx9J99KtBj6eUCpJkiRJktQwBj6SJEmSJEkNY+AjSZIkSZLUMAY+kiRJkiRJDWPgI0mSJEmS1DAGPpIkSZIkSQ1j4CNJkiRJktQwBj6SJEmSJEkNY+AjSZIkSZLUMAY+kiRJkiRJDWPgI0mSJEmS1DAGPpIkSZIkSQ1j4CNJkiRJktQwBj6SJEmSJEkNY+AjSZIkSZLUMAY+kiRJkiRJDWPgI0mSJEmS1DAGPpIkSZIkSQ1j4CNJkiRJktQwBj6SdIva7fZHhl7Tx00fbsXtTjs1NXV16J0vl3Oj8dPH3Wx8r97xNxo3fTz3p887ffxMzts7XpIkSVpoDHwk6SYIDiYnJ2N0dDROnz4dZ86cicuXL18NFsbGxuLChQtx7ty5+jzDxYsX4/z58/W5S5cuxfj4eJ1+ut5lMx3zTkxMdMdeG+NZ/vHjx+PQoUNx5MiRWiaez2XxmOcZf/LkybrsDEO4z3OHDx+uA9OyDcxPOdnGHHfixIlaJpaby855WT73mTfLxX44evRoXS/zUs4s15UrV+r0zMc0uV7GsV6mPXbsWB3HdCwry0QZKNeHH35Ypzl79mwtS+4/ton1ffDBB1eXneMlSZKkhWhw7cqNf/78V75UPigfj4MHD8bixYvjueeei5UrV3YnkaS5RXiwb9+++r60ffv2e/7+REhC4ECIQDkIIwYHB2PZsmUxMDBQn89whICCoIcwhsdMS2DB9ENDQ/V2ugxoCDIIPYaHh+t78fUQnBBs/PjHP46f/exnceDAgVrGDRs21IDj1KlT8dZbb8WPfvSjekvoNDIyEitWrKjzMz3z/fznP4+33367zrNkyZJaPsrCOObdv39/XRbj2FZQzp/85Cd1eP/99+u2rl27NpYuXVpDl3fffTdee+21+OUvf1nnZf8sX768bjePf/rTn9Z5KT/7hfkYR/BDmPP9738/3nnnnTotmJd9yn5kW3bv3l33K/OyTYynzNQRyv29732v7nvmWbRoUR3farXqsiRJmi38HeZvIH8X+bu5cePG+reTv1X8LZSkmcRnZT7T83l9z5498fTTT8ezzz5b33t6+e4jSTfBhzhCBXqY7N27t4YZvMHymGCBnigEPgQWhCuENvRAIXgg2OCWaXIgNCHA4JYPhgQ4BB7Mx8BjAo3sddPbS4XnmIdwiJCe9dKjhYGeM6yLcdm7h4FxGUBxy+MsL0OOZz6mzx443Kf8lJXt4g8LzzPk8rnlefZFzseyuM+yuc84brP3DfeZl/Izjv3A84ynjNxnXqZhvTzHfZ5jXblulkPIlMvjee6zXB5zDNiP9vKRJEnSQmQPH0l9j8b7XPbw4ZQhevgQfNBDhQCCXil8g0dZCBYoI9OsX7++vo8SEhHcEGhkTxTCB8IN3msZ8rSk7P1DuMN9piekINwB3wwy8FwGIAzMy/ro2cM8LI/xhEqUmfLR+4YyMj9hEtvALY/55nHVqlW1bJQ3gxfGMQ/j6W1EzyDKxjqZn7IynvmYhsdsJ4EMZV6zZk2sXr26zksZKHcGQExPmRlHGVk2+4kAijBn06ZNV8vLfMxPEMXA40cffbTOS3nZV+zr9957r5aL+9u2bavTsT9YNgPTszxJkmaLPXwk3Uv28JGkGcQHOQIKBoIWwhXeaAlXCHoYsqcO46c/R9jDfT4IEk4QcHBKFANhSc7DNNwnYGFgfb0YzzpZHqdDEfYQ6hByEDoR2LAOwhCeJ1zh1CZ6wjCO4ITl82F03bp1NZwBYQ/jCHUIcBjH/MzLOikz87Pd+UGW8XyQpfxsB6EO5aJMW7ZsqR90ecy8hD0sm+UxL4EQ28a2sB/pmUMQRXl618uymY/y8YH5gQceqEFTzkt5WD77jvUxnv3CvmObGTh2kiRJ0kJj4CNJt4gQhQCFUIL7hAmEK9wSbDBwP8MRggyeI4zJsCh7pnBLwELvFMIfAg9CEZ4jICJ0Ybrp3wqyPMazTIINwg/CEQIOwhF6+BDoMD/jmIZr2BCIMI7yMS/zZA8dykJ4wrbkunmeeekdQ/CSvYdYNvPSM4jeM5SR9bK9jGcbmY/xBEOUl/3ANCynd9m5D1l2hlgsm/mYjsfZY4lyMT3zZu+g3P9sG9tA+MQ2MS/jWR/TsG8kSZKkhcbAR5JuAaEJ4QuBA71TOO0oT6NiyBCG294ggudAIME4QggGerPQc4VeMYQhPCbcYB7WxelJDL2nI7EslkOYAYKNDIVy+QyMZxnMy3jwXI5jOczDOJaB7FHEcpg3xzFdzksAw32eY9nZTZ0QiG1mGuZnPsZxm+VimixXLptb1pnLznWzTAb0jgPzMA3bwPKmz8d4bnM8y89jIEmSJC0kBj6SdIsyaKAXSp7yRLBDDxZCnGsFD4nwgTCHaekBxG32uMkeKExPEEKYwjoYuM8yE9NkOZiP5XKf55mW+RlPWTKgAeVhPNP1hiHcMn0GMOgdx7Q8n+OZNsczML43/EGOowzTy5XzZoDD89PXnetl3t715jb1jmPIbZo+nvlyXkmSJGmhMfCRpFtEkMCQpw5xShNhAqFNnnpE6MBzTJe4TxBBOMS1aMC89OAhkGA88+Xyr4flEnCwfmRPIm4JOPI0K4IiQhXG0XOIACXLnKd4EVDlaVysk9Oo6L2U8+Y4euYQ2LDcXDbz0iuJnk1sF89zqltebJn5CLSyXDxPryi2l+lz2dxneXlqGdvGspmPnj3Mm+MoA9vBfqZMYF7GsdzcJsYzL4/ZZqbJMEmSJElaSAZKU6R7V5J0I4QIhBCEDwQnGdoQ1hBiZODDNIQM3DIwHyEK4QtBByEEFzUmJMlrziCnzZ4qBBfM1xsCMW9e/4ZlEbywXuZlefQ8YjzzES4RynCf5/IizZSfcITxGUARyjCeW6bPU9WYjnXSm4nxlJfnOB2NUIfwhee5WDIXa2ZbKBPXIqJ8rIvxmzdvrstmmzIsIsAhsGHZDIRObEuGOiyLoIiB6dgveYFmtp9tIuRiuYQ7lIvx3DI+Qyz2jSRJkrTQ+ClYkm6CEIbwgXAnA4jseULIwU+Jc0uYwvMMBBH5i1MEQ4QTBBAMGRwxjuCHaVk2wQXTEWwQDtHTheCDx4n5sycPyyDcYBrme+ihh2Lr1q01YMlQh4CFslOW+++/vw6shxCJ4ITxrJvy53jCEtbPclkO0+cvb3HLvAQzGcoQNLHu/AUtxhHosJ2Uk1/l4ufSWTYy7GE72Jcs87777qvlZl62O4MiBtbLPibU4eLQBFLZq4j5Gc/2sZ/yV8YoMwP7i+2RJEmSFhoDH0m6CYIVwgYCBEILAoYME+i58sQTT8TTTz8dTz75ZA03CCKYjpCDgWkILgg1CGRYFkELgc/DDz9cl5fhD9MRUBDGEKj09vAhQMnQiXUwZJDE/Bm6EI4wDeMIpQhWMtBh/dyn/IwnoGFays14ysNjAhfmzZ9fz+CFgefp9UPoQtCS49hWlk3gwvgsI+NZL+XLHjeUiekZx8C62T9sI/uH+ZiH5bP/uE852Ccsg+fYTsrAvAxsC/sry8N2UA57+EiSJGkhGly7cuOfP/+V5+LEieNx8ODB2ph47rnnamNAkvrBoUOHYt++ffV9afv27XPy/kRokEEGIQMD9wlneJ4QgnAigxYGpqGshBs85v2V6XiOUCJ7BjEPzzMwT05L8ME6CF8ytOCWUIT1Mg3rzGAlgxrKw7wEICyfgelYbi6LeTMIohzcz3WybMrBOAIfysq8LDcHtoFxGQhlsMI47jNPBl2Ug+X2zpvL5n5uI0POy3iWy7y94zLsYTxl5rk8BtxneYQ97A/us172lyRJs4lepu+++249nZkvYvgbx98s/g7l33BJmilcWuHAgQOxf//+2LNnT/3y+dlnn63vPb1a27c+1f6Lr+6MvW/uid27d9cP0Dt37qzfpkpSP3j99dfj5Zdfru9Lzz///Jy8P9HLhg9znIpEgMCHt/wAx3MMIHxA72lYTMc8PEcPlJyW55k+l9PbkydDilxXPgbTsRyu88N9xhF4EIqA9TCOaRiXgUiWjed7y5GBSq4jexaBeRjXu130Tsr9kOuljJSF9Wa5cr0MTMs8OS/T944D62Q8ppeZeRjPsnuXm+tlfG4z47PMuW8lSZpN/A169dVX65dUfMmyY8eOq6FP/i2TpJnCl+G7du2KV155JV566aV44YUX4sUXX6zvPb38JCxJtyCDE76pyzCB5zL0oHcJQwYRTJcDjzOE4Fs/eq0w0GuGeXieIafnfi4n19OLx0zD/HyQ5Jb5sjzMQ28d1sF47rOsHD+9HJQhQyWGnJeB6XrnZdk5L8vOebNclIPnc17WxfPonTfL3LtepmXea5WZ+zyXPaByXuR4lp3jWZZhjyRJkhYyPw1LkiRJkiQ1jIGPJEmSJElSwxj4SJIkSZIkNcxAxEevDSFJkiRJkqT5zR4+kiRJkiRJDWPgI0mSJEmS1DAGPpIkSZIkSQ1j4CNJkiRJktQwBj6SJEmSJEkNY+AjSZIkSZLUMAY+kiRJkiRJDWPgI0mSJEmS1DAGPpIkSZIkSQ1j4CNJkiRJktQwBj6SJEmSJEkNY+AjSZIkSZLUMAY+kiRJkiRJDWPgI0mSJEmS1DAGPpIkSZIkSQ1j4CNJkiRJktQwBj6SJEmSJEkNY+AjSXeg3W7H1NRUHSYnJ+uQjxnHcLduZzk57d2s93rz81zvdk4f7madkiRJkmaHgY8k3SZCjsuXL8eZM2fiww8/jPfeey8OHDgQBw8ejGPHjsXFixdrQHKnCFDGx8fjwoULcenSpXr/emEM6xkbG6vTnT9/vt6/3XWz3ImJibhy5UqcO3eublsGOTxPOY4fP163le3sHQ4fPlzXSxnvZpslSZIkzSwDH0m6TYQbhD0ffPBB/OpXv6rD/v37a/DDLSEIIQlhyZ0gaCE0ImA5evRovc9zrVarO8Wv9YY1uU6eu10EPKOjo3UZ3BLesBxuWT+BD4HW22+/HXv27KnDO++885FtvZP1SpIkSZodBj6SdJsIVwhA3n333XjzzTdryEM4c+jQoRqC8Dw9fQhCCFJAcJIDwUjv0DuO4IR5zp49W8MVetEQLhEyZa+b3vl4LgMfevnQw4fnepfJ0DtfzpsD0zNkT6HsJZTTEQDRi+fEiRM19PnFL35RB+6fOnWq9gjK8uUyb7S+HI9rjc/nrjXuWsONpr/RuBwvSZIkNZGBjyTdJgIRgg56+DCcPHmyhh4ZBBH80POFaQhLCFEIbZiOgdOmmJZ5CIVOnz5d52N6gpU8XYzwiMCHeZiO+RjPfQIh5uM5HjPkuJyW8czLsnK5lIVxrIsAh1umz3FMR9l6w5AMStgW1kuZCHtYDvuC6Zmvd5k8ZnqWy3SUIcvDLesiqGJ+ehDlPmB+1sF8LJf7zJvzs+zexyyPaQmcesuR62HdjKMsud2M45Zls26CqgyEJEmSpKZobd+6o/0XX/1fYu+be2L37t2xatWq2LlzZ2zdurU7iSTNrddffz1efvnl+r70/PPPz/n7E8HE3r17a88egouNGzfGtm3bYsmSJVeDGMKMdevW1eeZnt46hBEDAwPx0EMPxX333Xf11LAMdVasWFGX9cgjj9Qg4l/+5V9i8eLFdfqVK1fWZY+MjMTg4GBdL6EFzzMNgQzL4zHBBeEG5WA63te3bNkS69evr9MdOXLk6qliLIv1sV7CF8IqHrPO5cuX19PICFQySGH8G2+8EcPDw/GJT3wiNmzYUOejRxPLJXRhHPMzMB/rYjtZDtOy3CeeeKKuh2UyH/uAZbB9999/fzz44IOxaNGiGnoRSDFf9iDiecrN9vL85z73ubptbDPLobdVrmfz5s2xY8eOWo59+/bVII5xlHH16tX1+FAW9hHH5lqnzUmSdDP8TXr11Vfr38k1a9bUvz38bV22bFn9myVJM4nPtbt27YpXXnklXnrppXjhhRfixRdfrO89vQbXrtz4589/5Utx4kTn+gw0HJ577rnaaJCkfsCHJ97UeF/avn37nL8/EaIQphCYEPIQ3hBQ8MFu6dKl9fnseUJAQdl/8pOf1ICIcIMPhQRCLIPHhEcEFYQNzL927doaSjAf62IZDMzDvDxHiESQQnDBfNmDhfHcZm+Z7K1DWMJ9xnGtIYIU5ifkIPggRGG5lIfwg7AqgxVCGO5zS5hEuQmnHnvssTod5WJZbB9/R1gG83Gc8jQwgh3KyC3lIIxhPewj9hXzci0kAhnKy35lW375y1/WMrM/CH6oC7kfCJFYV+53lks52G/0vGJdTEfYRZnfeuut+jz7i2lZN/uPsIj1UWYDH0nSneBvF6d08wUDf1My7OFvJ39rJWkm8TmX9gOfobm25tNPPx3PPvtsfe/p5buPJN0hwgE+xA0NDdXggA91fMjjcQYSedoXvVd4zAdBQo3s0ZK9VzIgYWA5zM+0GezwmJ5N9KghmGd9hC6EQ3yTyHMsh4EPnSyD5wllCDwIaghWWB9hBwEQ09ADhuCF9fMcYQrzM+Q2MjCegW3jNreb9VIOQiMGlkmQkqeJMVB2totQjLJwn+Vn4EL4w7yENoROBDyEZtxnYDw9cdh+1sl2sZzcF1le7hNAsSzK2Bu8ETaxfXz4fvLJJ+Phhx+u62M+9hnb7SldkiRJahIDH0m6C4QEORAeZHDAQJBAzxIClgwjNm3aVO8TgoCAiOCC4IXghECDYIJ5CSkIPAguCF2Yl7CDoILggrCHZfIcy2GdYBmMJ+H/2Mc+VnsgZRBDEMJ66NWSPVtYdm/Yk8uZLrcrx3PL9GwLy2d9LJPy5TIZWCfl5BQvQhvKzXNsG2UiPOI5TuXKru9ZHtbBOMIiQh/CH/YX02Z4xLqYlnkIkNhPDGwbZWOgnOwXwiACH04n6w26GHK7JEmSpCYw8JGkO0TQQIhA2EHQQKiQp3oRYvA8oQPhwh/8wR/En/3Zn8V/+A//If7kT/4kvvCFL9Sul5/85CfjS1/6UjzzzDO1N8rPf/7zemoTvVwy1CGgAdfwISRhPQQVrJP1s67esIJxnIJF8EK4lNNw/4EHHojPfvaz8Vu/9Vs1ZPre975Xr5HEaVf0KGI5bNetoBx0J2V+TqOinPSc4bQ7QplcL+Vh4DED98E2Mi/bzDoJYh599NEaHFFWnmMfMrA9OTAuTzFjeZSDfcepcVxfiH321FNP1WURhrGfwPKml4PySZIkSU3kJ11Juk2EIvQo4bQlTs0isCC4+OEPf1jPoeV5ggZ6odDThOCGeejNkmEQPVMIgwgd6AFEmJOnMrFsAgnGE14QzBBycCoY18TJ0CeDmek9U+gZRPD0/vvv1/JwShm9XCgHIQnTswzWSWDDOunhcrOgp3d83s9eTFxbh/Vw2hrjcj3g8fRlsw/YBtZNGTi9jVvmYZ8wfd7PxwwZ0kwf2D62p3cfgXKgtyx5m4MkSZLURAY+knSbCBgICgg7CDoIfH7wgx/Ej370o3pBZIIMTqOiZ09edyYvzszFm/kVKUIZBkIeLvJIOENPFHrG0MOFwIjTjwiM6JXDfYIkggzCC6allwu3eT8DJJbLtX+4iBsXPSYEobwsk7IxjnCGoIZ1UVZOxeIUJ0Ihlpfb2IvHGURlzyGmpWyMY1+wnRlYMRC4MH2WNcvJ/PRAYntZJ2ENvYzYp6w7l800vdvJ4+zZwy2PWR63LIf7BD5c94hl8TiXl9Oxj3icPYW4T/mnb68kSZI0nw2uXbnhz5//ynPlA7K/0iWpP/Xbr3QRaBCq5PVhCCIyTOC0JkIerjdD7xyeI3igdw+BAiEFIQcBC/d5LnujEO4wHwFPnsZFIENPIR6zLtbD9vOYgXXwXIYWhBv0GCIcooxMy/oIdVg+5clys36e59QnrofD9XFYTgZOjGd5iaCJwIh5CYdYLoFJ9p5hXsrEelheLoPysb08Jmzh7wzzM23uO+blPtf6oUcTy87xPGZe7rPvWT7bldvMY8IeHjNk+EMQxbZQFuZlHM+xP5mPgXWwbOZhfO/2SpJ0q/j76K90SbpXbvVXulrbtz7V/ouv7oy9b+6J3bt31w/hO3furA0WSeoHnC718ssv1/el559/fs7fnzj9idAje+nwIS/DFgZCEAbuE4bkdHnaFB/+CCC4z7w5LnueMB48zzKYFgRHyLCCgXm4ZT0ER1z/hx5E9BxiWbz5Z9DDYxCaUH7WyfJZX+841sfAuF6UlXmyHFlOHjMwL2VhWQyUjXkoG/fzMQPLZlrmYZnc5vO5H3J8hjW5L3uXzXbkvmRaypEBFMti4FgwbZaPwKn3cS6P+wySJN0u/h69+uqr9UsqvkjYsWPH1dCHvzGSNJP4MnzXrl3xyiuvxEsvvRQvvPBCvPjii/W9p5dxsyTdJj64ZS8VPszRA4VQhV4p9FChpwwhRAYXfNijJ0727KF3Ct/+sQyCGD4YZg8YepxkYMR0LCsfM46B51gm8/I8wQu3zE95CMQ4nezxxx+vv27Fc8zD+hi4n+ukXNPHsazpYQ94ju1i3Qzcz8csL7ePXjQsh21kXN6nnLnN3LIexrOdlCPLk6eWMV3uK9bD/Gx/77J43LssysEyGCgH8zOOeXLfcUyYn+Xnstk2wx5JkiQ1iYGPJDUEvVYIOQh8CHo4XYswg+clSZIkLSwGPpLUEPRSodcKoU/2GCLwseeKJEmStPAY+EhSg3CqEqcp5ZDXppEkSZK0sBj4SFKD5IWH85o0hj2SJEnSwmTgI0mSJEmS1DAGPpIkSZIkSQ1j4CNJkiRJktQwBj6SJEmSJEkNY+AjSZIkSZLUMAY+kiRJkiRJDWPgI0mSJEmS1DAGPpIkSZIkSQ1j4CNJkiRJktQwBj6SJEmSJEkNY+AjaV5ptVrde5IkSf2Bzyf5GcXPKpL6hYGPpHmj98OUJElSv+j9jNJut+utJM211vatT7X/4qs7Y++be2L37t2xatWq2LlzZ2zdurU7iSTNrddffz2+9rWvxYoVK+Jzn/tc3H///TE+Pt4dK0mSNHcGBgZibGwsvv/978eZM2di27Zt8fnPfz42bNgQy5Yti8HBwe6UkjQz9u3bF7t27YpXXnklXnrppXjhhRfixRdfjB07dnSn6DDwkdT33njjjfjbv/3bOH36dCxfvjwWL17st2eSJKkv0LNncnIyDhw4UD+jPPPMM/GHf/iHsW7duli6dKmBj6QZZ+AjqTHee++9eO2112rgQ9DDN2mSJEn9gMBnamoqzp49WwOexx9/PD71qU/VL6kWLVrk5xZJM87AR1JjXLp0qYY9o6Oj9QOVJElSvyDw4QupiYmJGB4erqegr169uvbsIezJa/tI0kwx8JEkSZIkSWqYWw187F8oSZIkSZLUMAY+kiRJkiRJDWPgI0mSJEmS1DAGPpIkSZIkSQ1j4CNJkiRJktQwBj6SJEmSJEkN48+yS+p7U1NTMTk5WW/b7Xb3WUmSpP7SarVicHCwDvlYkmbarf4su4GPpL43NjYWly5ditHR0RgfH6/BjyRJUr8ZHh6OpUuXxrJly2JgYKAOkjTTDHwkNca5c+fi0KFDcf78+Rr6EPj4jZkkSeon9EZevHhxbNiwIbZs2RIjIyO1p4+fWSTNNAMfSY3BG9p3v/vdGvjwrdmiRYs8tUuSJPUFAh3CnqNHj9YePo899lg888wztV1FAGQvH0kzzcBHUmO88cYb8fWvf7327HnwwQdjzZo19YOVJEnSXCPQ4ZTzPXv2xMTERDzxxBPxxS9+MdavX1+/qMrr+UjSTDHwkdQYr732Wnzta1+LlStXxhe+8IW4//7763V9JEmS5hqBDqec/+u//mucOXMmtm3bFp/73Odi48aN9Vo+Bj6SZpqBj6TGeP311+Pll1+OBx54IP74j/+4nhcvSZLUL+iF/M1vfjM+/PDD2hP5qaeeMvCRNGtuNfDxhFJJ8wbX7fEXuiRJUr/h8wmfU3KQpH5g4CNpXvFDlCRJ6jcGPZL6kYGPJEmSJElSwxj4SJIkSZIkNYyBjyRJkiRJUsMY+EiSJEmSJDWMgY8kSZIkSVLDGPhIkiRJkiQ1jIGPJEmSJElSwxj4SJIkSZIkNYyBjyRJkiRJUsMY+EiSJEmSJDWMgY8kSZIkSVLDGPhIkiRJkiQ1jIGPJEmSJElSwxj4SJIkSZIkNYyBjyRJkiRJUsMY+EiSJEmSJDWMgY8kSZIkSVLDGPhIkiRJkiQ1jIGPJEmSJElSwxj4SJIkSZIkNYyBjyRJkiRJUsMY+EiSJEmSJDWMgY8kSZIkSVLDGPhIkiRJkiQ1jIGPJEmSJElSwxj4SJIkSZIkNYyBjyRJkiRJUsMY+EiSJEmSJDWMgY8kSZIkSVLDGPhIkiRJkiQ1jIGPJEmSJElSwxj4SJIkSZIkNYyBjyRJkiRJUsMY+EiSJEmSJDWMgY8kSZIkSVLDGPhIkiRJkiQ1jIGPJEmSJElSwxj4SJIkSZIkNYyBjyRJkiRJUsMY+EiSJEmSJDWMgY8kSZIkSVLDGPhIkiRJkiQ1jIGPJEmSJElSwxj4SJIkSZIkNYyBjyRJkiRJUsMY+EiSJEmSJDWMgY8kSZIkSVLDGPhIkiRJkiQ1jIGPJEmSJElSwxj4SJIkSZIkNYyBjyRJkiRJUsMY+EiSJEmSJDWMgY8kSZIkSVLDGPhIkiRJkiQ1jIGPJEmSJElSwxj4SJIkSZIkNYyBjyRJkiRJUsMY+EiSJEmSJDWMgY8kSZIkSVLDGPhIkiRJkiQ1jIGPJEmSJElSwxj4SJIkSZIkNYyBjyRJkiRJUsMY+EiSJEmSJDWMgY+keaPVasXAgG9bkiSpv/D5hIHPKgyS1A9a27c+1f6Lr+6MvW/uid27d8eqVati586dsXXr1u4kkjS3Xn/99Xj55Zfjvvvuiy9/+cvx0EMPxfj4eHesJEnS3BkcHIwrV67Et7/97Th06FCsW7cuPvGJT8TGjRtj2bJldbwkzaR9+/bFrl274pVXXomXXnopXnjhhXjxxRdjx44d3Sk6DHwk9T0Cn69//euxdu3a+OIXvxgPPPBAjI2NdcdKkiTNHQKd0dHR2pY6efJkbNmyJZ555pnYsGGDgY+kWWHgI6kxXnvttfirv/qr+oHp8ccfrx+gJiYmumMlSZLmDqdy8UXUT37ykxr88Fnl937v9+zhI2nWGPhIaoy33norvvOd78Tly5dj5cqVsWTJkpiamuqOlSRJmjtcs2dycjI+/PDDGu489thj8dnPfjZWr14dixcv9vqDkmacgY+kxjh+/Hi8/fbbce7cudqzp91ue0FESZLUN/hswnV8+FLq/vvvj0ceeaSGPcPDw35mkTTjDHwkNQY9e86cORMXLlyoH6b4Fs0PT5Ikqd8Q8tCzZ82aNTE0NGTvHkmzwsBHUmPwrRmncDFwX5IkqR/xhVTvT7RL0mww8JEkSZIkSWqYWw187GMoSZIkSZLUMAY+kiRJkiRJDWPgI0mSJEmS1DAGPpIkSZIkSQ1j4CNJkiRJktQwBj6SpHmLn+nPYar+fL+Dg0NfDz2vWUmSNLv8WXZJ0rwzNTUVk5MMEzE6PhFjE1MxUYbJqcnSkIywKSn1l1arDOW/wcGBGBkajEXDgzE8PBRDg4MxMDBQxpcJJEnSLbnVn2U38JEkzTuTExNx5cqVuHD+fBw5eSaOnTkfp89fjguXrtQgqN2e6k4pac61WjFQhqGhoVixdHFsWrM8Nq5ZEevXrIrly5fH0MhIDAwMdieWJEk3Y+AjSWqedjsuXb4cZ89fjONnzsehE+fjvRMX4oPTl+PYubE4c3E8Jqa6gQ/dfOw0IM2dq6/BVgwOtGJ4aDDWLBuOB9YsiW3rlsYDZdiybkWsW70qli1dEiMjI/b0kSTpFhj4SJIao56m1Z6KsbGxOHj4WLxz6GT86ujFeOvkZBweWxonxpfEmclFcXFyKKZioLQzW57WJfUJIpyB8socak3FsoGxWD98JTaPjMbWRZfiY+uH48ltG2LrxjW1x8/ixYs6M0mSpOsy8JEkNUO7HeMTk3Hp8pU4cfpc/Pz9k/HzDy/EnhOT8avzI3E6VseFgZVxubU0RlsjMdUaLH/d/E0CqX+0o9WeioH2RCxqX4nlUxdiTZyP9a2z8bGVE/GZrUvi4/etjEe3rIkNa1bEyKJFMTjga1iSpOu51cDHv6aSpL42VRqLo2NjceTE6fjxm+/G7v3nY9fRJfHaxS2xr/VIHBq8L04PrI2LA8tivLU4JlvDMRmDDg4OfTMMxURrJMYGlsSF1so43toQ77W2xs/aH4vvnd8S33lvPF5752S888GxOH3mXExMTHZf/ZIk6W4Y+EiS+tro6GicOns+3j1yOn544Hy8cWI43ry8Jj6IjXF+eH2MDi6PiYGRaNeePd2ZJPWhVrQHhmJiaElcGloVZ4Y2xHtTG+Nn51fEG0fb8fP3T8X7R07GpcujMTlp6CNJ0t0y8JEk9a12ux3nzp2Pg0dOxN7DF+OnF1bF+5Pr4tzgmtJoXOqVeqR5q7x2WxHjg0vi2NCWeHt0TbxxeDz2fng6Tp49H1dGR6M95a/tSZJ0Nwx8JEl9qh1TpcF38tylePvo+dhzYiLeG1sTJ4Pr9SyJqRjkyiDdaSXNL53X7sTAcFxoLYvDk6virUsr4s2T7fjg2Ok4e/Z8jE9M1GkkSdKdMfCRJPUlevdMTk7EsbNXYt+xy/HWqYijrbWlcbg8JmKwO5Wk+a0V461Fcba1It6f3BhvX1gc7x89FSdPn6m/yidJku6cgY8kqe8Q9kxNTsWVK6Nx6uJ4HL4QcXR0JC4OLK8Xf237K1xSY/B6Hm0tidODa+LI+JI4euZSnDl/McbGxrtTSJKkO+EnZklSX5qYnIiLFy/G+SuTcXFqOK4MLImp1lBpHHoal9Q0U63BGB9cHJfaI3HuylRcvDIRY+PjMTU1WQNgSZJ0+wx8JEl9h/bd+NhEnDt/Ps5dHouLk4MxFsPRrn+2DHykpiHI5bpcVyYH4syVqTg/Oh5XRsdi0uv4SJJ0xwx8JEl9qB0Tk+Nx8eKluDg6EZdLI3CiBj6GPVIz8dpuxdhUxPnxdlwsd0bHJ+rPs9vDR5KkO2PgI0nqS+2pdv2VnvHJqZhoD9Rv/yU1WCuivOzLa75VhojJqalot/1pdkmS7pSBjySpP5XG30BrIFqtwXJ/wN49UtPVjjzltc61ujx9U5Kku2bgI0nqS61WKwaHBqM1MFQv6DrpL3NJDUba0yr/BiMGed0PxsDAQHnG0EeSpDvlp2dJUl9qlT9RAzT+SqOvNgL9kyU1H7/C1xqqgU+LHn4DBj6SJN0pPz1LkvoT7b7a+GvVX/Bp2+6TGi4vztx53fP6t4ePJEl3zsBHktS32lcbgHkraSH59XuAJEm6XQY+kiRJkiRJDWPgI0mSJEmS1DAGPpIkSZIkSQ1j4CNJmvf4IZ/FgxGrF0WsXxKxadn1h83cLu1Mt2IkYrj8JeTa0P1osJRrUdmulWW71i2OWFuG5cMRS4YilpXb1eXxhrIta8r4fJ6B6TaU7avTl21kOf1kqOzzpaWcHK+r5Szl51jcKo75CPumbB/HkmFVWR7763rHk3nq/izzrCvTrynrZT9SFm7Zj9QN9iuPKeftYL2DZR6OAdvGMeOWx0Nl3HWKNa+xTSNlm+s+Ldu7tuzXq6+rziSSJGmODK5dufHPn//Kc3HixPE4ePBgLF68OJ577rlYuXJldxJJku6tdrsdY2Njcebsudh3ajLePjcYR8eWxPjQimi3prXC250G+/0rIj6+LuKTGyKeWl/ur414vAyPdW+f6Lndvjpiy7LSEC+N+ksTEeNTnctC99PlYQknCAoIJp5YU4aybfeVMg8PRiwrzxNMfKw8//TGzjQZ9hBiPF32AftiY3meIOzcWMTYZFloH7TACZ8IsB4ox+vJUkaO1eayLUOlnFfKsbhchpuhBrAfCIseL/tgR1nGo6s6gc9o2U6WMzntYBLGLGGesq6c5/7lndBo2UhnWdSNT2+KWF0eE2Kwzy6PM3NnGTdDQLSi1ClCxSfL8jk+HBtmHyt1jKFRlyAuG8NxIGzjtfVUOZ4PlY+P1MOrr6vb2OBWWeCqOB8PDJ2Jh9cOx4MblsfqFUticHCo/mKXJEnqOHXqVBw4cCD2798fe/bsiaeffjqeffbZ2LixfDDsMe1TsyRJ8w+NToKOh0ujn4b8Z8rfus9tjnh2S8TvPxDxB1sjfvf+zuPPlgb9p7qBCA1+Gqc0JWvDtHeYbvr4aw243vPpWuOvMVAmekkQIBCOPLYmYnsZCHo2luHB0rAm2GG7Pl2295Gy7WzP1jIt2/g75fnPlNuHV0csLtsYpfH9G+vpNX1c79DrWuOvNVwHPWDoPcM2cRwoJ8fqkbI99Az5yLzTl5njys5h39AziKDhC+W4/vZ9nWPPc4Rl15qXQGZVWQf7qO7Psm8IZwictpX1E/b8Qakvnyr7c1vZn/SO+o3lXE8Zx3rZNpb5dCnLF8p2faLcEi7WY9Cd7obL6h3fO0x3rWmmD72u93zqHT99munjcig4nrz2CCU/X44DA/uWY3m1h9S0eSRJ0r2Rf4olSZq3aGjTk4VG5tpFnUCE8IMQhPDnmdKQ37Gu85jTuuh1QTDA6Tb0lqHnB/MTHDHQiGWZdCrgDyW9UuiBkuOv3i/zXp2nDMyT40a643icyyr/6rJzmo8spzvU6bvrZ715qhrbRC8UesdwytGWsn2EHYQ79GYiQGEawgZ6zRD2EGrxPMuoIUmurwy928jA4ywLvV6y/Lld5V+nTOXx1XJPG5iP26vLLvNMx/OEbJSTXkv12JTyEsIQluRMbHtdbrc83Ge9PM8yeEyPHkI+gi9CL4IGepvQ46vO252H/Vm3sQysm/1XT+srA/uTwIJQhv1ISMMt5WH5dCjrXRbLKP+uKbet9jwqy6C3Gb2G7ivHiqCJcbms3v2aeMzzOc307c46xHTTj0E+rseuez/3Fbe90/duA7e5vBw4flfrRRmmL7cuowzgVDVO5+I4fLIcRwKuh7phWU57vXVLkqTZVf6kS5I0v3H6zsXxiOOXIg6ej/igDNzn9B4CABr3S4c7jxn//rmIk5cjpqY6IQkN1EdXd3p8cEoKz3FNGa73Qs8MlkFwsq1noIcNpxERItWwhTCmNHJp7NdxZVmPlCGfJ3RhWSy7d1lMyzK2d5dFUEXAQ+OaBjetYxrgNJRzoFwECGwX8xOeMA+BF88TMLBsQiGuq0LQsJTny3RsK41zgi+CEcrFeEKw3KZHu71fHiz3CcaYjvIQjLFOwhCWz3Zwn33G9jKwbE6bYpkELb+hHCuWRZiSPWsoLyEM21X+1RCB7WHZlIeeTSyXUIb56N3DfuCYcmyYrg5lOWwD01L+3J9cmyf3Z4YY9D7hlrAjr+tDedgW5mFfsTyWldvF8+yP613bpyyqlo2wYyPzl2U9wPJK2a7u27IsjgH1JK8TxHwskv3M/mXfUn5OCWP6ug1lvRwrpuc41+nKMjlGbDvHom53dx6ey+vpZKBFGZgu60TdB2VgP+Z6mY+ycUob+4Vl1LKXZbJsysV6qcecEskymI76w3ayz/IUQ3qnsawsG8tmHK8DtlmSJM0ur+EjSeo7t3UNn9JynGhHnB2NOHAu4mcnIn5+MuK9cp/riNDI5topvyjPfeeDiP/fWxG7P4z44EKn8U9PDHol5HV/CGlorLJMxhP81B4z3R4kDJwmxbWB6MFBo5yGLNeBofHM8j63qdNzhWXRSKdxO1WWR4Oe5+mRwnVkCBfohUPvI65/8liZngCD9XL9GMpAo5qQgSDh/HjEh6XcnH7GczSk7yvDkYud7TlT9gEhBj1mVizqhFqHyvNvne4EJb+1pdMLgzJSFq6Xw/Rcs4br6fzWfZ1tqvujPGa7KAtng02W/xHCZG8ptp9AhcCB/cNyuWXfEKJc4fo3ZfkTzNyDgICyZ5BCcEC595UyMpy40tn/tbcNp+Bt7mwP0zNf2fQ4P9YJkwi62I+EKmB9LJ+whrLkNXR4jkCQbeB4si8IKbi20eGy70BQxvFiWexPwkGmfag8x/HKstJL5VQpI+NrYcq2JsaxbAIsysWxZBKuZcO8BCbsewIUAiieZznsI+oO+5tTwdjH9NDK9RLQcJy4NhHHg33BMWBajhvzcSw+UabntDTWQehGcMZ6qCccT44tYRPron6xfsazH+kpxvyEPuz/M2UbCaQ4Ds+WesFpbtQLlk2ww7h6TaJuXaQcBFNsL4Hqm+X1RpDEMaBuMGwp41kf10XitclropfX8JEk6dbc6jV8DHwkSX3ntgKfgkYnjebLpRFLGEBjtgYLpcFNUEMA8f750gg9FfH9w51GJyECDWAastkrgYY6jWMa5zT2sag0fmksP1Omo8FOg5neMUxLw5vpaSTzmKCBU3jy+jBMS6OX9WXwkY1nGs7MX+crA41lBsIAQgMa3fSEIJioIVOZlh42Z8r2IQMfGvtHu4EPoRfbzbYRzhBoXOpedJiGO+EJIQTBAUHQ2TKexj6nQxGuECLwmLCA4IPl0/OGcIhwgPVzHaQdZb+xnWwfPUcoAyEA01NOQi4CCsIMyoRs208PfNiXTPPu2VKmsh0EW1zTh2vBsN9ZJj10KNfmsn8IZtgnHFO28WOlHCxnZdnPLJvQhTIzPfuTY0L4RXkYzzh6U3F82L/szzKq9oQhrCI4IaxiWkKN9d2y5jGmJxBhCGHHeNmo3tCirrusi+nY39xSj+gtwy37lTKxv7hPvaB3GttDeTidjO1mmzhO9BJieraFx7kuys8xJhDiOBCk1G1l2WUgSGT5nK5G/cvlsz8fLOsm8Dld9jkhGL2ROO7P3t+ZhmN8sdQP6j1hDXWGAIqeOpSDsrMOBlAm9il1lDrAfiZoPF4GXi+8/th/7DeCMgLLk+WWdffsusrAR5KkW2PgI0mat2438PmI0hCnQUswQCOY8IDG++HS0Hz3XMTPT3Qaxlzklx4LnJ5Sg5Uy0Eiu4UVp2NLYv1AapTRo6YVDzwnCGBq+NGoJJgiJOA3ogbI8ggUe0xuDxi2hEcumwc366Z1Dr4YvloY1QVP2GKHRm6cVceoNz9OAJvBhvtGyPRmwsKwTpSFNeERjPkOWawU+LCt7hLBdzE9oQRj2qzNlON0pD41x9hE9NJiOsIZtJ8ih/AQNBBM01tkXlJ9p6+lqZXr2NeMpL9tOCERoQPOc8I0GPqEGoRwoXwY+BAwEPvTwOVimI0ih3M8/1AmhCHgIStg/9RSp8phrNLEf2DauM8T+IqQhFGJbCZlYF+FLDcXKNhCgcR0ZxrN9hG0cU3pPnbhUq0wNtfLUNHpWsa3cgtOdCFVqeFSOLfubbSO0GCvlqBtbTA98KC/XiGI0IVINqUqZclvYb/RKYj4CE+oFPacoNzjGLIv1sp9YBttNOdkGjjPbzvHK06SoR9RhjhtlYZ0EfzxX60CZl+cI16iT7M/PbenUAY4ndYJxzMvxYTs4psxDefKUPp5jX/MaYd28Nqgz7N8rZYdSz7LXF/uW/bX3VMTbZzv1dLSsp7t7rzLwkSTp1vgrXZKkham0C2mc0j6sQ+epzvPlhnGc6sJ9Gp3HSuP2bDfMILSgoUyjn94NNLIJbxgIMxjHNDReORUoe6/wPMELDXUawZwSRIjBfDTsCTdoDBMWMA3TMxBccK2ht093AhiWSThBQ5vGPGUg8CC8Ikxi3tpjpDSqb9b+rRfTLcuiXJyuQ0jD+mj87y+NbgIiev9wHSMCEhrulIVbFk1ZKTNlIVSgtxQN+1WlDHVflIF9ca5s56HudZNYNttMqMA8zE9Z2ec3QsOfoIDAiX1PeQknuP4RoQyhEteDYV/y/Kc3dPZp9vYB+4OQgX34Ttk+Tg+jJ0ntBVT2I78IxilzzMM+Zv+zHfRwoQdObxm5m72gOB2O3io8RyDCdtVeR2Vetu16mJ46VXs5lf1CD6Z9Zzp1gwCMZRA6sX8JJikHARP1ht43HBuWQXk5bY9tyH26rpSD9RM+Ui+oy+x71sGxZT+w3QRD7LPE8WMbWCfPZ3hDeESoRP2g5xLrZ90sl5DpdNmPBEGg/lEGyvNwWT7L49gwLfWIOkEAyilpBFj0CmK76rWzykDAxildhGySJGl2lb/P5a+wJElNV/7c8RePYOBoaXT+4EjE378X8Ze/ivjXw51eGzREaYzT+K+/okQrlpZvQaOVRi/Bxq4PIr6+v3MtIIIFgh8a9W+W+986GPF370R8t4zj1BbWSQ8HQgYa9fRw4fQoGvY0zv/h3Yj/dU/E//sXEf+1zMf1T+hBRCBBg56yEBz0DizzRpiGAIXAhPCFEIWGOI1uejj97HjEYQKabhl2lbL+zb6Ir73dGUe5CQ3YF+wvAhfKlMum/ARDBAzfOFDmLfNR9u8f6swLwgOua0TvFbbhRgEVQQH7KC/ivGl5p9cK20k5CB3o6QRCLC6GzHSEDcxHmQhIKM8/l/L8b29G/H/3Rrz6fsSRcqzpvcX09IiiPKyPbZu+Pykij+nN9Muyn/6+bNP/pxyXb5blcDogx5j5CcPYPo7l9bAsQqMDZT9TF/73Us/+t1Kml8vxZh9Tl+iVRNjD8rjmFOv5u7IvueUxwWL2WGIf0luIIIdjS5mpk9Q9juk3Sl3+39/qHAuuYUXYxT6nJ9qFshwes10cO0Ki2kunWzcIbpiOYOe9sg/fKvOzva8fjXil7M9/LGWmdw5hDdvEtZAoANtP4JYBJNvMthAG8XP7XN+J08N+Ucr3L2UfEGqyDwmVJEnS7Ot+VOFjgyRJzVWDizLQQKU3Az0+fve+iD/Y1ulNQyO4Nlxz+p6B/9HoJny4UBqw2QuD0IMGOeEBoQQN6mOlUczANExPgMC6abAzgOcYxylBnKJFTxJ63BBO8BzjaUzTCL9RUHJNZfq6vm5jnHCA9XJLDyF6htTnynjCEy5KTI+a33+gNNK3lsZ6eUw4lQEPNzkktpdTkQgb2Fa2ge0lxCBQYF/lNk+f91rK5LWslId1c595eb4GMmVgXZz2RajzwbnOY8oBxtcQqqw/L1TNdARc9HxhPIEXww33J+ss0xK0sE3HynCyrCe3jVPpmJ19l9t2XWVkDQnL8aReELjQU4hgkV5l9C6jvhHg0NuHOshphr9XjgHHg+fyQuDdxV1dL9h09g31jmUTYlJmQrx6qhnHoUzD9rKfjtPz6UynnrFeekhxDSCu60NwRhBD2Jg9kAiEuNYU15z6/ObOtX84PjXkogxlYNnd4lSUjTpLj6m6v8t66BFE7zDWwXGlR5kkSbo3uh8jJElqLhq+oCHKKUc0drkQLQ1sfrmKxi0NVxr0NKJ726Q5L7eECgQ1NKaZloYxz0+VmRlH454eDTTCeZzj6/+4Xx9028vlfzlkq7k7WUfeufrE7cvAgUY85aJHCWEX14XhdDWukcOvSXHBZnpkcN0cgi9WWQODcudaq2e72A+EPiw/Qy+mz/1X56v/u7p5N8R+IGRiYHqWx3IJXwhxuAYTAU4Op8pz9MjKi2Ezz9X9Weatx4pjUAbKlBh9Pd1Z63blcWR+1sFQj18Z8jjeSE5CeTi9Lk8j5PksE+sjGKEnFr+49TulPlInOW2NcGS8rD/rZMq7ua+Zpta7MrDNjGf5V+teWQnTEQbRm4t9x/P0LOI0vzxtkPH8yh23BEL0/OGCy1zbJ6/Dw3KoUyy7u+hfK8+xrYxj33F6IMeOAIieWyyPXmv0kKrHSJIkzToDH0nSgkDvA07tqac5rehcZJbAg4YsvUU4VYveKpyycq2gg8c0eBmywd47Hbc0uDMcuNrgvoZalm7vB3q05PWBuOVUIcaXRdTG9Z2gPc28NLg/vBjx0+OdU3XoLcJ1W/ipeq4Hw37gtJ68GDXrpbcIvUDowVS3YVoZWDbPMY7trMFWGeq+KCOnT49rPPURtbxlGQQtDCyb5XJcuD7QHn5mv5SfkIeeKPTaoXcVx4r5mJ9jW/fnyK+vk0TAlRczJjzKHlc3wuje7Sr/fn2se+e9yXIYT28Yrm/DvqUsHGt69HDLOBZB+MHpaxwDjgmBG9vPKV30uOF0LEKda62u1sUyMJ7y1m0rw/Sycp/9xgW06f3EfmA9nHJFAEjIRq8jXgP0ZmKfcY0fysR+ZAdyahqBEOPZP3X5PetIhGSsg9PMCJg4nmx7vY5VWSanfBECSZKk2eefXElS49E4pdFPQ7b2bCkDPX1o0BOIcL0WGqg0sOktkQ1n5skB02+nuzq+3LneNCB4IdihMU3owkVz6UXBRYVpHBO8EGbQWL5ZQPEbutNzyhCn+bx1KuLbByN+fKyzbTT0OY2HU4hq0FP2BWWhVwa/YvbLk52A5UhptE90A5IswtXt6w640XbeKpbBttbTqMrxoJz03uFXuwgZ3jjaueBvXseHGwIcfoafYItTnQjuNizuXKuHnzXnF9j45SvCH3CqU+9pYDdz19tVFkCox4Wo68/5l3IxEHyw3+nZQ/CSp4oRBHEcCHg4He31I51jQe8mtjXrcHfRH7nlztX76HmQd+kBRKBJnSAIrPur1AVO02L5XOy6/nJXGZen/xFEUUZeFz84XF4jxzunpGUARcB3ta6X/1FX2M9cq+c7pc79qBw31kcYxzbnRZ5vemqdJEmaEQY+kqRGokFJz4V6TZHSgCVkoRcEgUL+whbj+MWiLz0Y8SePRHxqU8SK0gDmtBMa3/QYoUcCDeBhllVu6ZlBIMMfUJaZ19ph4DHjyr96y/Q8z0+CE0pkI7dmDuV/LPu5su4Xnoz4jzsivlLKQAOcnhj0yqHBTxiQy8915KlPrJvT1LjN5+o2l/UxHfNyIV5CHy6cS4OexvczmzvXb2FdhF6ELVxQmp/R/nIpzx8+1DnVh2UQkhEOUNar+6I8X7erDHV7y8BtrjvHMf/VQCDxuAx1/5TxHBsGTr/iGjf0CiF843o8j5YyfOXRiP/HpyP+/eOd6y4R1BEqsF2Um33Jclgm4cqXtnX25//9kxF/9HCnNw0hxU/K/uQXtwgwKBfrZL7e/UaZF5Uhn8/jRVkZl+Wtp2cxvjP6Kh7ntjENwQa9ttiX/0Mp///1ExH/rmwPp1JRDoIRwqwfHetsN6EMP9vO6Yb/p4+X8pfjwOmG1EOOG8sjhOE+ZanlKUNveVg/j3N8HiOWzal9XMeH+kBPHfYdrwme51Qv6h09vOg9xfWkCH9YH7+29X8u5eE1Qi+kXDaBFvWB29w/BFP1F8PORfzwSKnHZdtYDiErpw5+odQ9ehVRbkmSNLv8cytJahx6GtCgJtTJU1E4zYSGPw3Zt0uj9xcnO7f1FJbSYOVUIAISejPwM+k0gJmfnjb0smAZnGbDtWRowBI20AOFnjCcbsR4pqNhTY+Juu7yPPPUU2XKtHkqDBeuJeCgpwTr5TQrej4QJrAceuPwC0n0tKF89JKgXFy0mNOaeI4LAbNN/AQ5p2DRO4Z1Mo6y7y/bRk8RlkfvGMIFQh+WU6/PU/YTwQmP95b1cMvpOBkqsI3MQ0DANtPrpoYDlKW7T+u1gcrz7Gv2B2XK/UTZCGWyl1Bi+9k/lJOAgXJSXtbBY7bn+4c72075CDvq9V/K/qmBXfdY0FuF5bMelkGIwfyEOfScoicXIQTb9dOy3YQP/PIUx4h6wDJYL2XO/cn8/HQ6+5PHlJOy0+uGbWW72KcEU4QiHM9ePGRfUG6WxbTsK5ZFUMVxZv8SiOwpZaEHzI/LQBj1w3L7s1JO6gohXP0Z/7LtBDDUYZaVvXPqNY1KeQhVKNOJMg09tNg/1Ff2EduWx+F8KSvjc968OHgta3mO6Vge6+LUL+oR+5PAkf3EMrnuEwEh079dykJ4xrKZlnlyn2adYxzHkLrMfmc8x4MAjtebH0AlSZp9g2tXbvjz57/yXJw4cSIOHjwYixcvjueeey5WrlzZnUSSpHur3W7H2NhYnDl7Lvadmoy3zw3G0bElMT60ItqtmzcV6U3T20ODRjc/mU4wQOOZhjphCw13ggYaqPSwINwg5KDRSuhDo5aG8MXSoK1hRpmX539VpjtVGrqEF5xWxDjmp4FLQ59GMQgLrjaCy7yEJpxKRcOfXhc0vvm5a+aljDS8Ob2MRjKBAI3m7MVSfzK7jKd89YK4NOLLQGOf9VJ2GvKEDZzmxLw0tGm4U14CCk5n4to8NOxZJwP3CU/Yzg8pQ3mOIIGfm2ddPGZ+wjH2F6ECwQPbQzjCQJDA8zVoK7dsM9OzDAIMnsvQh+0mlOH4EDCxLayH/cD2sU8oK/uQbWZdNTwp45iGoI7tYls5xav2KCnbxD4mLCIUYzvYfraP3kL0lmI+tpGQg7ISVOR2sg7Wx75mGzl1ie1ivexjAgr2KfuObWNZNSwqj1ledvXJ3j08ZHpCOPYf+4Ly0MOK+d8qj39SjjHlosyEeOwL6hHBEoET+60GK939wvZxn/mZjmWz79gGgjzKSnDFfiZYIYRhnWwf9ZjtY78TLNKrjV8BY7vYdk4fI2xi/7APwOFiHuoXz1Om2juoLItlUl+pqzxHWZg2XyPUR/Zf9sJiyICP8XmtoOmn17XKWlfF+Xhg6Ew8vHY4HtywPFavWBKDg0Nl33Z3siRJilOnTsWBAwdi//79sWfPnnj66afj2WefjY0bN3an6Ght3/pk+y++ujP2vrk3du/eHatWrYqdO3fG1q1bu5NIknRvTU1Nxfnz5+PdAwfj7/eNxT8eHI6fXlgTFxdvialWaaXeBI3uelFkelUs6TTEabjXHg6lEUpDl2uUcIoSvVlACJChBfPSvCR4oJcHp/lwGg3P1YZ5aazy/LLyHD1QGJiPRmyGH6ybxjXK7LX3Bz+J/h+f6vzcNae0EED9zb5OMMG1XJiGUIjGel0O6y7r4Lo+nGLGOggqCKw4TSzXzbz0QiF8oIxcp4dtoKwsh0CHfcBy6GnCNuc4nqcsnLbF6Vusg7Air9PCvqJhnvuC9XHqDgi7TpRls72ECYxj3YzmGkKEAOzv2rOpM0tdH8ukHPW6NWWd2eOHbSMcoqcTx4fTm5iWefLUM6YjeKHnEL1lcpvYcNZBkMTxJ/RgW3J/5n5jffQyYR8wnjLW8pd56MFCrxr2C88zH9vB9PTE4mfS2TaCDKbJXjWJ9VJ26gXHmmNWnqplpzwMPGaeMyy/lIljR8HZd6yHesPxYFvYLxyHegpVWS7Hl+1hf1Betp/p2MccH3ricDoXPZxYN/NlD7XF5TG9hri2Eb8GRvDI8SZE+9u3I9441gmxrpTlcCzZP+yPWl/KdKyTOkOZWGmtQ2XZGSSyrtxe9g0hFtvJOjiOLKdMUk/VIyCq8/XsOxY60J6Kbe1D8eyid+Pfbl8av/fxzfHglrUxPLI4BkhxJUlStW/fvti1a1e88sor8dJLL8ULL7wQL774YuzYsaM7RYeBjySp79xt4EPjtDb6y0DwARqlNEBpNGfDnPE0wlFPtSpD+VfHZ8jAc7m8VrlPe5fl8DyN7tqQL7fMx7IJS1gWz7NunmddNM65aC/XlnlmY2ccp1L9v37e6V1BuMAyWSfLz5CEddCYphHOE3Xd5S7lyXGsM8sK1sd4Th1jHA115s3ggLIxLWECLXQWnb1uWARDXVYZcr0sJ7eZZYN9yjbzfIYQBFRMX5df1s86KG8vpqMM9VpD5X6WJfcryyL0YDsYj/L01SCK6Xicx4/tAs8xL7N0i93pzdUdeILtyfWiLqs8z8N6LMvAPDkf5WH5OY7pCKUYz/YzPtX1lv+xDspf11EGpqn1pztNmfXqdrAMFsG25LEp/6pcPo9ZJvd5DiwnjwPHgOcZeCrrNvuCfcYKvlg+1j3/UMSzWzrX06G+HDwX8Z0PIv767U7vo9o7rCyLhVB2ylO3nYUWveu4Wp6yHFaRxx+9+44y1npXBkYzP6ER0zDfrxn4SJJ0q2418PGvpySpcWjA0xClYU5PAgZ6h9RGf0FDlEYnvSvojVCHMg09NmpvmXKf57jPfNzSQ4jeCbmcXD6PmZd5siFLo5ZGOM/V+VhWuWWZ757pXBuF03A47YXeN/T0oLGd68wGPOVkefSkYTmUj9OYWD/rYt30RGHZhDqUhyHXWacvA/uj/Kvz1fIyrkzDMhjPvDxmWYzL8l7dP+U+8zFd7p/cp5QvG/51m5m/O28Ngzq7/CPq/ikjcp9kWVgO5czjw3IoUw5MX5fJdGVg3dnLhCG3m2XmttRydMtIWer+LM8xbV1vdzzrY9q6nnLLY8pZ/tX9xrazDvYF93O7e/GQeZieZTBtbl/dj2Vg+ZQxl1GPTRmubkt3Ggbmq2Xtliv3K89xm9tNWbM8rJ/lME+dvgyMI7ShpxrroofNm6UO0quHU9449YvTFuv2dEMb7rNvKEOWh+XlunO7qJus7yP7tDxXgyDKk9tVnmd/ZHlYlSRJml0GPpKkxqLBWRv63YHHKcfRQGbona53KP+uuZzy7zefr0vu4H4+TwOXBjHXXOGCxC/vj/jaOxG7Puj0rGAcDePrLad3PXXd3SGfu9bzV7eps5iqPPzoPNd47kbD9HXW57rLyGH6uOv5jfLzXGdUxX2en358yr+ruM+Q43qH3vlYV+Ju77rzMbf5XD6ffmMcQ2fUNU3fthyyTFfLxbSdWX5jHdcbrrXs8u8j5eF+juMBvXy4ePV3P+ycvvWXb3Vuv/l+53o7BDGEVCw7dWety+gt8/Qh98X0ctXnpi2nDt3HkiRp9hn4SJI0y2jk0jOFi9rSq+LVg53G9g+OdC4STA+T7FkhzahSrwhauMgygc/fvN0Z/vlAxGul/nER5XraXZnGIEaSpGYx8JEkaZZl7wdCn/zlKQYubMvpL709K6TZwKlU9DDjF7L4xS3qH6cSctqWJElqJgMfSZLuATIdOvJw6gzBD0FPXlvGvEezjVOy8lpFhDzUQ56z7kmS1FwGPpIkSZIkSQ1j4CNJkiRJktQwBj6SpHnAKxpLkiRJt8PAR5LUt4h56tBuG/lIC4AXMJckaeYY+EiS+lINegZa5bYdrVYZbAlKDVde7+WFP8Dr/dfPdO9JkqTbZeAjSepLrdLyGxwciKHBVgzFZPmDNdkdI6mRWhGDrXYsGpiKkcF2DAyUJ8r7AO8FkiTp9hn4SJL6D428wYEYHh6ORYNRGoCTMRwTpT1oLx+pkXhpt9sxNNCOJUNTsXiwHcODhD1+VJUk6U75V1SS1Hf4Pn94aChWLF8WKxcNxLIYjUVTl8rzU2WMoY/UNIS5A+3JWNwaj1VDE7F8JGLR8FAMDg12p5AkSbfLwEeS1Hc4hWNoaCiWL18Rq5cOxtrh0VgRl2Joaqw0Cqe8sqvUKIQ9E7F46lKsal2J9UtbsWrpcCxeNBwDA4Oe0iVJ0h0y8JEk9SUaeotGRmLdsuG4b0UrNi8Zj6XtyzX08dQuqTl4PS+euhxrJk/GppFLsWn18li9Ylk9pVOSJN05Ax9JUl/KXj5rly+KB1cviodWRKyNs7EkLsdQTHSnkjS/tWNoajxWxIW4r3UiHlw6Gls2rIrVK1fGyPBIdxpJknQnDHwkSX1rYGAg1q9eER+7f03s2DgUjw0eig3tk7Fo6nLEFNfzkTRv8SNcU5OxfOJ03DdwKp5ccSGe2jAYWzeujZUrV9bAV5Ik3TkDH0lSX1u1Ynls27w2nrp/WXxmzcXYvuhMbGidiaVTF+p1P1pc08dTvKT5o90ur9vJGJiajBVT52LrwIl4fNmF+PTm4fj4fatiw+qVsXTJkmgN+DFVkqS74V9SSVJf4zoehD4PbVkXn//YpvjMxsl4ctGx2BaHYtXk6VjEdX3a4/Vizq16MeccJPWNGvJM1V/iGm6PxbKpC7F+4kg8OnA4PrXyQjyzeSA+8dCGeGDLhliymIs1e6FmSZLuVmv71ifbf/HVnbH3zb2xe/fuWLVqVezcuTO2bt3anUSSpLk1MTEZFy9fjpOnz8ZP3j0WP/3gYuw9PRT7x1bF6anlcbG9OK60h2K8PRjt0k4sTUvOFilsNEpzqxu+ttsx0GrHcEzG0oGxWDVwKdbH2di+7HJ8alMrnrpvZTy2bWNsXLMqhoeH6umckiTp2vbt2xe7du2KV155JV566aV44YUX4sUXX4wdO3Z0p+gw8JEkzQuTk5MxNjYeh0+ejvePnI63j5yLXx29GO9fGIrDV4bj5OhwnJ0YjIk2v/lj0CP1j27YU4ZVwxNx3+Lx2Lp8Ih5c3o7tG5fGY1vXx/0bVseaVSvqL/NJkqQbM/CRJDXSxMR4nD93Lo4ePRbvffBhvHdqIg5eaMWRS604NToQ41OdwKedPQskzSniVwKfkYGIdYsm46EVU7Ft9VA8uG5pbN28ITZuvi+WLVtWJjSolSTpVhj4SJIaaWpqKsbGxuLS5ctx/sLFOH1xPM5dnogLY5Nxebxdx3MpH+MeqU+0IgZbrRgow5KRgVizZDBWLR2OVcsWx/KlS2LJkiX1Wl2SJOnWGPhIkhqr3W7H5NRkTE5MxujYeIyNTcT4xERMlOcYR+DT+Z+kuVQ77ZT/1f/K7dDgYCwaGaoBz8jwUP3pdZ5nkCRJt8bAR5K0ILSnprq9egh6+In2LgIf25DS3CFzra/Bzguxhj4DhDsDV28lSdLtM/CRJEmSJElqmFsNfPxqRZIkSZIkqWEMfCRJkiRJkhrGwEeSJEmSJKlhDHwkSZIkSZIaxsBHkiRJkiSpYQx8JEmSJEmSGsbAR5IkSZIkqWEMfCRJkiRJkhrGwEeSJEmSJKlhDHwkSZIkSZIaxsBHkiRJkiSpYQx8JEmSJEmSGsbAR5IkSZIkqWEMfCRJkiRJkhrGwEeSJEmSJKlhDHwkSZIkSZIaxsBHkiRJkiSpYQx8JEmSJEmSGsbAR5IkSZIkqWEMfCRJkiRJkhrGwEeSJEmSJKlhDHwkSZIkSZIaxsBHkiRJkiSpYQx8JEmSJEmSGsbAR5IkSZIkqWEMfCRJkiRJkhrGwEeSJEmSJKlhDHwkSZIkSZIaxsBHkiRJkiSpYQx8JEmSJEmSGsbAR5IkSZIkqWEMfCRJkiRJkhrGwEeSJEmSJKlhDHwkSZIkSZIaxsBHkiRJkiSpYQx8JEmSJEmSGsbAR5IkSZIkqWEMfCRJkiRJkhrGwEeSJEmSJKlhDHwkSZIkSZIaxsBHkiRJkiSpYQx8JEmSJEmSGmag3b0jSZIkSZKkZmg9uvXJ9n/66s7Y++be2L17d6xatSp27twZW7du7U4iSVKfardjdGw0xsfGYmJiPCYnJspT7fq8pD7SapV/AzE4NBQjIyMxPFyGkWFGdMZLkqRbtm/fvti1a1e88sor8dJLL8ULL7wQL774YuzYsaM7RYeBjyRpXiHQmZqaivGJyRgdHY1TZ87F2fMX4sLFS3H58uWYnJzshD7BYGNSmlvt8ios/w0MxsDQUCxdsjjWrFwRq1cuj5UrlseiRSMx0BqIgQECIV+vkiTdCgMfSVLjEPQQ8py7cDlOnbsQx05fiCPnxuP4xYk4fXkyLoy2Y6LdtpeP1FdaNdAZKsOKRa3YtHwoNq4cjk0rFsWGVctizeoVsWzJkhgeHjL0kSTpFhj4SJIaZWqqXXvvnDh1Og4eORn7PjwRez88FR+OLo+jEyvi1NTSONdeEhMxFFP27JH6SDsGy6tyuD0RK1uXYvPQubh/0ZXYtnQsPrZlZTz2yAOxef2aWLFsaQwPDXXnkSRJ12PgI0lqDHrsXLkyGmfOno23PjgVv/jgbPziyJXYeyriRHtVnIlVcaG1LC63lsRka6ieRGLmI/WL8opsT8VQezyWtC/H6va5WD9wPjYNXYgn1kY8s21FPHH/6nhoy/pYtXJ5DAwM2tNHkqQbuNXAx59llyT1vdGx8Th19nz86v0j8dr+0/HdD6biB+fWxZuDH4+DI9vj1KL74tKitTE1vCxiaFG0hkYiBh0cHPpjWFRel0tiYmRFXBxZH0cXbYv9Q4/GT6Y+Ft87sy52v3sxfrz/eLx/5GScv3AxJrgOV/e1L0mS7pyBjySpr125ciVOnD4Xbx86Ha+/dyHeODkSe0fXxcH2xjgzsCoutpbGaGtRTMRwTLYGY6o7tB0cHPpmqK/LGIqJ1kh5vS6O863lcaq1Jg5Mro+fXVgdPzw2EG+8ezL2f3A8Ll4ejanJqe47gCRJulMGPpKkvsavbx06fir2fnA6Xjs0Eb+8sCIOThH2rI3xgUWdcMfzt6R5o10+fk60huPK4NI42VoT+yY2xk9PL4nXD5yPtw4ejzPnL8bY+Fj31/YkSdKdMvCRJPUtGnxnzl2M946ciT3HRuPNS6vi0OSqOB/LYnJg2KBHmrd47bZibGBJnGqtivfHV8beM8Px1vGxOHLyTFy4cLFepF2SJN05Ax9JUl8i7Km/ynX+crx74lK8fSbi6MDGuDiwovbqkdQMEwOL4lx5XX8wtS72XxiOD46didNnz8XE+Hh3CkmSdCcMfCRJfYewZ2pyMq5cvhwnL4zHoQsRR64Mx8WBZaVxOBLtln++pKbgFK/R1tI4NbghDo8vi6OnL8SZs+djdGysM95TuyRJuiN+YpYk9SV691y6fDlOXx6P46MDcXpiUYy1Fv/6Z9clNUQrxluL4sLgqjg1uSSOnxuNsxevxJXR0Zia8rQuSZLulIGPJKkvTUxMxMWLl+Lslak4NzkSl1pLYzI4lcuwR2oaeu1NDAzHpfZInB4biHOjUzE6NlF7+kmSpDtj4CNJ6jucwTExMVl/oevS6GRcaQ/VU7miZdgjNROnbbVjfCriwsRAXByPGB2f9MLNkiTdBQMfSVIf4oLNE3H58qUYHb0SUxMT0WqXlqCkhuqEuVPldT9eXvPjY1diYmI8pqamvIaPJEl3yMBHktSX2uU/GntTU+W23SqP/JMlNRmRT7u81ienWuV1X17z7fIuYNgjSdId89OzJKkvtVoDMTQ8HANDi2JqYCQm/Sl2qcHa9V+U13l7aHHE4EgMDAyVwdM4JUm6UwY+kqS+NDAwEMNDpdFXhvbgcEwZ+EjNNzAUMbQoWkPDMTA4GAMtP6pKknSn/CsqSepbnNbFf52v/iU1Hz19fv1677z+JUnSnTDwkSRJkiRJahgDH0mSJEmSpIYx8JEkSZIkSWoYAx9JkiRJkqSGMfCRJEm/gR/DHiqfEpYNR6wa6QzcHy7P8UvZjGcYLI+XMs2iiDVlWFmmWzwYsagMPL+6PMe8y8v9kT791MF2LhnqlHPN4k5Z2YZBfxFckiTNY3360UuSJM0Vcg5CnaVDEfcti3h4VWfYUu4T4hCEXA17yjQbl0Y8UsZ/bE3Egysj1i/pBEAby+328twjq8tylnee67cPHi22s2wTZX6olP2JUt6tpawEP4RWkiRJ85WBjyRJ+oiB8ulgZDBi3eKIT2+M+L2tneHpcp9ghCCEoITePvTqeXJtZ/wfPhTx7H2d4OeBFREfXxfx3LaI3y/jWM79y8s8ZV7CpL7Q7nwQYjsfK2VmG/70kYjPbYl4aFXE8pHONJIkSfORgY8kSfoIOrYQ6tAr50vbIv794xH/Yxn+4IFO7xdOfyK0IRTavCzit++L+J/K+P/4VMR/tz3imU0RT6zrhD//lycj/uePd4IfgiDmISxi6AdsBz2XKPN/97GI/9snI55/KOKpUn7CLAMfSZI0Xxn4SJKkjyKQKTecurV4qHPKEwMhUD2di5GdyWpgktfrWTYSsaTcEurQ+4fneY5xLIfePczLMgiN1i7u9PqhNxAD9+lBxPVzhso0XPOH6wZtKM9tXhqxKYdlnWkJnzjljFPHuO4O1+KhPKyD+zzHfEy3tSyfYIdlsQzury+3K0r5Lo1HvHs24vuHI75xIOLHxyIOno+4ONHdSEmSpHnIwEeSJH3E9Izjbju5MD8Dyx0u/+PiyIQwT66L+OymiM9v7gz0svnE+s7pVOuWdC4ATUDz8bURT2+I+BTDxohPl1um/fyWMn+Z7xPlMdcO4ro7BElcV4j5tq+O+GQZxzS5fB7nclgugRAB1JnRiAPnI94+E3H4Qufx2CSllyRJmp8MfCRJ0vV105p2pjbXUEd1p7k6SfdO73x86KCnz7aVnfCF07z+2+2dU6kY/t2jEX/0UMTvbu1cU4eePIQ/v3N/5zSrP3kk4r8pw/+hTMepYwz/rgzMQ/jDhaPpIcRFpAlzWM5XyvSs48+YtszHNXr+tNx+5eHOch8v021Z3gmI6PXDhZtZL2ETvZQkSZLmKz/KSJKkWcepVkODnVOonuhe5Pm/eTTif3i8DI91rhP0Pz3RuVbQf1uef2ZzxIOrOsHPcw9G/B/LNIz/92X478t9HjPvv+/e/3KZhl4721aU+crA9YNY/n//sbLM7jR/VgbmZRms58sPdXoOcb0e5mU9jP/i/Z1fF1vpNXwkSdI8ZuAjSZJmxPUuxJyZCdfV4fo89J4Zn4p463TEP74b8V/2RPzTexHvn++Mp6fOIysjNndP6+Ln3+ltwzzvnIn4B+b5ZcRf/ypi76nOqWL0zOHXwpj30e6pXIQ/Jy5HfOuDiP/nzzrz/PJExKny3FQpFNcJYl7KXYdyn2CKD0fclyRJms8MfCRJ0kdkQMNtvd9NP64+vg5ClKmpzu10BCp86CC8YRidjDh5uRPyfFAGgpkrE51QaO2SzjV86A20qDzmtLDJMpwf6wQ+//JBxD8dKLeHOhdbnijL4rpAnJLFxZkZCHu4aPOHFyJeOxzx9Xci/vG9iJ8ejzh0MeJyWRfLpay9t6wn70uSJM1nfPaSJEn6tW7gUYfuY2QvmHq/ewvuM8nkVMRYGWpoUsf06C4DLJcPIPyK19pFEdtXda7rs7rc5xe+6OWzqPurXgNlQpY/URZ4YSziyMXOhZUJfghzuLjyRFle/ioX1/DhejxcwJnyHr8c8d65Mv3ZMt/pznzHLnUCp6p3QyRJkhrEwEeSJF0TGU32dqnX4CmfGhjyp9nJSrhffwq93CfoGZ3ohDPTe8gwfZ7SRdBDOMPPqT+8MmLHhohHV0WsXtyZBlfDpi6Wyc+kE/CcvBJxbqyzLk7zYmDdlIXl81PuhEXMQ68gpqVHz/nxTthztszPvNOKKEmS1CgGPpIk6SMIQugAQ5DCT5OXm/pz5/TAIUwhlMlePDxPgEPYQkhDyDL9lC6e59e57lveubbOb9/X+Sn1VWV571+I+F/3RPzVvog3T3aCmenzg2Xw/NXTrbjt3FQZOF0q818c65SbcnJa2HJ6C5UJOD2MbSBs8he4JElS0/lxR5IkfQQhCsEN4UntTTPaCXS2LO38ohU/qf65zZ1bApz7l3d61NCbhlOu6FHDaVa15093YH6CIQIYfvZ8cxno0cNznF5VewZ10xumv3rx5HJblVvu1qF7h5s6XXdgfspKmc+UgXBoUykzvwpGWT9bhidL+Vk3AdRVLKs75DqvrleSJGmeMvCRJEkfQVBC7x7Ck4PnO9fKuTTeuZDyZzZFfGlbxFcejnj+oc7Pn9Nzh+m5+DK/vFWvkdPtqUNwxECPG5ZBKHS53NJLZ+lQJ5D55PqIR/kZ9JHOPFwLqPbkKWVhOnrusHyWw/3eHj5Mm8+zztOlzMcuRxwtZWCdXMiZMvOz7ZSbnkVbSnkJmpi/LqcMXGya5dTTw8pQ118nkCRJmp8MfCRJ0kdMlYHw4+xYxL4zEXtORRw4F3GlG6DQy4feMp/Z2Pk5dDrDfHg+4hcnyrQnO718LoxHXCwDvW1Ol4GfQj9+KeLQhc5FlLll/JLhiO1rOsEPYQthEb/YxQWaCWz45S6u23OKXjvlll5HlI1AhvFcl4dxLJ9b1sd6DpcyMI5TuLgoNKEPYQ+9ezilK09BI9NhOZSFcrJutptTywiRJEmS5isDH0mS9FHdoINr4fz4WMQ/vxfxd+90bgl16PVDMEOoQo+eb30Q8VdvR3xtf8TPjnd6BBG6HDgb8aMjET8pz+09FbGvTPtWuf3WwYhX3o/4QRnHdXv45SzW883y3D8e6DxPwEQAw3J+Wdb5xtGy7jIt66anEKeBMX5/mfcnZV7m/1W3dxHPU4bDhEoTnfCJIIdl8gtfR8o0l8v84DQwAh6W+/Oynh8c7pSR0IqeSDXNkiRJmocMfCRJ0jURhtRQ5WzE60c6Qc23P4jYVYbvfti5/db7ndvXukEJvWw4FYzg5c3TZfoyz/fKtIQ+757rPE8otLs8x/IY/qXMz8Byvl2W98qBiB8di3i7rPdXZ8qyy7pZH+ugLPTcoefPycudHkW7D5V5y3iWS08frr/DxaTzgtJcr4f7y0Y6F50eKZ9+6CFEL56zpayEO/Rk+n5Z/jfKugmP3j/fCYokSZLmKwMfSZJ0Q5zuRABCEPK9QxHf+bAT/HynO9DDht4z9JQhSKH3DcEPPXcIUQiL9p7s9AgiRPngQqe3Dr1pCGoIbJgme+oQ7nBLbxyCGO4T+vz0eGc99NrJddBr6PWjnWVx6hmnfdEph2CHkIf7/FrXykURG5d2Th0bGez0XiJ8IuzhdDSCJNZDeX5ZysYpZ5w+Zg8fSZI0Xxn4SJKkG+LaOgQpnCb17tmItzk9qzsQyvA847kWDmeDce0bes9wGhXX6yEs4iLK/HrXGNcG6vaqIbwhFCJsYRqWw8BjLgDN6VwMBERMyzh6HLEeeh8RyBwv63ifdZSBQIllsx7CHOZjHqbJawJRLspCkMTpaAe6ZWM9hwh+yvOUjeUwvSRJ0nxl4CNJkm4PvV5y6BelLPQuIngizPnHdyNeeivim1wT6HDEz493BnoK8dzX90e8+n7nNDQu9MyFoO3NI0mSmsTAR5IkNUa9CPNopycS1wHilDMuBv3qwc7AfU7b+uGRzjT0/KlhjyRJUsMY+EiSpEbhlDKu88N1ePjlLa4PxC9/MXCfX/3iFDJO/ZIkSWoqAx9JktQonNrF9Xe4QDSna3GNHq7Lc7QMXNuH5wh7uPBzmVSSJKmRDHwkSZIkSZIaxsBHkiRJkiSpYQx8JEn9z/NuJEmSpNti4CNJ6n/8XLahjyRJknTLDHwkSX2LnGeg1a5/rLgvqfl4zft6lyTp7hn4SJL6Ug17BgZisNUqw1T5gzXZGSGpgToRD2HP0EA7BstQXvplaNVBkiTdPgMfSVJfIuxZNDISiwYjRmI8hsogqanaNfMh3F08MBmLB9sxPDgQrZYfVSVJulP+FZUk9R2+0R8aGoqlS5fEskWtWNoajZGpK6U96IV8pCZqtdtlmIpFrclYNTQRy4cjRoYHY2BwsDuFJEm6XQY+kqS+ROCzbOmSWLl4sNMAjCsxODVeG4WSmmWgvK5HpkZjxcBYrF0S8f9v78xyo8iyMPxn5ODMcA7GM9jloooausFV/dCD1Oq9sAfYBDz1Uy+DJfACgjVAC15K6kJVZvKA54yIjj/TPz6EsMTQEgn9f+jqnDjTvTFcIK4jwr1y3k81G0gSL/gYY4wxH4oXfIwxxkwcfMKnXq8jTVPMpQ0sdTLMNQ/QKg7KG8OhF32M+cJolnO7N3yG+fouFvspZnoppqam/A0fY4wx5iPwgo8xxpiJpJYkaLZamOu2sTbTxFo3w7n8Jdr5XvmPlxd8jPlSqBfHmC5eYRnPsNbZx/n5PmYGfbTK+W+MMcaYD8cLPsYYYyYW/lx/tp/i26UB/jDfwDf1DcxiCy0clh5/z8eYzx0+sZfmu1iobeNSewffzwArC+cw6PfQ8Pd7jDHGmI/CCz7GGGMml1oNg16KtcUB/ric4qeZQ1yc2h4t+nTKm8Q6X+/ywo8xnxkFkiIbPdnTLV7hfO0Fvkt38dNCgh+Xu1g410Pa6SCp+7+pxhhjzMfgf0mNMcZMLPx2R3d6GitLc1hfm8M/1lr4ubuFr4snGBxtIMmPy3tHv95lzOdFrfyToZXtYS57ih/qT/Dnc6/w9+9mcfmbZQy6KZqNxijOGGOMMR+OF3yMMcZMNPx4c687jdWFGfzp6zn89UKjvDncw+X2U6zmv45uGLvZJlr5Hur5EWr8TV750M3NbWLa8Whxtp4dopXtoj98jqVsAxfxBOud5/jb4jH+strB5bV5nF+YxVSr6Q81G2OMMf8DapdWLxf//NcNPHj4APfv38dgMMCNGzewurp6EmKMMcZ8WoqiwPHxEHv7+/jl95d4/OQlHjzZwoPf9vFb1sfzoo/NYhq7SDGs1fnCSJnlG0ZjPj185ZKvcOVo8BWucpbO17ax3NjFSnsfPyy28fPFBVxcPofF2QHSThtJLeHbnMYYY4w5g0ePHuHu3bu4ffs2bt26hatXr+LatWtYX18/iRjjBR9jjDETTzH6TE+BPM+xub2DjRfb+M/TTfzy+xZ+3atj47CJF0dN7AzryAr+Dq/ybtE3jMZMDEk5f5u1HP3GEEtTR7iQZrgwDXy10MNXFxYwO+ij057yh5qNMcaYd8ALPsYYY75IhsMhDo+Osbd/gO3dfWy83MGzrT1s7h5gd/8IWZ6NnggaPVjgRR9jPi2jeVhDUrZGo4FuZwoLgw7mBinm+9Podztot9toNZtIEn9pwBhjjHkXvOBjjDHmi6fIM2xvb+PVzg7293ZxeHiAIhuOF3yMMRNCbbSYk9QbmGp30Ot1kXZ7SNMUtcRP9BhjjDHvixd8jDHGfNFoUSfLMmR5PnrdqyibMWbyGD/owyd9EiRJbfQxdi4C+ePMxhhjzPvz3gs+D//9EPfu3Rst+Ny8eRMrKysnIcYYY4wxxhhjjDFmEnj8+DHu3LnzxoLP9evXceXKlZOIMaOXpeNPV6j7py3GGGOMMcYYY4wxk8e7rtvULn17qeBHLflYLT+Eqcdr2fi4vOQouNT5yDwfw6VNfkJ7GTHSq/6YQ502frwv1lYsJccwejT/RJefuuL5+P74AeHT/ohqqF9CyQ8F8rF/1VCMZBXaNQ75qTebzTfqsm8hO4k141iivdo3txnHfuN+K45SNvmFbHEfKVmPevWcSFcd9StJXxXaeY1on2MtSubSR0mqdWjX/squGPVNuK3xMl59xH2LKF/xIuYzN9aKuvKVo3HQHyVRvGwad7QR6vSxX0Eb46JOGe2E2zzOvGYJfdVYylibfVX7Ixwb7TGvCu3KpVRclIQ661WvJaJjRqr+mEOdNjXaiGIpOQbGSZdfYyNv64+oBqViKD3/3zwn0lVH/UrSV4V2z//TY0g07mgj1Oljv4I2xkWdMtoJtz3/Pf9lUxylbPIL2eI+UrIe9eo5ka466leSviq0e/6fHkOicUcboU4f+xW0MS7qlNFOuO357/kvm+IoZZNfyBb3kZL1qFfPiXTVUb+S9FWh3fP/9BgSjTvaCHX62K+gjXFRp4x2wm3P/89n/itbdhJrxrFEe7VvbjOO/Wq/89IWx0o0tohieN2oJveZ9ejTMRot+IwCy4PBX4UZZVyUoWTjQZNO5KMcbVdslPWTwVGP+fIT5RPFcZDVk6QdVW6sQWKdGE8UT5THpr/E5I8+6joJMY/ILhtlhLaYKxQnqRpVYk3Vqh4T2SmJ+lIsZYwjsT/1IZvsRHaiuOgnitEYqFfPmexC1wChZC79UWcMc19fqCc+1aKNyEdJu/K5LZ2SUI91iHTG6xpQPKnGq19us2lfz4IxzFFTH7zmNDbVItX6RLY41qq/eq7F27Zlo9Qx4X6wRpS0K056tKueYkS0Uer4UH9bXRLzFadxMJ9+NtVSbqxBYp0YTxRPlMfm+T8+TpSyE9mJ4qKfKEZjoF49Z7ILXQOEkrn0R50xzOU+qEbsgzYiHyXtyue2dEpCPdYh0hmva0DxpBqvfrnNpn09C8YwR019eP6f+knMV5zGwXz62VRLubEGiXViPFE8UR6b5//4OFHKTmQniot+ohiNgXr1nMkudA0QSubSH3XGMJf7oBqxD9qIfJS0K5/b0ikJ9ViHSGe8rgHFk2q8+uU2m/b1LBjDHDX14fl/6icxX3EaB/PpZ1Mt5cYaJNaJ8UTxRHlsnv/j40QpO5GdKC76iWI0BurVcya70DVAKJlLf9Szk1+6UK83XtfIc+aNb4ZpI/JR0q58bjM+SXgMxosg1NUHJVHNouDxarz2i2o84whzaOM4WfcsGMOxMI9SfQyHx6/Hxm3WI9X6hHlEsdyu5rAux0ld9tLzOlaMx/LmMaMe55vkuI/Y38fO//F5Vb78JObTFseh88mmWsqNNUisE+OJ4ony2P5/5n+O/wKXjaKpQtPCZgAAAABJRU5ErkJggg==;" vertex="1" parent="1">
          <mxGeometry x="-48" y="-790" width="1148" height="1033" as="geometry" />
        </mxCell>
      </root>
    </mxGraphModel>
  </diagram>
</mxfile>
